<svg width="236" height="237" viewBox="0 0 236 237" fill="none" xmlns="http://www.w3.org/2000/svg">
<path d="M214.111 95.5295C214.072 95.211 214.051 94.8908 214.047 94.5702C213.95 87.2805 211.113 82.2326 204.187 78.4006C191.205 71.2187 183.664 78.4006 179.897 84.7874C176.129 91.1741 170.263 80.7911 161.059 81.9915C151.856 83.1919 152.265 92.7644 149.757 97.9559C147.249 103.147 141.797 96.3605 134.687 97.5609C127.577 98.7613 127.152 102.747 125.887 104.348C124.622 105.948 113.325 101.952 107.049 105.143C100.774 108.334 97.4153 114.326 97.4153 114.326H234.757C234.757 114.326 236.431 104.748 230.99 101.152C226.108 97.9303 215.048 103.086 214.111 95.5295Z" stroke="#263238" stroke-linecap="round" stroke-linejoin="round"/>
<path d="M150.349 107.472C149.88 107.582 149.444 107.793 149.073 108.088C147.302 109.565 147.302 110.617 147.302 110.617" stroke="#263238" stroke-linecap="round" stroke-linejoin="round"/>
<path d="M180.688 95.0781C179.466 97.6431 178.39 100.418 175.844 101.542C172.243 103.148 168.879 99.5258 165.559 98.705C164.621 98.4132 163.612 98.4045 162.669 98.6799C161.726 98.9554 160.895 99.5016 160.29 100.244C158.793 101.87 158.772 105.569 156.802 106.61C155.844 107.123 154.428 107.123 153.034 107.185" stroke="#263238" stroke-linecap="round" stroke-linejoin="round"/>
<path d="M221.576 106.867C221.474 106.631 221.372 106.405 221.253 106.19C218.616 101.157 212.373 105.2 208.535 103.789C205.123 102.537 206.243 97.3969 205.785 94.7139C204.897 89.5173 198.046 85.5519 192.69 86.347C188.717 86.9915 185.123 88.985 182.572 91.9592" stroke="#263238" stroke-linecap="round" stroke-linejoin="round"/>
<path d="M222.658 111.479C222.561 110.585 222.408 109.698 222.201 108.821" stroke="#263238" stroke-linecap="round" stroke-linejoin="round"/>
<path d="M78.4592 80.3859C78.4353 80.1987 78.4227 80.0103 78.4215 79.8216C78.3677 75.533 76.6993 72.5679 72.625 70.3158C64.9931 66.0888 60.5582 70.3158 58.3407 74.071C56.1233 77.8261 52.6787 71.7214 47.2642 72.4242C41.8498 73.1271 42.092 78.7649 40.6173 81.8121C39.1425 84.8592 35.9348 80.8733 31.7528 81.5812C27.5709 82.2891 27.3179 84.6284 26.5806 85.5672C25.8432 86.506 19.1909 84.1616 15.4987 86.0391C13.1446 87.3301 11.1911 89.192 9.83667 91.4358H90.596C90.596 91.4358 91.5809 85.7929 88.3839 83.6896C85.5152 81.7967 79.0082 84.8285 78.4592 80.3859Z" stroke="#263238" stroke-linecap="round" stroke-linejoin="round"/>
<path d="M40.9724 87.4088C40.6972 87.4714 40.441 87.5944 40.2243 87.7679C39.1802 88.6349 39.1802 89.2556 39.1802 89.2556" stroke="#263238" stroke-linecap="round" stroke-linejoin="round"/>
<path d="M58.8091 80.1089C58.0932 81.6068 57.4581 83.2484 55.978 83.9102C53.8575 84.8541 51.8768 82.7252 49.9285 82.2429C49.377 82.072 48.7837 82.067 48.2291 82.2285C47.6745 82.39 47.1854 82.7103 46.8284 83.1458C45.9511 84.1051 45.9349 86.2751 44.7778 86.8907C44.0708 87.1537 43.3125 87.2675 42.5549 87.2241" stroke="#263238" stroke-linecap="round" stroke-linejoin="round"/>
<path d="M82.8457 87.0498C82.7919 86.9113 82.7273 86.7779 82.6627 86.6497C81.1073 83.6948 77.4366 86.07 75.1815 85.2441C73.174 84.5054 73.8306 81.4838 73.5669 79.9038C73.0287 76.8515 69.0189 74.5173 65.8704 74.9893C63.5353 75.3654 61.4224 76.5354 59.9231 78.2827" stroke="#263238" stroke-linecap="round" stroke-linejoin="round"/>
<path d="M83.4861 89.7635C83.4258 89.2462 83.336 88.7324 83.217 88.2245" stroke="#263238" stroke-linecap="round" stroke-linejoin="round"/>
<path d="M191.485 22.9305C191.461 22.7432 191.448 22.5548 191.447 22.3662C191.393 18.0775 189.725 15.1124 185.65 12.8604C178.018 8.63332 173.584 12.8604 171.366 16.6155C169.149 20.3706 165.704 14.266 160.29 14.9585C154.875 15.6511 155.117 21.2992 153.643 24.3463C152.168 27.3935 148.96 23.4076 144.778 24.1155C140.596 24.8234 140.343 27.1627 139.606 28.1015C138.869 29.0402 132.216 26.6959 128.524 28.5734C126.17 29.8644 124.216 31.7263 122.862 33.9701H203.621C203.621 33.9701 204.606 28.3272 201.409 26.2239C198.541 24.3412 192.034 27.373 191.485 22.9305Z" stroke="#263238" stroke-linecap="round" stroke-linejoin="round"/>
<path d="M153.998 29.9534C153.723 30.016 153.466 30.139 153.25 30.3125C152.206 31.1795 152.206 31.8002 152.206 31.8002" stroke="#263238" stroke-linecap="round" stroke-linejoin="round"/>
<path d="M171.834 22.6535C171.118 24.1514 170.483 25.793 168.998 26.4548C166.883 27.3987 164.902 25.2698 162.954 24.7876C162.402 24.6167 161.809 24.6116 161.254 24.7731C160.7 24.9347 160.211 25.2549 159.854 25.6904C158.976 26.6497 158.96 28.8197 157.803 29.4353C157.096 29.6983 156.338 29.8121 155.58 29.7687" stroke="#263238" stroke-linecap="round" stroke-linejoin="round"/>
<path d="M195.871 29.5943C195.817 29.4558 195.753 29.3224 195.688 29.1942C194.133 26.2393 190.462 28.6145 188.207 27.7885C186.199 27.0498 186.856 24.0283 186.592 22.4483C186.054 19.3703 182.044 17.0618 178.896 17.5338C176.57 17.9157 174.468 19.0852 172.975 20.8272" stroke="#263238" stroke-linecap="round" stroke-linejoin="round"/>
<path d="M196.512 32.308C196.451 31.7908 196.361 31.277 196.242 30.769" stroke="#263238" stroke-linecap="round" stroke-linejoin="round"/>
<path d="M169.418 182.472C169.394 182.285 169.381 182.096 169.38 181.908C169.326 177.619 167.658 174.654 163.583 172.402C155.952 168.175 151.517 172.402 149.299 176.157C147.082 179.912 143.637 173.807 138.223 174.51C132.808 175.213 133.05 180.851 131.576 183.898C130.101 186.945 126.893 182.959 122.711 183.667C118.529 184.375 118.276 186.714 117.539 187.653C116.802 188.592 110.149 186.247 106.457 188.125C104.103 189.416 102.15 191.278 100.795 193.522H181.554C181.554 193.522 182.539 187.879 179.342 185.776C176.474 183.883 169.967 186.914 169.418 182.472Z" stroke="#263238" stroke-linecap="round" stroke-linejoin="round"/>
<path d="M131.931 189.495C131.656 189.557 131.399 189.68 131.183 189.854C130.139 190.721 130.139 191.342 130.139 191.342" stroke="#263238" stroke-linecap="round" stroke-linejoin="round"/>
<path d="M149.768 182.195C149.052 183.693 148.417 185.334 146.931 185.996C144.816 186.94 142.835 184.811 140.887 184.329C140.336 184.158 139.742 184.153 139.188 184.314C138.633 184.476 138.144 184.796 137.787 185.232C136.91 186.191 136.893 188.361 135.736 188.977C135.029 189.24 134.271 189.353 133.513 189.31" stroke="#263238" stroke-linecap="round" stroke-linejoin="round"/>
<path d="M173.804 189.136C173.75 188.997 173.686 188.864 173.621 188.736C172.066 185.781 168.395 188.156 166.14 187.325C164.132 186.591 164.789 183.57 164.525 181.99C163.987 178.912 159.977 176.603 156.829 177.075C154.503 177.457 152.401 178.627 150.908 180.369" stroke="#263238" stroke-linecap="round" stroke-linejoin="round"/>
<path d="M174.445 191.849C174.385 191.323 174.295 190.801 174.176 190.285" stroke="#263238" stroke-linecap="round" stroke-linejoin="round"/>
<path d="M56.7907 109.16C56.7907 115.854 50.9295 126.448 45.8864 126.448C41.6883 126.448 34.9822 115.854 34.9822 109.16C34.9822 102.465 39.8638 97.0377 45.8864 97.0377C51.9091 97.0377 56.7907 102.46 56.7907 109.16Z" fill="#263238" stroke="#263238" stroke-linecap="round" stroke-linejoin="round"/>
<path d="M45.5796 126.771L45.6819 129.197L47.8078 128.69L45.8864 126.448" fill="#263238"/>
<path d="M45.5796 126.771L45.6819 129.197L47.8078 128.69L45.8864 126.448" stroke="#263238" stroke-linecap="round" stroke-linejoin="round"/>
<path d="M53.5901 106.751C54.9153 105.913 54.9492 103.739 53.6659 101.895C52.3825 100.051 50.2679 99.2356 48.9427 100.074C47.6175 100.911 47.5836 103.085 48.8669 104.929C50.1503 106.773 52.2649 107.589 53.5901 106.751Z" fill="white"/>
<path d="M47.7811 99.3411C47.695 99.7515 47.0922 99.9823 46.4302 99.8541C45.7682 99.7258 45.3053 99.2949 45.3914 98.8845C45.4775 98.4741 46.0803 98.2433 46.7423 98.3715C47.4043 98.4998 47.8672 98.9307 47.7811 99.3411Z" fill="white"/>
<path d="M46.5484 127.684C45.7465 130.639 45.0253 134.794 45.8218 137.888C47.0221 142.505 52.0705 145.526 50.7465 150.836C49.3364 156.478 43.8574 160.105 41.6937 165.374C40.359 168.616 40.7249 172.587 40.9671 175.993C40.9671 175.69 40.9994 175.146 40.9671 174.756C40.6011 169.673 41.3923 166.333 44.4655 162.27C47.4096 158.377 50.9564 154.447 51.0425 149.445C51.0964 146.408 50.0684 143.802 48.4214 141.237C47.5441 139.873 46.43 138.513 45.9241 136.974C45.1491 134.62 45.8918 131.393 46.5431 128.987C46.6507 128.582 46.4354 128.1 46.5431 127.705L46.5484 127.684Z" fill="#263238"/>
<path d="M224.176 17.3337C224.176 24.0027 218.315 34.6217 213.272 34.6217C209.074 34.6217 202.367 24.0283 202.367 17.3337C202.367 10.6392 207.249 5.21167 213.272 5.21167C219.294 5.21167 224.176 10.634 224.176 17.3337Z" fill="#FF81AE" stroke="#263238" stroke-linecap="round" stroke-linejoin="round"/>
<path d="M212.965 34.9449L213.067 37.3714L215.193 36.8635L213.272 34.6217" fill="#263238"/>
<path d="M212.965 34.9449L213.067 37.3714L215.193 36.8635L213.272 34.6217" stroke="#263238" stroke-linecap="round" stroke-linejoin="round"/>
<path d="M220.989 14.9319C222.314 14.094 222.348 11.92 221.065 10.0761C219.781 8.23221 217.667 7.41672 216.342 8.25465C215.016 9.09258 214.983 11.2666 216.266 13.1105C217.549 14.9544 219.664 15.7698 220.989 14.9319Z" fill="white"/>
<path d="M215.166 7.51508C215.08 7.92548 214.477 8.15632 213.815 8.02808C213.153 7.89983 212.691 7.46891 212.777 7.05852C212.863 6.64812 213.466 6.41727 214.128 6.54552C214.79 6.67377 215.252 7.10468 215.166 7.51508Z" fill="white"/>
<path d="M213.934 35.858C213.132 38.8129 212.411 42.9681 213.207 46.0615C214.407 50.6784 219.456 53.7 218.132 59.0095C216.722 64.6524 211.243 68.2793 209.079 73.5478C207.744 76.7899 208.11 80.7605 208.352 84.1667C208.352 83.8641 208.385 83.3203 208.352 82.9304C207.986 77.8466 208.778 74.5071 211.851 70.4441C214.795 66.5505 218.342 62.621 218.428 57.6193C218.482 54.5823 217.454 51.9763 215.807 49.4114C214.929 48.0468 213.815 46.6874 213.309 45.1484C212.534 42.7937 213.277 39.567 213.928 37.161C214.036 36.7558 213.821 36.2736 213.928 35.8786L213.934 35.858Z" fill="#263238"/>
<path d="M176.899 137.564C176.899 144.233 171.038 154.852 165.995 154.852C161.797 154.852 155.091 144.259 155.091 137.564C155.091 130.87 159.972 125.437 165.995 125.437C172.017 125.437 176.899 130.849 176.899 137.564Z" fill="#FF81AE" stroke="#263238" stroke-linecap="round" stroke-linejoin="round"/>
<path d="M165.688 155.16L165.796 157.587L167.916 157.079L165.995 154.837" fill="#263238"/>
<path d="M165.688 155.16L165.796 157.587L167.916 157.079L165.995 154.837" stroke="#263238" stroke-linecap="round" stroke-linejoin="round"/>
<path d="M173.777 130.269C175.064 132.116 175.026 134.286 173.702 135.128C172.378 135.969 170.263 135.128 168.976 133.306C167.69 131.485 167.728 129.29 169.057 128.453C170.387 127.617 172.496 128.428 173.777 130.269Z" fill="white"/>
<path d="M167.889 127.73C167.803 128.141 167.2 128.371 166.538 128.243C165.876 128.115 165.413 127.684 165.5 127.274C165.586 126.863 166.188 126.627 166.85 126.761C167.512 126.894 167.975 127.304 167.889 127.73Z" fill="white"/>
<path d="M166.657 156.068C165.855 159.028 165.134 163.183 165.936 166.277C167.13 170.894 172.179 173.915 170.855 179.225C169.445 184.868 163.966 188.489 161.802 193.758C160.467 197.005 160.833 200.976 161.076 204.382C161.076 204.079 161.108 203.53 161.076 203.146C160.71 198.057 161.501 194.717 164.574 190.654C167.518 186.766 171.065 182.836 171.151 177.829C171.205 174.792 170.177 172.186 168.53 169.621C167.658 168.257 166.544 166.897 166.033 165.353C165.257 163.004 166 159.777 166.651 157.366C166.759 156.966 166.544 156.484 166.651 156.083L166.657 156.068Z" fill="#263238"/>
<path d="M43.5937 55.5929C43.5937 62.2926 37.7325 72.8859 32.6894 72.8859C28.4913 72.8859 21.7852 62.2926 21.7852 55.5929C21.7852 48.8932 26.6668 43.4708 32.6894 43.4708C38.7121 43.4708 43.5937 48.8983 43.5937 55.5929Z" fill="#FF81AE" stroke="#263238" stroke-linecap="round" stroke-linejoin="round"/>
<path d="M32.3826 73.2039L32.4848 75.6304L34.6108 75.1276L32.6894 72.8859" fill="#263238"/>
<path d="M32.3826 73.2039L32.4848 75.6304L34.6108 75.1276L32.6894 72.8859" stroke="#263238" stroke-linecap="round" stroke-linejoin="round"/>
<path d="M40.4719 48.3032C41.7529 50.1448 41.7206 52.3199 40.3966 53.1561C39.0726 53.9923 36.952 53.1818 35.671 51.3401C34.3901 49.4985 34.4224 47.3234 35.7464 46.4872C37.0704 45.651 39.191 46.4769 40.4719 48.3032Z" fill="white"/>
<path d="M34.5839 45.7793C34.4978 46.1897 33.895 46.4205 33.233 46.2923C32.571 46.164 32.1081 45.7331 32.1888 45.3227C32.2696 44.9123 32.8831 44.6815 33.5451 44.8097C34.2071 44.938 34.67 45.3638 34.5839 45.7793Z" fill="white"/>
<path d="M33.346 74.1171C32.5495 77.077 31.8283 81.2323 32.6248 84.3205C33.8197 88.9375 38.8735 91.9641 37.5441 97.2685C36.1394 102.911 30.6603 106.538 28.4967 111.807C27.1619 115.054 27.5279 119.019 27.7701 122.431C27.7701 122.123 27.8024 121.579 27.7701 121.189C27.4095 116.106 28.2007 112.766 31.2739 108.703C34.2179 104.81 37.7648 100.885 37.8509 95.8783C37.9047 92.8414 36.8767 90.2354 35.2244 87.6704C34.3525 86.3058 33.2384 84.9515 32.7325 83.4074C31.9574 81.0527 32.7002 77.8311 33.346 75.4201C33.4591 75.0199 33.2384 74.5377 33.346 74.1376V74.1171Z" fill="#263238"/>
<path d="M122.717 90.7894C122.717 90.7894 120.413 85.2644 120.343 84.8284C120.273 84.3924 117.447 84.1359 117.184 84.1359C116.92 84.1359 116.92 89.4094 117.512 89.8455C118.104 90.2815 119.751 92.7337 119.751 92.7337L122.717 90.7894Z" fill="white" stroke="#263238" stroke-linecap="round" stroke-linejoin="round"/>
<path d="M115.542 84.89C115.542 84.89 116.08 88.717 116.263 89.0299C116.547 89.2813 116.897 89.455 117.276 89.5327C117.655 89.6103 118.049 89.589 118.416 89.4711C119.138 89.0914 118.545 84.8285 118.217 84.6386C117.889 84.4488 115.941 84.5155 115.542 84.89Z" fill="white" stroke="#263238" stroke-linecap="round" stroke-linejoin="round"/>
<path d="M121.204 87.1523L120.246 84.2129C118.979 84.0164 117.702 83.8845 116.42 83.8179C115.758 83.8794 114.444 83.7563 114.444 84.1975C114.444 84.6387 114.902 85.1363 115.892 85.1363C116.882 85.1363 118.196 85.1978 118.196 85.1978C118.196 85.1978 118.389 87.019 119.051 87.3934C119.575 87.7685 120.026 88.2266 120.386 88.7477" fill="white"/>
<path d="M121.204 87.1523L120.246 84.2129C118.979 84.0164 117.702 83.8845 116.42 83.8179C115.758 83.8794 114.444 83.7563 114.444 84.1975C114.444 84.6387 114.902 85.1363 115.892 85.1363C116.882 85.1363 118.196 85.1978 118.196 85.1978C118.196 85.1978 118.389 87.019 119.051 87.3934C119.575 87.7685 120.026 88.2266 120.386 88.7477" stroke="#263238" stroke-linecap="round" stroke-linejoin="round"/>
<path d="M128.772 102.265C128.772 102.265 125.806 97.1865 125.413 96.0579C125.02 94.9293 122.647 90.1584 122.647 90.1584L118.502 92.4208C118.502 92.4208 119.094 98.1919 119.294 98.7562C119.498 99.7091 119.651 100.671 119.751 101.639C119.751 101.639 124.622 101.075 125.133 101.075C125.645 101.075 128.621 102.706 128.621 102.706L128.772 102.265Z" fill="#263238" stroke="#263238" stroke-linecap="round" stroke-linejoin="round"/>
<path d="M115.795 91.795C115.278 92.1578 114.832 92.604 114.476 93.1134C114.476 93.1134 113.427 96.0631 112.899 97.756C112.372 99.4489 111.053 107.416 111.053 107.416H111.086C110.803 108.901 110.682 110.411 110.725 111.92C110.829 113.509 110.829 115.102 110.725 116.691C110.551 117.525 110.316 118.346 110.02 119.148L114.493 122.226C114.493 122.226 115.031 117.522 115.413 113.633C115.669 111.203 115.765 108.76 115.698 106.318C115.596 104.858 115.574 103.394 115.634 101.932L115.957 97.9561C115.957 97.7252 115.957 95.7963 116.14 95.6886C116.14 95.6886 118.115 94.6626 118.244 94.4369C118.373 94.2112 118.443 90.8459 118.443 90.8459C117.536 91.0969 116.651 91.4142 115.795 91.795Z" fill="white" stroke="#263238" stroke-linecap="round" stroke-linejoin="round"/>
<path d="M117.636 91.9078V94.9191C118.211 94.6861 118.745 94.3694 119.218 93.9803C119.611 93.5391 119.676 91.5949 119.412 90.969C119.148 90.3432 117.797 91.4102 117.797 91.4102L117.636 91.9078Z" fill="white" stroke="#263238" stroke-linecap="round" stroke-linejoin="round"/>
<path d="M113.448 95.9349L115.063 91.8309C115.063 91.8309 116.898 90.2919 118.002 90.1944C119.105 90.097 119.961 89.6096 119.961 90.0764C119.905 90.4263 119.713 90.7432 119.423 90.9639L118.239 91.4769L117.377 92.1746C117.377 92.1746 117.377 93.929 116.032 94.2779" fill="white"/>
<path d="M113.448 95.9349L115.063 91.8309C115.063 91.8309 116.898 90.2919 118.002 90.1944C119.105 90.097 119.961 89.6096 119.961 90.0764C119.905 90.4263 119.713 90.7432 119.423 90.9639L118.239 91.4769L117.377 92.1746C117.377 92.1746 117.377 93.929 116.032 94.2779" stroke="#263238" stroke-linecap="round" stroke-linejoin="round"/>
<path d="M150.16 54.0897C143.503 56.2289 131.097 54.3206 129.482 49.7652C128.142 45.9741 136.533 36.5299 143.19 34.3753C149.848 32.2208 156.802 34.8883 158.729 40.3466C160.655 45.8049 156.845 51.9505 150.16 54.0897Z" fill="#FF81AE" stroke="#263238" stroke-linecap="round" stroke-linejoin="round"/>
<path d="M129.068 49.5908L126.689 50.4629L127.867 52.2174L129.482 49.7652" fill="#263238"/>
<path d="M129.068 49.5908L126.689 50.4629L127.867 52.2174L129.482 49.7652" stroke="#263238" stroke-linecap="round" stroke-linejoin="round"/>
<path d="M156.393 48.9445C154.972 50.6938 152.798 51.3556 151.549 50.4271C150.3 49.4985 150.424 47.3491 151.845 45.5793C153.266 43.8094 155.44 43.1682 156.689 44.0967C157.938 45.0252 157.814 47.1952 156.393 48.9445Z" fill="white"/>
<path d="M157.039 42.8142C156.603 42.8706 156.178 42.3986 156.092 41.7574C156.005 41.1161 156.291 40.5621 156.727 40.5108C157.163 40.4595 157.582 40.9263 157.668 41.5368C157.755 42.1473 157.475 42.7629 157.039 42.8142Z" fill="white"/>
<path d="M88.8143 27.214C94.1265 31.595 98.6959 42.7526 95.3967 46.3898C92.6518 49.4113 79.8584 47.3183 74.5408 42.9322C69.2232 38.5461 68.1145 31.4821 72.0596 27.1422C76.0047 22.8023 83.5021 22.833 88.8143 27.214Z" fill="#FF81AE" stroke="#263238" stroke-linecap="round" stroke-linejoin="round"/>
<path d="M95.4505 46.8207L97.442 48.3289L98.4323 46.4719L95.3967 46.3898" fill="#FF81AE"/>
<path d="M95.4505 46.8207L97.442 48.3289L98.4323 46.4719L95.3967 46.3898" stroke="#263238" stroke-linecap="round" stroke-linejoin="round"/>
<path d="M80.9996 24.7055C83.2978 24.9825 85.0039 26.4292 84.7994 27.9374C84.5949 29.4456 82.5658 30.4305 80.2676 30.1484C77.9694 29.8662 76.2633 28.4196 76.4678 26.9165C76.6723 25.4134 78.696 24.4233 80.9996 24.7055Z" fill="white"/>
<path d="M75.1276 27.2705C75.4021 27.5988 75.1869 28.1887 74.654 28.5786C74.1212 28.9685 73.4753 29.0249 73.2062 28.6966C72.9371 28.3683 73.147 27.7783 73.6798 27.3833C74.2127 26.9883 74.8585 26.9524 75.1276 27.2705Z" fill="white"/>
<path d="M140.16 43.1733C133.739 45.8922 121.204 45.0919 119.17 40.7006C117.431 37.0173 124.864 26.8908 131.28 24.1925C137.695 21.4941 144.891 23.5205 147.335 28.7633C149.778 34.0061 146.565 40.439 140.16 43.1733Z" fill="#263238" stroke="#263238" stroke-linecap="round" stroke-linejoin="round"/>
<path d="M118.701 40.5519L116.419 41.6292L117.77 43.2759L119.137 40.6904" fill="#263238"/>
<path d="M118.701 40.5519L116.419 41.6292L117.77 43.2759L119.137 40.6904" stroke="#263238" stroke-linecap="round" stroke-linejoin="round"/>
<path d="M145.849 37.4893C144.606 39.3515 142.507 40.2082 141.167 39.3925C139.827 38.5768 139.746 36.4069 140.989 34.5396C142.232 32.6723 144.331 31.8207 145.677 32.6364C147.022 33.452 147.098 35.622 145.849 37.4893Z" fill="white"/>
<path d="M145.892 31.3282C145.467 31.4206 144.999 30.9845 144.848 30.3587C144.697 29.7328 144.929 29.1531 145.354 29.0608C145.779 28.9685 146.253 29.3994 146.43 30.0252C146.608 30.6511 146.323 31.2359 145.892 31.3282Z" fill="white"/>
<path d="M126.99 13.1272C126.99 19.7961 121.129 30.4151 116.086 30.4151C111.888 30.4151 105.182 19.8218 105.182 13.1272C105.182 6.43261 110.063 1 116.086 1C122.109 1 126.99 6.43261 126.99 13.1272Z" fill="#263238" stroke="#263238" stroke-linecap="round" stroke-linejoin="round"/>
<path d="M115.774 30.7383L115.881 33.1647L118.002 32.662L116.086 30.4202" fill="#263238"/>
<path d="M115.774 30.7383L115.881 33.1647L118.002 32.662L116.086 30.4202" stroke="#263238" stroke-linecap="round" stroke-linejoin="round"/>
<path d="M123.868 5.85293C125.149 7.69458 125.117 9.86968 123.788 10.7059C122.458 11.542 120.348 10.7059 119.068 8.88986C117.787 7.07386 117.819 4.87311 119.143 4.0318C120.467 3.19049 122.587 4.01128 123.868 5.85293Z" fill="white"/>
<path d="M117.98 3.30848C117.894 3.71887 117.291 3.95485 116.629 3.82147C115.967 3.68809 115.499 3.26231 115.585 2.85191C115.671 2.44152 116.279 2.21067 116.936 2.33892C117.593 2.46717 118.093 2.89808 117.98 3.30848Z" fill="white"/>
<path d="M144.8 34.5499C139.886 39.3361 127.921 43.004 124.32 39.6439C121.317 36.8481 124.294 24.803 129.207 20.0167C134.121 15.2305 141.586 14.5995 145.892 18.6111C150.198 22.6228 149.708 29.7636 144.8 34.5499Z" fill="#FF81AE" stroke="#263238" stroke-linecap="round" stroke-linejoin="round"/>
<path d="M123.863 39.6696L122.157 41.4753L124.046 42.5269L124.315 39.6439" fill="#263238"/>
<path d="M123.863 39.6696L122.157 41.4753L124.046 42.5269L124.315 39.6439" stroke="#263238" stroke-linecap="round" stroke-linejoin="round"/>
<path d="M147.905 27.2705C147.469 29.4404 145.849 30.9692 144.288 30.687C142.728 30.4049 141.813 28.4093 142.243 26.2393C142.674 24.0694 144.299 22.5355 145.86 22.8228C147.421 23.1101 148.341 25.0954 147.905 27.2705Z" fill="white"/>
<path d="M145.542 21.53C145.182 21.766 144.579 21.53 144.197 21.017C143.815 20.504 143.804 19.8679 144.164 19.6268C144.525 19.3857 145.128 19.6268 145.51 20.1398C145.892 20.6528 145.924 21.2889 145.542 21.53Z" fill="white"/>
<path d="M109.955 28.5786C114.261 33.8675 116.468 45.6561 112.485 48.5853C109.175 51.0426 97.0544 46.6052 92.7433 41.3213C88.4322 36.0375 88.7874 28.8915 93.5398 25.3672C98.2923 21.8429 105.644 23.2947 109.955 28.5786Z" fill="#FF81AE" stroke="#263238" stroke-linecap="round" stroke-linejoin="round"/>
<path d="M112.448 49.0419L114.094 50.8938L115.445 49.2573L112.485 48.6058" fill="#263238"/>
<path d="M112.448 49.0419L114.094 50.8938L115.445 49.2573L112.485 48.6058" stroke="#263238" stroke-linecap="round" stroke-linejoin="round"/>
<path d="M102.808 24.6593C105.009 25.3673 106.382 27.1012 105.87 28.5376C105.359 29.9739 103.179 30.5895 100.973 29.8662C98.7659 29.1429 97.4042 27.4295 97.9102 25.988C98.4161 24.5465 100.607 23.9565 102.808 24.6593Z" fill="white"/>
<path d="M96.5217 26.1008C96.7208 26.4753 96.3925 27.0139 95.7897 27.3012C95.1869 27.5885 94.541 27.5167 94.3419 27.1422C94.1428 26.7677 94.4711 26.2342 95.0739 25.9418C95.6767 25.6494 96.3279 25.7314 96.5217 26.1008Z" fill="white"/>
<path d="M114.616 50.191C118.922 55.48 121.129 67.2686 117.146 70.1978C113.836 72.6551 101.715 68.2177 97.3989 62.9338C93.0824 57.65 93.443 50.504 98.2009 46.9797C102.959 43.4554 110.305 44.9072 114.616 50.191Z" fill="#FF81AE" stroke="#263238" stroke-linecap="round" stroke-linejoin="round"/>
<path d="M117.108 70.6544L118.755 72.5063L120.106 70.8699L117.146 70.2184" fill="#263238"/>
<path d="M117.108 70.6544L118.755 72.5063L120.106 70.8699L117.146 70.2184" stroke="#263238" stroke-linecap="round" stroke-linejoin="round"/>
<path d="M107.469 46.2769C109.665 46.9797 111.037 48.7136 110.531 50.15C110.026 51.5864 107.84 52.202 105.634 51.4787C103.427 50.7553 102.06 49.0419 102.566 47.6004C103.072 46.1589 105.268 45.569 107.469 46.2769Z" fill="white"/>
<path d="M101.183 47.7132C101.382 48.0877 101.054 48.6263 100.451 48.9136C99.8479 49.2009 99.1967 49.1291 99.0029 48.7546C98.8092 48.3801 99.1321 47.8466 99.7349 47.5593C100.338 47.272 100.984 47.3387 101.183 47.7132Z" fill="white"/>
<path d="M99.8424 10.7212C104.988 15.2766 109.148 26.5779 105.72 30.1022C102.862 33.0314 90.1546 30.5126 85.0038 25.9572C79.8531 21.4018 79.0027 14.2968 83.1093 10.0902C87.2159 5.88368 94.6917 6.16583 99.8424 10.7212Z" fill="#263238" stroke="#263238" stroke-linecap="round" stroke-linejoin="round"/>
<path d="M105.72 30.1022L108.75 30.2869L107.695 32.1131L105.757 30.5382L114.907 41.7318" fill="#263238"/>
<path d="M105.72 30.1022L108.75 30.2869L107.695 32.1131L105.757 30.5382L114.907 41.7318" stroke="#263238" stroke-linecap="round" stroke-linejoin="round"/>
<path d="M92.1245 7.95106C94.4119 8.31016 96.0588 9.81323 95.8005 11.3112C95.5421 12.8091 93.4808 13.7274 91.1934 13.3632C88.9059 12.9989 87.2536 11.501 87.512 10.003C87.7703 8.5051 89.8317 7.5971 92.1245 7.95106Z" fill="white"/>
<path d="M86.1609 10.3416C86.4193 10.6802 86.1879 11.2599 85.6227 11.6395C85.0576 12.0191 84.4279 12.0447 84.1695 11.7062C83.9112 11.3676 84.1695 10.7828 84.7078 10.4083C85.246 10.0338 85.908 9.99789 86.1609 10.3416Z" fill="white"/>
<path d="M117.13 75.4201L120.343 58.2245" stroke="#263238" stroke-linecap="round" stroke-linejoin="round"/>
<path d="M113.174 59.1633L117.625 76.836L126.522 59.3993" stroke="#263238" stroke-linecap="round" stroke-linejoin="round"/>
<path d="M143.147 64.0881C137.006 67.3507 124.444 67.6277 121.99 63.4263C119.95 59.9328 126.393 49.1907 132.528 45.9332C138.664 42.6757 146.016 44.0915 148.949 49.1086C151.883 54.1257 149.31 60.8254 143.147 64.0881Z" fill="#FF81AE" stroke="#263238" stroke-linecap="round" stroke-linejoin="round"/>
<path d="M117.625 76.836L121.99 63.4263L120.87 66.1195L119.374 64.596L121.549 63.3289" fill="#FF81AE"/>
<path d="M117.625 76.836L121.99 63.4263L120.87 66.1195L119.374 64.596L121.549 63.3289" stroke="#263238" stroke-linecap="round" stroke-linejoin="round"/>
<path d="M148.293 57.9476C147.216 59.9123 145.219 60.9435 143.809 60.2458C142.399 59.5481 142.108 57.3935 143.174 55.4288C144.24 53.464 146.247 52.4329 147.663 53.1306C149.078 53.8282 149.358 55.9982 148.293 57.9476Z" fill="white"/>
<path d="M147.754 51.8069C147.34 51.9352 146.834 51.5453 146.624 50.9349C146.414 50.3244 146.586 49.7242 147.006 49.5959C147.426 49.4677 147.932 49.8576 148.137 50.468C148.341 51.0785 148.174 51.6787 147.754 51.8069Z" fill="white"/>
<path d="M100.074 49.6114C106.57 52.1764 114.606 61.3795 112.674 65.822C111.097 69.5207 98.2333 71.388 91.7208 68.823C85.2084 66.2581 81.8284 59.8867 84.132 54.5823C86.4356 49.2779 93.5831 47.0516 100.074 49.6114Z" fill="#263238" stroke="#263238" stroke-linecap="round" stroke-linejoin="round"/>
<path d="M112.867 66.217L115.257 67.0532L115.58 64.9909L112.674 65.822L117.625 76.836V62.9338" stroke="#263238" stroke-linecap="round" stroke-linejoin="round"/>
<path d="M92.9381 54.9695C95.2162 54.5435 96.8148 52.9924 96.5086 51.505C96.2024 50.0176 94.1075 49.1572 91.8294 49.5832C89.5513 50.0092 87.9528 51.5603 88.2589 53.0477C88.5651 54.5351 90.6601 55.3955 92.9381 54.9695Z" fill="white"/>
<path d="M87.1136 53.7973C87.4796 54.0282 87.4742 54.6489 87.1136 55.1824C86.753 55.7159 86.1448 55.9622 85.7788 55.7313C85.4128 55.5005 85.4182 54.8746 85.7788 54.3411C86.1394 53.8076 86.7476 53.5614 87.1136 53.7973Z" fill="white"/>
<path d="M117.377 30.1843L117.873 57.7526" stroke="#263238" stroke-linecap="round" stroke-linejoin="round"/>
<path d="M127.921 46.8772C127.921 53.5769 122.06 64.1702 117.017 64.1702C112.819 64.1702 106.113 53.5769 106.113 46.8772C106.113 40.1775 110.994 34.7551 117.017 34.7551C123.039 34.7551 127.921 40.1826 127.921 46.8772Z" fill="#263238" stroke="#263238" stroke-linecap="round" stroke-linejoin="round"/>
<path d="M116.71 64.4882L116.812 66.9147L118.933 66.412L117.017 64.1702" fill="#263238"/>
<path d="M116.71 64.4882L116.812 66.9147L118.933 66.412L117.017 64.1702" stroke="#263238" stroke-linecap="round" stroke-linejoin="round"/>
<path d="M124.8 39.5823C126.081 41.424 126.048 43.5991 124.724 44.4352C123.4 45.2714 121.28 44.4352 119.999 42.6192C118.718 40.8032 118.75 38.6025 120.074 37.7663C121.398 36.9301 123.519 37.7612 124.8 39.5823Z" fill="white"/>
<path d="M118.912 37.0636C118.825 37.474 118.223 37.7048 117.561 37.5766C116.899 37.4483 116.436 37.0174 116.516 36.607C116.597 36.1966 117.211 35.9658 117.873 36.094C118.535 36.2223 118.998 36.6532 118.912 37.0636Z" fill="white"/>
<path d="M117.625 76.8359V85.1516" stroke="#263238" stroke-linecap="round" stroke-linejoin="round"/>
<path d="M117.636 94.9293V102.219" stroke="#263238" stroke-linecap="round" stroke-linejoin="round"/>
<path d="M128.158 222.619C128.158 222.619 125.542 226.584 123.314 228.431C121.086 230.278 119.154 231.288 119.439 231.843L119.73 232.397C119.73 232.397 118.653 232.489 122.539 232.212C126.425 231.935 129.025 229.539 131.151 228.893C133.276 228.246 135.607 228.339 136.377 226.769C137.146 225.199 135.123 221.603 135.123 221.603L128.158 222.619Z" fill="white" stroke="#263238" stroke-linecap="round" stroke-linejoin="round"/>
<path d="M136.393 226.769C136.556 226.384 136.61 225.964 136.549 225.553C135.009 225.861 132.302 226.928 127.103 229.447C123.47 231.206 120.903 231.499 119.509 231.499C119.47 231.547 119.445 231.604 119.436 231.664C119.427 231.724 119.433 231.785 119.455 231.842L119.746 232.396C119.746 232.396 118.669 232.489 122.555 232.212C126.441 231.935 129.041 229.539 131.167 228.893C133.292 228.246 135.612 228.364 136.393 226.769Z" fill="white" stroke="#263238" stroke-linecap="round" stroke-linejoin="round"/>
<path d="M139.719 164.753C139.719 164.753 136.489 187.838 136.85 190.403C137.211 192.968 138.287 198.78 137.927 203.397C137.566 208.014 135.413 223.234 135.413 223.234H129.493L127.162 223.065C127.162 223.065 127.34 201.689 127.34 196.559C127.34 191.429 125.009 180.312 125.37 177.065C125.731 173.818 127.523 163.727 127.523 163.727L139.719 164.753Z" fill="#263238" stroke="#263238" stroke-linecap="round" stroke-linejoin="round"/>
<path d="M134.45 219.854C134.45 219.854 131.834 224.471 130.962 226.01C130.09 227.549 127.867 229.057 128.271 229.796C128.675 230.534 129.821 230.257 130.962 230.165C132.103 230.073 139.966 225.456 141.129 224.907C142.291 224.358 143.158 223.429 143.255 222.506C143.352 221.583 139.288 217.078 139.288 217.078L134.45 219.854Z" fill="white" stroke="#263238" stroke-linecap="round" stroke-linejoin="round"/>
<path d="M143.255 222.527C143.227 222.255 143.129 221.994 142.97 221.767C137.814 225.456 131.129 228.513 128.239 229.765C128.236 229.782 128.236 229.799 128.239 229.816C128.626 230.555 129.789 230.278 130.93 230.186C132.071 230.093 139.934 225.476 141.097 224.927C142.259 224.378 143.158 223.45 143.255 222.527Z" fill="white" stroke="#263238" stroke-linecap="round" stroke-linejoin="round"/>
<path d="M138.287 164.753L127.7 189.377C129.656 192.007 131.337 194.813 132.722 197.754C134.52 201.858 140.618 217.761 140.618 217.761L133.083 221.182C133.083 221.182 127.34 210.579 123.755 205.28C120.171 199.98 116.398 191.429 116.398 189.208C116.398 186.986 118.013 174.331 118.013 174.331L119.267 162.019C119.267 162.019 125.725 163.727 129.853 163.214C133.981 162.701 139.003 162.019 139.003 162.019L138.287 164.753Z" fill="#263238" stroke="#263238" stroke-linecap="round" stroke-linejoin="round"/>
<path d="M131.264 109.057C131.264 109.057 132.227 111.899 133.761 113.161C135.295 114.423 140.107 117.922 140.3 118.748C140.494 119.574 141.549 122.046 141.743 122.852C141.936 123.657 143.18 131.095 142.41 134.481C141.64 137.867 140.586 143.202 140.586 143.202C140.586 143.202 142.798 154.647 143.18 158.315C143.562 161.983 143.826 169.396 143.826 169.396C143.826 169.396 131.619 171.319 127.2 170.77C122.781 170.222 118.933 167.18 118.933 167.18L120.01 139.334C120.01 139.334 118.664 134.845 118.761 132.003C118.858 129.161 120.682 123.575 120.682 123.575L120.779 120.189C120.779 120.189 120.397 108.647 120.397 108.19C120.397 107.734 130.004 106.815 130.004 106.815L131.264 109.057Z" fill="#263238" stroke="#263238" stroke-linecap="round" stroke-linejoin="round"/>
<path d="M124.73 119.61C124.005 121.747 123.396 123.918 122.905 126.114C122.518 128.31 122.426 134.173 122.426 134.173C122.426 134.173 130.688 122.375 132.114 120.251C133.54 118.127 133.653 114.095 132.405 113.105C131.156 112.115 128.368 112.648 127.308 113.746C126.247 114.844 124.73 119.61 124.73 119.61Z" fill="white" stroke="#263238" stroke-linecap="round" stroke-linejoin="round"/>
<path d="M123.002 125.365L126.942 123.165L126.651 127.838" stroke="#263238" stroke-linecap="round" stroke-linejoin="round"/>
<path d="M124.347 124.539L124.923 126.463L122.711 128.843L122.426 134.158L125.305 130.126L125.693 126.278L126.845 126.094L126.942 123.165L124.347 124.539Z" fill="#263238" stroke="#263238" stroke-linecap="round" stroke-linejoin="round"/>
<path d="M109.74 221.085C109.74 221.085 106.662 223.101 106.565 223.829C106.468 224.558 109.546 227.862 108.971 229.144C108.395 230.427 109.256 233.725 110.504 235.3C111.753 236.875 112.717 235.3 112.717 235.3C112.717 233.645 112.846 231.992 113.104 230.355C113.486 228.431 113.68 225.594 113.965 224.768C114.25 223.942 114.638 223.301 114.735 222.845C114.832 222.388 110.122 220.464 110.122 220.464L109.74 221.085Z" fill="white" stroke="#263238" stroke-linecap="round" stroke-linejoin="round"/>
<path d="M101.182 221.998C101.182 221.998 100.51 228.78 100.51 230.427C100.51 232.073 101.376 235.649 100.994 235.741C99.5619 235.746 98.1838 235.22 97.1513 234.274C95.8972 232.992 94.2664 229.052 94.2664 227.954C94.173 226.31 93.8823 224.682 93.3999 223.101C92.9209 221.562 96.2847 221.449 96.57 221.449C96.8552 221.449 101.182 221.998 101.182 221.998Z" fill="white" stroke="#263238" stroke-linecap="round" stroke-linejoin="round"/>
<path d="M119.444 124.262C119.444 124.262 117.717 130.495 117.905 132.327C118.093 134.158 121.463 142.587 121.559 144.967C121.656 147.347 119.444 151.744 119.444 151.744C119.444 151.744 122.905 174.551 124.154 179.497C125.402 184.442 123.675 206.521 121.942 215.037C120.209 223.552 117.426 227.128 116.753 227.036C116.08 226.943 111.759 221.906 108.583 221.357C105.408 220.808 98.3032 224.948 92.8241 223.465C87.3451 221.983 83.9812 212.934 81.7745 211.831C79.5678 210.728 72.2589 216.319 66.5861 213.847C60.9133 211.374 56.1124 206.613 57.4364 203.679C58.311 201.816 59.3726 200.038 60.6065 198.37C60.6065 198.37 57.727 193.055 60.515 191.224C63.303 189.392 84.0566 183.713 90.2084 174.808C96.3602 165.902 99.724 156.853 105.585 151.631C105.858 151.294 106.084 150.925 106.258 150.533C106.355 150.169 106.355 144.669 106.355 140.55C106.355 136.431 105.682 132.67 107.431 130.562C109.18 128.454 109.45 128.823 109.159 125.986C108.868 123.149 106.952 122.046 111.565 121.882C114.397 121.808 117.174 122.647 119.444 124.262Z" fill="white" stroke="#263238" stroke-linecap="round" stroke-linejoin="round"/>
<path d="M119.444 151.743C119.444 151.743 121.656 147.347 121.559 144.967C121.405 143.747 121.126 142.544 120.725 141.376C119.891 142.007 118.922 142.453 118.109 142.022C116.274 141.053 114.03 134.44 111.785 132.496C109.541 130.552 108.524 130.747 108.524 130.747L106.516 132.527C106.01 134.656 106.376 137.503 106.376 140.55C106.376 144.654 106.376 150.169 106.279 150.533C106.105 150.925 105.879 151.294 105.607 151.631C99.7455 156.853 96.3817 165.923 90.2299 174.808C84.0781 183.693 63.3191 189.372 60.5365 191.223C57.7539 193.075 60.628 198.369 60.628 198.369C59.3941 200.038 58.3324 201.816 57.4579 203.679C56.1123 206.613 60.9186 211.374 66.6076 213.847C72.2965 216.319 79.584 210.733 81.796 211.83C84.0081 212.928 87.3666 221.998 92.8456 223.465C98.3246 224.932 105.434 220.808 108.605 221.357C111.775 221.906 116.102 226.943 116.775 227.036C117.447 227.128 120.235 223.558 121.963 215.037C123.691 206.516 125.424 184.447 124.175 179.496C122.926 174.546 119.444 151.743 119.444 151.743Z" fill="white" stroke="#263238" stroke-linecap="round" stroke-linejoin="round"/>
<path d="M83.1094 183.436C83.4054 183.159 83.6906 182.887 83.9651 182.61" stroke="#263238" stroke-linecap="round" stroke-linejoin="round"/>
<path d="M62.8401 196.995C62.8401 196.995 74.3741 190.967 81.8283 184.585" stroke="#263238" stroke-linecap="round" stroke-linejoin="round"/>
<path d="M115.682 184.76C115.682 184.76 110.3 199.293 105.456 208.527" stroke="#263238" stroke-linecap="round" stroke-linejoin="round"/>
<path d="M94.245 216.324C93.7036 216.835 93.1341 217.318 92.5388 217.771" stroke="#263238" stroke-linecap="round" stroke-linejoin="round"/>
<path d="M108.325 198.965C108.325 198.965 101.462 208.953 95.7466 214.868" stroke="#263238" stroke-linecap="round" stroke-linejoin="round"/>
<path d="M107.722 149.548L106.107 148.63C106.107 148.63 103.707 148.445 103.61 148.907C103.513 149.368 104.762 150.097 104.762 150.097C104.762 150.097 102.937 150.276 103.034 150.83C103.131 151.384 102.84 154.857 102.84 155.134C102.84 155.411 103.992 156.596 106.204 156.509C108.416 156.422 111.78 155.955 111.78 155.955L111.199 150.276L109.853 150.097L107.722 149.548Z" fill="white" stroke="#263238" stroke-linecap="round" stroke-linejoin="round"/>
<path d="M104.74 150.097L106.28 150.553" stroke="#263238" stroke-linecap="round" stroke-linejoin="round"/>
<path d="M111.947 114.921C112.104 114.552 112.169 114.153 112.136 113.756C112.103 113.358 111.974 112.974 111.759 112.633C110.989 111.607 106.376 111.35 106.086 112.633C105.795 113.915 106.565 114.008 106.279 114.372C105.994 114.736 102.625 115.198 100.418 117.578C98.2116 119.958 98.5884 123.898 99.3419 125.181C100.095 126.463 100.208 128.387 99.0566 128.843C97.9048 129.3 95.499 127.93 91.2686 127.561C87.0383 127.192 83.6798 131.501 84.0619 133.717C84.444 135.933 87.6195 138.57 86.274 139.303C84.9284 140.037 82.2374 138.754 79.74 140.842C77.2427 142.93 77.9101 149.086 80.6981 152.2C83.486 155.314 91.9414 155.042 96.2687 152.113C100.596 149.184 99.3419 144.233 100.881 142.674C102.42 141.114 105.3 141.853 106.263 139.745C107.227 137.636 105.876 133.701 108.185 132.783C110.494 131.865 111.742 129.3 112.028 126.555C112.313 123.811 111.931 122.523 111.931 122.523C111.931 122.523 113.179 121.148 112.415 118.768L111.645 116.388L111.947 114.921Z" fill="#263238" stroke="#263238" stroke-linecap="round" stroke-linejoin="round"/>
<path d="M114.638 125.252C114.104 125.27 113.573 125.181 113.077 124.992C112.581 124.803 112.132 124.518 111.758 124.155C111.254 124.439 110.711 124.655 110.144 124.796C109.067 125.068 107.743 123.878 107.743 122.687C107.743 121.497 109.665 121.313 110.338 121.22C111.01 121.128 111.489 119.753 111.489 119.297C111.489 118.84 110.047 119.117 109.762 118.014C109.476 116.911 111.489 114.628 111.489 114.628H112.932C113.798 114.628 115.332 115.541 115.908 115.998C116.327 116.281 116.839 116.412 117.351 116.367C117.351 116.367 119.466 116.183 119.848 116.732C120.23 117.28 120.235 118.932 120.235 118.932C120.235 118.932 122.254 121.677 122.157 122.78C122.06 123.883 120.429 124.796 119.945 124.975C119.155 125.175 118.353 125.329 117.544 125.437" fill="white"/>
<path d="M114.638 125.252C114.104 125.27 113.573 125.181 113.077 124.992C112.581 124.803 112.132 124.518 111.758 124.155C111.254 124.439 110.711 124.655 110.144 124.796C109.067 125.068 107.743 123.878 107.743 122.687C107.743 121.497 109.665 121.313 110.338 121.22C111.01 121.128 111.489 119.753 111.489 119.297C111.489 118.84 110.047 119.117 109.762 118.014C109.476 116.911 111.489 114.628 111.489 114.628H112.932C113.798 114.628 115.332 115.541 115.908 115.998C116.327 116.281 116.839 116.412 117.351 116.367C117.351 116.367 119.466 116.183 119.848 116.732C120.23 117.28 120.235 118.932 120.235 118.932C120.235 118.932 122.254 121.677 122.157 122.78C122.06 123.883 120.429 124.796 119.945 124.975C119.155 125.175 118.353 125.329 117.544 125.437" stroke="#263238" stroke-linecap="round" stroke-linejoin="round"/>
<path d="M115.887 117.045C115.728 117.366 115.458 117.625 115.122 117.778" stroke="#263238" stroke-linecap="round" stroke-linejoin="round"/>
<path d="M114.832 115.931C114.639 115.904 114.443 115.916 114.256 115.968C114.069 116.021 113.897 116.111 113.75 116.233C113.604 116.355 113.487 116.506 113.408 116.675C113.329 116.845 113.289 117.028 113.292 117.214" stroke="#263238" stroke-linecap="round" stroke-linejoin="round"/>
<path d="M114.062 110.253C114.062 110.253 115.025 113.915 115.408 114.187C115.79 114.459 116.947 115.47 116.947 115.47C116.947 115.47 116.274 118.953 117.329 119.225C117.893 119.384 118.475 119.477 119.062 119.502C119.062 119.502 120.677 122.523 122.329 122.251C123.365 122.042 124.306 121.529 125.02 120.784L126.942 123.165C126.942 123.165 131.167 116.937 131.36 115.839C131.554 114.741 132.033 114.464 131.36 113.366C130.688 112.269 130.284 111.535 130.284 111.535C130.284 111.535 128.551 107.775 126.629 106.862C124.708 105.948 117.695 106.405 116.349 107.134C115.004 107.862 114.062 110.253 114.062 110.253Z" fill="white" stroke="#263238" stroke-linecap="round" stroke-linejoin="round"/>
<path d="M117.717 114.48L118.093 114.993C118.093 114.993 118.96 115.357 119.342 114.167" stroke="#263238" stroke-linecap="round" stroke-linejoin="round"/>
<path d="M116.656 114.008C116.946 113.743 117.298 113.547 117.682 113.436C118.066 113.324 118.473 113.301 118.868 113.366" stroke="#263238" stroke-linecap="round" stroke-linejoin="round"/>
<path d="M111.759 107.503C111.759 107.503 108.971 105.764 108.777 107.411C108.583 109.057 110.219 111.001 112.431 111.001C114.643 111.001 117.426 109.632 117.426 109.632C117.366 109.81 117.353 110 117.389 110.184C117.425 110.368 117.509 110.541 117.634 110.686C117.758 110.831 117.918 110.945 118.1 111.016C118.282 111.087 118.479 111.114 118.675 111.094C120.289 111.094 121.172 111.827 122.517 112.012C123.863 112.197 121.753 110.36 124.251 109.262C126.748 108.165 127.421 110.801 127.324 111.463C127.227 112.125 127.517 113.387 128.4 113.387C129.283 113.387 130.51 113.295 130.704 112.925C131.382 111.132 131.745 109.245 131.78 107.339C131.78 104.774 129.181 101.183 127.071 100.105C124.961 99.0282 121.016 98.7306 120.074 99.1872C119.132 99.6438 117.959 99.3719 116.807 99.6438C115.655 99.9157 115.365 102.393 115.365 102.393C115.365 102.393 112.964 100.926 111.328 101.845C109.692 102.763 110.698 107.133 111.759 107.503Z" fill="#263238" stroke="#263238" stroke-linecap="round" stroke-linejoin="round"/>
<path d="M139.622 123.898C140.58 125.73 140.483 130.218 140.295 133.517C140.106 136.815 136.258 150.276 135.585 150.918C134.913 151.559 129.53 153.575 126.36 154.857C123.19 156.14 111.366 157.422 111.366 157.422L111.172 150.276L126.36 146.614C126.665 146.127 127.054 145.693 127.512 145.331C127.957 145.022 128.375 144.679 128.761 144.305C128.761 144.305 128.379 131.844 130.009 128.459" fill="#263238"/>
<path d="M139.622 123.898C140.58 125.73 140.483 130.218 140.295 133.517C140.106 136.815 136.258 150.276 135.585 150.918C134.913 151.559 129.53 153.575 126.36 154.857C123.19 156.14 111.366 157.422 111.366 157.422L111.172 150.276L126.36 146.614C126.665 146.127 127.054 145.693 127.512 145.331C127.957 145.022 128.375 144.679 128.761 144.305C128.761 144.305 128.379 131.844 130.009 128.459" stroke="#263238" stroke-linecap="round" stroke-linejoin="round"/>
<path d="M113.868 147.347C113.868 147.347 112.711 139.467 112.711 136.902C112.711 134.338 110.596 131.408 108.578 131.501C106.559 131.593 104.81 134.343 105.026 137.272C105.241 140.201 107.141 152.841 107.523 154.673C107.905 156.504 110.408 157.058 110.984 157.058C111.559 157.058 121.457 151.472 123.572 149.363C125.688 147.255 132.894 142.309 132.894 142.309C132.894 142.309 135.774 141.212 136.543 141.027C137.313 140.842 137.62 139.56 137.62 138.826C137.72 138.151 137.948 137.499 138.293 136.902C138.293 136.902 138.772 135.256 138.196 135.256C137.62 135.256 135.408 135.712 134.735 135.805C134.379 135.858 134.019 135.889 133.659 135.897C133.659 135.897 135.096 135.256 135.273 134.871C135.451 134.486 135.08 133.845 134.697 134.137C134.315 134.43 132.2 135.235 131.721 135.512C131.242 135.789 131.527 138.626 131.527 138.626C131.527 138.626 125.758 142.73 122.588 143.936C119.417 145.141 113.868 147.347 113.868 147.347Z" fill="white" stroke="#263238" stroke-linecap="round" stroke-linejoin="round"/>
</svg>
