<svg width="290" height="237" viewBox="0 0 290 237" fill="none" xmlns="http://www.w3.org/2000/svg">
<path d="M245.661 40.7358C245.642 40.5351 245.632 40.3331 245.631 40.131C245.588 35.5343 244.264 32.3562 241.032 29.9425C234.978 25.4118 231.46 29.9425 229.701 33.9673C227.942 37.9921 225.209 31.449 220.914 32.1913C216.619 32.9336 216.811 38.9873 215.641 42.2533C214.471 45.5194 211.926 41.2471 208.609 42.0059C205.291 42.7647 205.09 45.272 204.506 46.2782C203.921 47.2844 198.643 44.7716 195.714 46.784C193.847 48.1677 192.297 50.1634 191.223 52.5683H255.267C255.267 52.5683 256.049 46.5201 253.512 44.2657C251.258 42.2478 246.096 45.4974 245.661 40.7358Z" stroke="#263238" stroke-linecap="round" stroke-linejoin="round"/>
<path d="M215.923 48.2629C215.704 48.33 215.501 48.4618 215.329 48.6478C214.501 49.5771 214.501 50.2424 214.501 50.2424" stroke="#263238" stroke-linecap="round" stroke-linejoin="round"/>
<path d="M230.072 40.439C229.504 42.0445 229 43.804 227.822 44.5133C226.144 45.525 224.573 43.2431 223.027 42.7263C222.59 42.5431 222.119 42.5377 221.679 42.7108C221.239 42.8839 220.851 43.2272 220.568 43.694C219.872 44.7222 219.859 47.048 218.941 47.7078C218.38 47.9898 217.779 48.1117 217.178 48.0652" stroke="#263238" stroke-linecap="round" stroke-linejoin="round"/>
<path d="M249.14 47.8783C249.098 47.7299 249.047 47.5869 248.995 47.4495C247.761 44.2824 244.849 46.8281 243.061 45.9429C241.468 45.1511 241.989 41.9126 241.78 40.2191C241.353 36.9475 238.172 34.4458 235.674 34.9516C233.822 35.3547 232.145 36.6088 230.956 38.4816" stroke="#263238" stroke-linecap="round" stroke-linejoin="round"/>
<path d="M249.649 50.7867C249.601 50.2323 249.529 49.6816 249.435 49.1372" stroke="#263238" stroke-linecap="round" stroke-linejoin="round"/>
<path d="M103.682 9.85135C103.682 9.71939 103.682 9.58193 103.661 9.42798C103.631 6.22242 102.709 4.00657 100.454 2.31856C96.2274 -0.843007 93.7724 2.31856 92.547 5.12824C91.3216 7.93791 89.4131 3.37426 86.4115 3.8966C83.4099 4.41895 83.5508 8.63621 82.7311 10.918C81.9113 13.1999 80.1437 10.1978 77.8252 10.7476C75.5068 11.2974 75.3702 13.0349 74.9603 13.7332C74.5504 14.4315 70.8743 12.683 68.8291 14.0851C67.5253 15.051 66.4427 16.4432 65.6909 18.1209H110.403C110.403 18.1209 110.949 13.9092 109.177 12.3311C107.597 10.907 103.99 13.1724 103.682 9.85135Z" stroke="#263238" stroke-linecap="round" stroke-linejoin="round"/>
<path d="M82.9317 15.1023C82.7753 15.1491 82.6293 15.2412 82.5047 15.3717C81.9241 16.026 81.9241 16.4714 81.9241 16.4714" stroke="#263238" stroke-linecap="round" stroke-linejoin="round"/>
<path d="M92.803 9.64801C92.406 10.7477 92.0558 11.9958 91.2361 12.4907C90.0619 13.1945 88.9689 11.6054 87.8887 11.2425C87.5845 11.1161 87.2575 11.1132 86.952 11.2342C86.6465 11.3552 86.3773 11.5942 86.1808 11.9188C85.6941 12.6336 85.6855 14.2612 85.0451 14.7175C84.6542 14.9152 84.2347 15.0015 83.8154 14.9704" stroke="#263238" stroke-linecap="round" stroke-linejoin="round"/>
<path d="M106.111 14.8384C106.082 14.7366 106.048 14.6374 106.009 14.5415C105.155 12.3421 103.118 14.1016 101.867 13.4858C100.757 12.936 101.12 10.6761 100.971 9.49398C100.685 7.20665 98.4558 5.46366 96.701 5.81556C95.4073 6.09697 94.2364 6.97197 93.4048 8.27884" stroke="#263238" stroke-linecap="round" stroke-linejoin="round"/>
<path d="M106.466 16.8673C106.434 16.4735 106.384 16.0825 106.317 15.6961" stroke="#263238" stroke-linecap="round" stroke-linejoin="round"/>
<path d="M84.3151 54.7732C84.3151 54.5642 84.2852 54.3388 84.2809 54.1024C84.234 48.9614 82.7524 45.4039 79.1573 42.7042C72.3814 37.6347 68.4491 42.7042 66.485 47.2019C64.521 51.6996 61.4597 44.3922 56.6649 45.2335C51.8701 46.0747 52.075 52.8322 50.7642 56.4887C49.4534 60.1451 46.6141 55.3615 42.8995 56.2082C39.1849 57.055 38.9672 59.8647 38.3097 60.9918C37.6521 62.119 31.7558 59.3038 28.4895 61.5417C25.2232 63.7795 23.4641 68.0133 23.4641 68.0133H95.0874C95.0874 68.0133 95.9627 61.2613 93.1234 58.732C90.5786 56.4667 84.8061 60.1011 84.3151 54.7732Z" stroke="#263238" stroke-linecap="round" stroke-linejoin="round"/>
<path d="M51.0505 63.1967C50.8074 63.2729 50.5811 63.4196 50.3887 63.6255C49.4622 64.6702 49.4622 65.4125 49.4622 65.4125" stroke="#263238" stroke-linecap="round" stroke-linejoin="round"/>
<path d="M66.8778 54.4543C66.2416 56.2523 65.6823 58.2262 64.363 59.018C62.4886 60.1452 60.7295 57.5939 59.0003 57.0166C58.5099 56.8129 57.9825 56.8092 57.4904 57.0061C56.9982 57.2029 56.5653 57.5906 56.2507 58.1163C55.4693 59.2654 55.4565 61.8662 54.4318 62.6029C53.9323 62.9603 53.1936 62.9713 52.4592 63.0043" stroke="#263238" stroke-linecap="round" stroke-linejoin="round"/>
<path d="M88.2091 62.7679C88.1579 62.603 88.1024 62.4435 88.0426 62.2896C86.6678 58.7431 83.41 61.5913 81.4076 60.5961C79.6271 59.7163 80.2121 56.0929 79.973 54.2015C79.5076 50.5395 75.9382 47.7408 73.1415 48.3072C71.0691 48.76 69.1943 50.1644 67.8643 52.2605" stroke="#263238" stroke-linecap="round" stroke-linejoin="round"/>
<path d="M88.7769 66.0174C88.7266 65.3868 88.6467 64.7607 88.5378 64.1425" stroke="#263238" stroke-linecap="round" stroke-linejoin="round"/>
<path d="M112.495 78.3337C112.495 78.3337 129.701 80.533 138.424 94.279C138.424 94.279 147.642 78.3612 164.196 78.6911C168.24 72.4078 170.815 64.7744 171.622 56.6795C172.428 48.5846 171.432 40.3612 168.75 32.9669C166.068 25.5726 161.81 19.3114 156.472 14.9125C151.134 10.5135 144.935 8.15766 138.598 8.11925C132.261 8.08084 126.045 10.3614 120.675 14.6955C115.306 19.0296 111.002 25.2388 108.266 32.6003C105.53 39.9618 104.474 48.1727 105.221 56.277C105.968 64.3813 108.488 72.0457 112.486 78.3777L112.495 78.3337Z" fill="#FF81AE"/>
<path opacity="0.5" d="M112.495 78.3337C112.495 78.3337 129.701 80.533 138.424 94.279C138.424 94.279 147.642 78.3612 164.196 78.6911C168.24 72.4078 170.815 64.7744 171.622 56.6795C172.428 48.5846 171.432 40.3612 168.75 32.9669C166.068 25.5726 161.81 19.3114 156.472 14.9125C151.134 10.5135 144.935 8.15766 138.598 8.11925C132.261 8.08084 126.045 10.3614 120.675 14.6955C115.306 19.0296 111.002 25.2388 108.266 32.6003C105.53 39.9618 104.474 48.1727 105.221 56.277C105.968 64.3813 108.488 72.0457 112.486 78.3777L112.495 78.3337Z" fill="#FF81AE"/>
<path d="M137.856 11.1433L137.275 236H140.179L137.856 11.1433Z" fill="#828282"/>
<path d="M138.727 90.0781C138.727 90.0781 144.538 76.6071 154.995 72.4833C154.995 72.4833 143.958 75.8483 138.437 87.4444L138.727 90.0781Z" fill="#828282"/>
<path d="M138.095 52.2824C138.095 52.2824 144.538 38.4484 154.99 34.3356C154.99 34.3356 143.612 38.5529 138.091 50.149L138.095 52.2824Z" fill="#828282"/>
<path d="M138.339 71.9556C138.339 71.9556 144.538 57.5278 154.99 53.415C154.99 53.415 143.684 57.4509 138.164 69.0469L138.339 71.9556Z" fill="#828282"/>
<path d="M137.865 61.6461C137.865 61.6461 132.259 48.1751 122.17 44.0513C122.17 44.0513 132.822 47.4163 138.147 59.0179L137.865 61.6461Z" fill="#828282"/>
<path d="M137.865 80.3517C137.865 80.3517 132.259 66.8806 122.17 62.7568C122.17 62.7568 132.822 66.1219 138.147 77.7179L137.865 80.3517Z" fill="#828282"/>
<path d="M27.3022 131.261C27.3022 131.261 38.7363 132.713 44.5302 141.84C44.5302 141.84 50.6529 131.266 61.6515 131.486C64.3399 127.312 66.0521 122.239 66.5885 116.86C67.1249 111.48 66.4635 106.015 64.6814 101.101C62.8993 96.1873 60.0697 92.0263 56.5223 89.1031C52.9748 86.1798 48.8555 84.6146 44.644 84.5897C40.4325 84.5647 36.3021 86.0811 32.7339 88.9622C29.1658 91.8433 26.3066 95.9706 24.4895 100.863C22.6723 105.756 21.9719 111.213 22.4699 116.598C22.9679 121.984 24.6437 127.077 27.3022 131.283V131.261Z" fill="#FF81AE"/>
<path d="M27.3022 131.261C27.3022 131.261 38.7363 132.713 44.5302 141.84C44.5302 141.84 50.6529 131.266 61.6515 131.486C64.3399 127.312 66.0521 122.239 66.5885 116.86C67.1249 111.48 66.4635 106.015 64.6814 101.101C62.8993 96.1873 60.0697 92.0263 56.5223 89.1031C52.9748 86.1798 48.8555 84.6146 44.644 84.5897C40.4325 84.5647 36.3021 86.0811 32.7339 88.9622C29.1658 91.8433 26.3066 95.9706 24.4895 100.863C22.6723 105.756 21.9719 111.213 22.4699 116.598C22.9679 121.984 24.6437 127.077 27.3022 131.283V131.261Z" fill="#FF81AE"/>
<path opacity="0.5" d="M27.3022 131.261C27.3022 131.261 38.7363 132.713 44.5302 141.84C44.5302 141.84 50.6529 131.266 61.6515 131.486C64.3399 127.312 66.0521 122.239 66.5885 116.86C67.1249 111.48 66.4635 106.015 64.6814 101.101C62.8993 96.1873 60.0697 92.0263 56.5223 89.1031C52.9748 86.1798 48.8555 84.6146 44.644 84.5897C40.4325 84.5647 36.3021 86.0811 32.7339 88.9622C29.1658 91.8433 26.3066 95.9706 24.4895 100.863C22.6723 105.756 21.9719 111.213 22.4699 116.598C22.9679 121.984 24.6437 127.077 27.3022 131.283V131.261Z" fill="white"/>
<path d="M44.1544 86.6252L43.7659 236H45.6958L44.1544 86.6252Z" fill="#828282"/>
<path d="M44.731 139.058C44.731 139.058 48.5736 130.112 55.5374 127.379C55.5374 127.379 48.2064 129.617 44.5388 137.32L44.731 139.058Z" fill="#828282"/>
<path d="M44.3125 113.952C44.3125 113.952 48.5907 104.77 55.5374 102.021C55.5374 102.021 47.9801 104.825 44.3125 112.528V113.952Z" fill="#828282"/>
<path d="M44.4621 127.022C44.4621 127.022 48.5908 117.438 55.5376 114.705C55.5376 114.705 48.0272 117.389 44.3596 125.092L44.4621 127.022Z" fill="#828282"/>
<path d="M44.1586 120.166C44.1586 120.166 40.4355 111.225 33.7322 108.492C33.7322 108.492 40.807 110.73 44.3465 118.434L44.1586 120.166Z" fill="#828282"/>
<path d="M44.1586 132.597C44.1586 132.597 40.4355 123.651 33.7322 120.919C33.7322 120.919 40.807 123.156 44.3465 130.86L44.1586 132.597Z" fill="#828282"/>
<path d="M152.373 131.261C152.373 131.261 163.807 132.713 169.601 141.84C169.601 141.84 175.724 131.267 186.718 131.487C189.397 127.314 191.101 122.248 191.632 116.878C192.164 111.507 191.5 106.053 189.718 101.149C187.936 96.2455 185.11 92.094 181.568 89.1776C178.026 86.2611 173.914 84.6996 169.71 84.6747C165.506 84.6498 161.383 86.1626 157.821 89.0369C154.258 91.9113 151.402 96.0291 149.586 100.912C147.769 105.794 147.066 111.24 147.559 116.617C148.052 121.993 149.72 127.079 152.369 131.283L152.373 131.261Z" fill="#FF81AE"/>
<path opacity="0.3" d="M152.373 131.261C152.373 131.261 163.807 132.713 169.601 141.84C169.601 141.84 175.724 131.267 186.718 131.487C189.397 127.314 191.101 122.248 191.632 116.878C192.164 111.507 191.5 106.053 189.718 101.149C187.936 96.2455 185.11 92.094 181.568 89.1776C178.026 86.2611 173.914 84.6996 169.71 84.6747C165.506 84.6498 161.383 86.1626 157.821 89.0369C154.258 91.9113 151.402 96.0291 149.586 100.912C147.769 105.794 147.066 111.24 147.559 116.617C148.052 121.993 149.72 127.079 152.369 131.283L152.373 131.261Z" fill="white"/>
<path d="M169.221 86.6252L168.837 236H170.767L169.221 86.6252Z" fill="#828282"/>
<path d="M169.802 139.058C169.802 139.058 173.644 130.112 180.608 127.379C180.608 127.379 173.277 129.617 169.609 137.32L169.802 139.058Z" fill="#828282"/>
<path d="M169.379 113.952C169.379 113.952 173.662 104.77 180.608 102.021C180.608 102.021 173.047 104.825 169.379 112.528V113.952Z" fill="#828282"/>
<path d="M169.533 127.022C169.533 127.022 173.661 117.416 180.608 114.705C180.608 114.705 173.098 117.389 169.43 125.092L169.533 127.022Z" fill="#828282"/>
<path d="M169.229 120.165C169.229 120.165 165.506 111.22 158.803 108.487C158.803 108.487 165.878 110.725 169.417 118.428L169.229 120.165Z" fill="#828282"/>
<path d="M169.229 132.597C169.229 132.597 165.506 123.651 158.803 120.919C158.803 120.919 165.878 123.156 169.417 130.86L169.229 132.597Z" fill="#828282"/>
<path d="M221.563 115.536C221.563 115.536 234.713 117.185 241.378 127.709C241.378 127.709 248.419 115.547 261.065 115.8C264.155 110.999 266.122 105.167 266.738 98.9822C267.353 92.7976 266.592 86.515 264.543 80.8659C262.494 75.2167 259.24 70.4335 255.162 67.073C251.083 63.7125 246.348 61.913 241.506 61.884C236.664 61.855 231.916 63.5978 227.813 66.9093C223.711 70.2209 220.423 74.965 218.333 80.5893C216.243 86.2137 215.436 92.4869 216.007 98.6786C216.578 104.87 218.503 110.726 221.558 115.563L221.563 115.536Z" fill="#FF81AE"/>
<path opacity="0.3" d="M221.563 115.536C221.563 115.536 234.713 117.185 241.378 127.709C241.378 127.709 248.419 115.547 261.065 115.8C264.155 110.999 266.122 105.167 266.738 98.9822C267.353 92.7976 266.592 86.515 264.543 80.8659C262.494 75.2167 259.24 70.4335 255.162 67.073C251.083 63.7125 246.348 61.913 241.506 61.884C236.664 61.855 231.916 63.5978 227.813 66.9093C223.711 70.2209 220.423 74.965 218.333 80.5893C216.243 86.2137 215.436 92.4869 216.007 98.6786C216.578 104.87 218.503 110.726 221.558 115.563L221.563 115.536Z" fill="white"/>
<path d="M240.942 64.2029L240.498 236H242.718L240.942 64.2029Z" fill="#828282"/>
<path d="M241.608 124.509C241.608 124.509 246.044 114.222 254.037 111.077C254.037 111.077 245.6 113.65 241.386 122.508L241.608 124.509Z" fill="#828282"/>
<path d="M241.122 95.637C241.122 95.637 246.045 85.0691 254.038 81.9241C254.038 81.9241 245.34 85.1461 241.122 94.0205V95.637Z" fill="#828282"/>
<path d="M241.297 110.664C241.297 110.664 246.045 99.6673 254.037 96.5002C254.037 96.5002 245.396 99.5848 241.181 108.443L241.297 110.664Z" fill="#828282"/>
<path d="M240.947 102.791C240.947 102.791 236.677 92.4976 228.958 89.3525C228.958 89.3525 237.095 91.9258 241.164 100.789L240.947 102.791Z" fill="#828282"/>
<path d="M240.947 117.081C240.947 117.081 236.677 106.788 228.958 103.648C228.958 103.648 237.095 106.216 241.164 115.079L240.947 117.081Z" fill="#828282"/>
<path d="M17.811 215.931C18.7076 215.766 20.4112 214.336 20.4112 214.336C20.4112 214.336 19.3395 213.176 19.2669 213.116C18.413 212.395 16.3849 211.669 15.4926 212.615C15.348 212.778 15.2316 212.978 15.1509 213.202C15.0703 213.427 15.0271 213.671 15.0243 213.918C15.0215 214.165 15.0591 214.411 15.1346 214.638C15.2101 214.865 15.3219 215.07 15.4627 215.238C16.0434 215.98 17.0467 216.074 17.811 215.931Z" fill="#263238"/>
<path d="M34.4072 205.055C34.4072 205.055 34.0101 203.323 33.9802 203.218C33.5533 202.003 32.1955 199.969 31.047 200.123C30.8567 200.156 30.6739 200.24 30.5104 200.37C30.347 200.5 30.2066 200.673 30.0983 200.877C29.99 201.081 29.9162 201.312 29.8818 201.556C29.8474 201.799 29.8531 202.049 29.8985 202.289C30.065 203.323 30.8634 204.109 31.5594 204.538C32.3749 205.033 34.4072 205.055 34.4072 205.055Z" fill="#263238"/>
<path d="M36.576 234.219C36.9731 234.851 37.3317 235.45 37.6562 236H38.4717C38.0448 235.318 37.5837 234.554 37.0414 233.724C36.7297 233.245 36.3839 232.734 36.0295 232.217C36.3551 231.708 36.656 231.174 36.9304 230.617C37.7214 230.833 38.5319 230.905 39.3385 230.832C39.394 231.447 39.4452 232.052 39.4836 232.619C39.5776 233.9 39.6331 235.038 39.6715 236H40.3333C40.2778 235.021 40.2009 233.85 40.0814 232.536C40.0302 231.909 39.9618 231.244 39.885 230.557C40.0729 230.485 41.5928 229.875 42.1564 229.237C42.72 228.599 43.1854 227.736 43.1299 226.812C43.1222 226.595 43.0792 226.383 43.0036 226.188C42.928 225.994 42.8216 225.822 42.6911 225.684C42.5607 225.546 42.4092 225.445 42.2465 225.388C42.0837 225.33 41.9134 225.317 41.7466 225.35C40.7475 225.581 39.9832 227.73 39.8636 228.891C39.8636 228.957 39.8636 229.71 39.8636 230.188C39.8338 229.908 39.8039 229.638 39.7697 229.347C39.7014 228.797 39.6203 228.214 39.5349 227.604C39.4879 227.313 39.4367 227.021 39.3897 226.719C39.3427 226.416 39.2659 226.119 39.2061 225.812C39.0567 225.113 38.8774 224.409 38.6852 223.706C39.0738 223.629 40.4443 223.332 41.0164 222.853C41.5886 222.375 42.2077 221.572 42.2632 220.654C42.2811 220.438 42.2636 220.219 42.2117 220.012C42.1599 219.805 42.0749 219.614 41.9622 219.452C41.8496 219.289 41.7118 219.159 41.5577 219.07C41.4036 218.981 41.2367 218.934 41.0677 218.933C40.0515 218.972 39.0439 220.945 38.7877 222.067C38.7877 222.139 38.6596 222.969 38.6041 223.425C38.4888 223.007 38.3693 222.584 38.2412 222.166C37.8654 220.945 37.4556 219.73 37.0499 218.521L36.6828 217.421C36.8194 217.421 38.4547 217.086 39.0951 216.552C39.6672 216.079 40.2906 215.277 40.3461 214.353C40.364 214.137 40.3465 213.918 40.2947 213.711C40.2428 213.503 40.1578 213.313 40.0452 213.15C39.9325 212.988 39.7947 212.858 39.6406 212.769C39.4865 212.68 39.3196 212.633 39.1506 212.632C38.1344 212.67 37.1268 214.644 36.8706 215.766C36.8706 215.848 36.6913 217.047 36.6614 217.355C36.3924 216.536 36.132 215.706 35.9014 214.892C35.5855 213.783 35.3245 212.65 35.1201 211.499C35.1841 211.499 36.892 211.175 37.5495 210.625C38.1216 210.152 38.745 209.344 38.7962 208.426C38.8141 208.209 38.7966 207.99 38.7448 207.783C38.6929 207.576 38.608 207.385 38.4953 207.223C38.3826 207.061 38.2448 206.931 38.0907 206.842C37.9366 206.752 37.7697 206.706 37.6007 206.705C36.5846 206.743 35.5812 208.717 35.325 209.839C35.325 209.91 35.1841 210.823 35.1329 211.257H35.0731C34.8933 210.091 34.7961 208.906 34.7828 207.716C34.7828 207.062 34.7828 206.435 34.7828 205.825C35.103 205.825 36.576 205.715 37.2122 205.308C37.8484 204.901 38.4931 204.208 38.6383 203.296C38.6746 203.083 38.6759 202.863 38.6421 202.65C38.6082 202.436 38.54 202.235 38.4418 202.057C38.3437 201.88 38.2177 201.731 38.0721 201.621C37.9264 201.51 37.7644 201.44 37.5965 201.415C36.5846 201.311 35.4147 203.131 35.0646 204.208C35.0646 204.269 34.9066 204.89 34.8084 205.347C34.8084 205.072 34.8084 204.797 34.8511 204.527C34.9151 203.538 35.0176 202.641 35.1201 201.844C35.1756 201.393 35.2353 200.986 35.2951 200.607C35.6068 200.381 36.845 199.436 37.2549 198.715C37.6648 197.995 38.0106 196.967 37.8014 196.082C37.7586 195.871 37.6818 195.675 37.5761 195.505C37.4703 195.336 37.3379 195.197 37.1876 195.098C37.0372 194.999 36.8724 194.942 36.7037 194.93C36.535 194.919 36.3664 194.953 36.2088 195.032C35.2695 195.537 34.8852 197.847 34.9578 199.012C34.9578 199.111 35.2097 200.662 35.2268 200.662C35.1613 201.028 35.0973 201.424 35.0347 201.85C34.9237 202.641 34.8041 203.538 34.723 204.527C34.6244 205.591 34.576 206.662 34.5778 207.733C34.5717 208.935 34.6503 210.134 34.8127 211.318C34.8108 211.331 34.8108 211.344 34.8127 211.356C34.6718 211.015 34.2619 210.086 34.2234 210.02C33.6855 209.074 32.221 207.656 31.2347 208.068C31.0763 208.143 30.9319 208.26 30.8108 208.411C30.6896 208.563 30.5944 208.745 30.5313 208.946C30.4681 209.148 30.4384 209.364 30.4441 209.581C30.4498 209.798 30.4908 210.012 30.5644 210.207C30.859 211.048 31.6574 211.538 32.3192 211.736C33.0664 211.956 34.6888 211.527 34.8212 211.494C35.006 212.693 35.2542 213.874 35.5641 215.029C35.7392 215.7 35.9356 216.371 36.1362 217.042L35.8758 216.464C35.3378 215.519 33.8733 214.105 32.887 214.512C32.7283 214.587 32.5835 214.703 32.4619 214.854C32.3402 215.005 32.2446 215.187 32.181 215.389C32.1174 215.59 32.0874 215.807 32.0928 216.024C32.0982 216.242 32.139 216.455 32.2124 216.651C32.507 217.498 33.3055 217.982 33.9673 218.18C34.6291 218.378 36.0295 218.053 36.3967 217.96C36.4778 218.213 36.5547 218.471 36.6358 218.73C37.0201 219.956 37.4086 221.176 37.7587 222.392C37.8825 222.82 37.9935 223.249 38.1045 223.673C37.9935 223.42 37.8953 223.205 37.8783 223.172C37.3403 222.227 35.8758 220.814 34.8895 221.22C34.7308 221.295 34.5859 221.411 34.4643 221.562C34.3427 221.713 34.247 221.895 34.1835 222.097C34.1199 222.298 34.0898 222.515 34.0953 222.732C34.1007 222.95 34.1414 223.163 34.2149 223.359C34.5095 224.206 35.3079 224.69 35.9697 224.888C36.6315 225.086 37.8953 224.789 38.3351 224.684C38.4376 225.124 38.5443 225.564 38.6297 225.998C38.681 226.301 38.7493 226.581 38.7877 226.884C38.8261 227.186 38.8774 227.478 38.9201 227.774C38.9884 228.324 39.0609 228.929 39.1207 229.484C39.1592 229.869 39.1933 230.238 39.2275 230.612C39.1079 230.183 38.8603 229.352 38.8347 229.287C38.4418 228.384 37.8758 227.627 37.1908 227.087C37.149 226.987 37.1004 226.891 37.0457 226.801C36.947 226.625 36.8204 226.477 36.6742 226.367C36.5281 226.258 36.3656 226.19 36.1975 226.167C36.0294 226.144 35.8595 226.167 35.6988 226.235C35.5381 226.302 35.3904 226.413 35.2652 226.559C34.5309 227.467 34.8127 229.798 35.2097 230.848C35.2353 230.914 35.547 231.552 35.7477 231.948C35.6025 231.739 35.4616 231.53 35.3207 231.315C35.0219 230.887 34.7145 230.474 34.3814 230.029L33.8819 229.396C33.7154 229.177 33.5232 228.979 33.3396 228.764C32.9127 228.286 32.4857 227.829 32.0032 227.379C32.2936 227.038 33.2841 225.817 33.5787 225.014C33.8733 224.212 34.0057 223.101 33.6769 222.293C33.5999 222.099 33.492 221.928 33.3601 221.791C33.2282 221.655 33.0754 221.556 32.9117 221.501C32.7479 221.446 32.5771 221.436 32.4102 221.472C32.2433 221.508 32.0843 221.589 31.9435 221.71C31.0895 222.458 31.1194 224.822 31.3884 225.938C31.3884 226.009 31.6659 226.779 31.8154 227.203C31.5378 226.933 31.2603 226.653 30.9614 226.411C30.1075 225.663 29.2536 224.937 28.3996 224.212C28.1349 223.992 27.8745 223.766 27.614 223.541C27.7165 223.425 28.9504 222.007 29.2536 221.105C29.5268 220.302 29.6805 219.186 29.3518 218.383C29.2747 218.189 29.1667 218.019 29.0349 217.882C28.9032 217.746 28.7505 217.646 28.587 217.591C28.4235 217.535 28.2527 217.525 28.0858 217.56C27.9189 217.595 27.7596 217.675 27.6183 217.795C26.7644 218.548 26.7943 220.912 27.059 222.029C27.059 222.111 27.4603 223.227 27.5671 223.502C26.9907 223.007 26.4228 222.507 25.8592 221.985C25.1561 221.276 24.49 220.508 23.8653 219.686C23.9123 219.631 25.2017 218.158 25.5134 217.24C25.7866 216.437 25.9403 215.321 25.6116 214.49C25.5336 214.298 25.4251 214.128 25.2931 213.993C25.1611 213.857 25.0085 213.759 24.8452 213.704C24.6819 213.649 24.5115 213.639 24.3449 213.674C24.1783 213.709 24.0193 213.788 23.8781 213.908C23.0242 214.661 23.0541 217.02 23.3188 218.136C23.3188 218.213 23.6262 219.06 23.7714 219.461L23.7244 219.505C23.0738 218.658 22.4837 217.738 21.961 216.756C21.6664 216.206 21.4102 215.684 21.1711 215.161C21.4316 214.919 22.6186 213.792 22.9729 213C23.3273 212.209 23.5835 211.158 23.3017 210.312C23.2416 210.108 23.1489 209.923 23.0295 209.768C22.9101 209.614 22.7668 209.493 22.6089 209.415C22.4509 209.337 22.2819 209.302 22.1129 209.314C21.9439 209.325 21.7787 209.382 21.628 209.481C20.7399 210.114 20.5435 212.461 20.7143 213.611C20.7143 213.671 20.8723 214.292 20.9875 214.743C20.8808 214.507 20.7655 214.259 20.6716 214.028C20.3001 213.16 20.0055 212.335 19.7451 211.604C19.5999 211.186 19.4761 210.801 19.3651 210.444C19.5231 210.031 20.155 208.365 20.1849 207.469C20.2147 206.573 20.0696 205.478 19.5145 204.885C19.3879 204.74 19.2392 204.632 19.0779 204.567C18.9167 204.501 18.7465 204.48 18.5786 204.505C18.4106 204.53 18.2486 204.6 18.1031 204.711C17.9576 204.822 17.8319 204.971 17.7341 205.149C17.1705 206.248 17.8365 208.448 18.4001 209.349C18.4471 209.432 19.3181 210.559 19.3267 210.537C19.4334 210.883 19.5444 211.257 19.6768 211.637C19.9244 212.379 20.2062 213.215 20.5606 214.094C20.9372 215.074 21.3592 216.023 21.8244 216.937C22.3283 217.94 22.8998 218.884 23.5323 219.758L23.5579 219.785C23.2974 219.604 22.5502 219.12 22.4905 219.093C21.6365 218.686 19.8091 218.543 19.1815 219.571C19.0808 219.745 19.0098 219.945 18.973 220.157C18.9361 220.37 18.9344 220.589 18.9678 220.802C19.0012 221.016 19.0691 221.217 19.1669 221.394C19.2648 221.572 19.3905 221.72 19.5359 221.831C20.1422 222.326 21.0174 222.166 21.6707 221.831C22.388 221.484 23.5621 219.978 23.6518 219.857C24.3215 220.723 25.0346 221.531 25.7866 222.276C26.2278 222.712 26.6761 223.136 27.1316 223.546C26.901 223.398 26.7046 223.266 26.6619 223.255C25.808 222.848 23.9806 222.705 23.3529 223.733C23.2523 223.908 23.1812 224.108 23.1444 224.32C23.1076 224.532 23.1058 224.752 23.1392 224.965C23.1727 225.178 23.2405 225.379 23.3384 225.557C23.4362 225.734 23.5619 225.882 23.7073 225.993C24.3136 226.488 25.1889 226.328 25.8421 225.993C26.4954 225.658 27.5073 224.42 27.7763 224.085L28.3014 224.558C29.1554 225.306 30.0093 226.053 30.8077 226.812C31.0981 227.082 31.3713 227.362 31.6617 227.637L31.2347 227.384C30.3808 226.977 28.5534 226.834 27.9214 227.862C27.821 228.037 27.7502 228.237 27.7137 228.45C27.6772 228.662 27.6758 228.882 27.7096 229.095C27.7434 229.308 27.8117 229.51 27.91 229.687C28.0083 229.864 28.1344 230.012 28.2801 230.122C28.8864 230.617 29.7617 230.458 30.4149 230.15C31.0682 229.842 31.9819 228.704 32.3021 228.302C32.5754 228.594 32.8529 228.891 33.1091 229.193C33.2799 229.402 33.4592 229.589 33.6214 229.814L34.1124 230.463C34.4156 230.887 34.7273 231.326 35.0133 231.75L35.5855 232.613C35.3037 232.338 34.7315 231.821 34.6888 231.788C33.8947 231.238 32.1014 230.722 31.3585 231.618C31.2387 231.771 31.1452 231.955 31.0842 232.158C31.0232 232.361 30.9961 232.578 31.0045 232.795C31.013 233.013 31.0569 233.225 31.1333 233.419C31.2097 233.613 31.317 233.785 31.4482 233.922C31.9861 234.532 32.87 234.537 33.536 234.362C34.2021 234.186 35.5556 232.959 35.7178 232.805C35.9996 233.306 36.2942 233.773 36.576 234.219Z" fill="#263238"/>
<path d="M279.293 216.662C278.396 216.497 276.697 215.068 276.692 215.068C276.688 215.068 277.764 213.907 277.841 213.847C278.695 213.127 280.719 212.401 281.611 213.347C281.756 213.509 281.873 213.709 281.954 213.933C282.035 214.158 282.079 214.402 282.081 214.649C282.084 214.897 282.046 215.142 281.971 215.37C281.895 215.597 281.782 215.802 281.641 215.969C281.06 216.712 280.057 216.805 279.293 216.662Z" fill="#263238"/>
<path d="M263.098 205.786C263.077 205.786 263.495 204.054 263.525 203.95C263.952 202.735 265.31 200.7 266.458 200.854C266.648 200.887 266.831 200.971 266.995 201.101C267.158 201.231 267.299 201.404 267.407 201.608C267.515 201.812 267.589 202.044 267.623 202.287C267.658 202.53 267.652 202.78 267.607 203.021C267.44 204.054 266.642 204.846 265.946 205.269C265.147 205.764 263.098 205.786 263.098 205.786Z" fill="#263238"/>
<path d="M261.228 234.18C260.831 234.812 260.472 235.412 260.152 235.956H259.336C259.763 235.28 260.224 234.515 260.762 233.685C261.078 233.201 261.42 232.695 261.774 232.179C261.451 231.667 261.15 231.133 260.873 230.579C260.082 230.789 259.272 230.861 258.465 230.793C258.41 231.409 258.358 232.008 258.32 232.58C258.226 233.861 258.171 234.999 258.132 235.956H257.462C257.517 234.977 257.594 233.812 257.714 232.497C257.769 231.871 257.833 231.205 257.91 230.518C257.722 230.447 256.202 229.831 255.639 229.193C255.075 228.555 254.61 227.697 254.665 226.774C254.672 226.556 254.715 226.343 254.79 226.148C254.866 225.954 254.972 225.782 255.103 225.644C255.233 225.505 255.385 225.404 255.548 225.347C255.711 225.29 255.882 225.278 256.049 225.311C257.048 225.542 257.812 227.692 257.931 228.852C257.931 228.918 257.931 229.671 257.931 230.144C257.966 229.869 257.991 229.594 258.03 229.308C258.094 228.759 258.175 228.176 258.26 227.565C258.307 227.274 258.358 226.977 258.405 226.68C258.452 226.383 258.529 226.081 258.589 225.773C258.738 225.069 258.918 224.371 259.11 223.667C258.721 223.59 257.355 223.293 256.779 222.815C256.202 222.336 255.587 221.534 255.532 220.615C255.514 220.399 255.531 220.181 255.583 219.974C255.635 219.767 255.72 219.577 255.833 219.415C255.946 219.253 256.084 219.124 256.238 219.035C256.392 218.946 256.559 218.9 256.727 218.9C257.744 218.933 258.751 220.912 259.007 222.034C259.007 222.1 259.135 222.936 259.191 223.392C259.311 222.969 259.426 222.551 259.554 222.127C259.93 220.912 260.339 219.697 260.745 218.482C260.869 218.114 260.988 217.74 261.112 217.382C260.976 217.382 259.34 217.047 258.7 216.514C258.128 216.041 257.504 215.233 257.453 214.314C257.435 214.098 257.452 213.879 257.503 213.672C257.554 213.465 257.639 213.274 257.751 213.112C257.863 212.95 258.001 212.82 258.155 212.73C258.309 212.641 258.476 212.594 258.644 212.593C259.665 212.632 260.668 214.606 260.924 215.727C260.946 215.81 261.104 217.008 261.134 217.316C261.403 216.497 261.663 215.667 261.894 214.853C262.21 213.743 262.471 212.608 262.675 211.455C262.611 211.455 260.903 211.131 260.246 210.586C259.678 210.114 259.054 209.305 258.999 208.387C258.98 208.17 258.997 207.951 259.049 207.744C259.1 207.536 259.185 207.345 259.298 207.183C259.411 207.02 259.549 206.89 259.704 206.801C259.858 206.712 260.025 206.666 260.194 206.666C261.211 206.699 262.218 208.678 262.47 209.8C262.47 209.872 262.611 210.784 262.662 211.219H262.722C262.901 210.054 263 208.871 263.017 207.683C263.017 207.029 263.017 206.402 262.991 205.792C262.671 205.792 261.198 205.682 260.562 205.275C259.925 204.868 259.281 204.175 259.135 203.263C259.099 203.05 259.098 202.83 259.132 202.617C259.165 202.403 259.234 202.201 259.332 202.024C259.43 201.847 259.556 201.698 259.702 201.588C259.847 201.477 260.009 201.407 260.177 201.382C261.189 201.272 262.359 203.092 262.709 204.175C262.709 204.23 262.867 204.857 262.97 205.313C262.97 205.038 262.944 204.764 262.927 204.494C262.863 203.504 262.756 202.608 262.658 201.811C262.598 201.36 262.538 200.953 262.479 200.574C262.167 200.343 260.929 199.403 260.519 198.677C260.109 197.951 259.763 196.928 259.972 196.049C260.016 195.838 260.093 195.642 260.199 195.472C260.305 195.302 260.438 195.164 260.589 195.064C260.739 194.965 260.905 194.908 261.073 194.897C261.242 194.886 261.411 194.92 261.569 194.998C262.504 195.504 262.893 197.814 262.816 198.979C262.816 199.078 262.564 200.629 262.551 200.629C262.615 200.992 262.679 201.382 262.743 201.811C262.854 202.608 262.978 203.504 263.059 204.494C263.154 205.558 263.201 206.629 263.2 207.7C263.206 208.9 263.128 210.098 262.965 211.279C262.967 211.294 262.967 211.309 262.965 211.323C263.106 210.982 263.52 210.053 263.559 209.987C264.093 209.041 265.561 207.623 266.548 208.035C266.706 208.109 266.851 208.226 266.973 208.377C267.094 208.528 267.19 208.71 267.253 208.912C267.316 209.114 267.346 209.33 267.34 209.548C267.334 209.765 267.292 209.979 267.218 210.174C266.923 211.015 266.125 211.505 265.463 211.697C264.72 211.922 263.093 211.494 262.965 211.461C262.778 212.657 262.528 213.837 262.218 214.991C262.043 215.667 261.847 216.338 261.646 217.008L261.906 216.431C262.444 215.485 263.909 214.067 264.895 214.479C265.054 214.554 265.198 214.671 265.319 214.822C265.44 214.974 265.535 215.156 265.599 215.357C265.662 215.559 265.691 215.775 265.686 215.992C265.68 216.209 265.639 216.423 265.566 216.618C265.271 217.465 264.473 217.949 263.811 218.147C263.149 218.345 261.748 218.015 261.381 217.927C261.3 218.18 261.223 218.438 261.142 218.691C260.758 219.923 260.369 221.143 260.019 222.358C259.895 222.787 259.784 223.211 259.673 223.64C259.784 223.381 259.883 223.167 259.9 223.139C260.438 222.193 261.902 220.775 262.888 221.187C263.047 221.262 263.191 221.379 263.312 221.53C263.434 221.682 263.529 221.864 263.592 222.065C263.655 222.267 263.685 222.483 263.679 222.7C263.673 222.917 263.632 223.131 263.559 223.326C263.264 224.173 262.466 224.657 261.804 224.855C261.142 225.053 259.878 224.756 259.439 224.646C259.336 225.091 259.234 225.531 259.148 225.965C259.093 226.262 259.029 226.548 258.986 226.851C258.943 227.153 258.896 227.444 258.854 227.736C258.785 228.286 258.713 228.891 258.657 229.451C258.615 229.836 258.58 230.205 258.546 230.579C258.666 230.15 258.913 229.319 258.939 229.253C259.333 228.351 259.901 227.593 260.587 227.054C260.626 226.951 260.673 226.853 260.728 226.763C260.827 226.586 260.954 226.439 261.1 226.33C261.247 226.221 261.409 226.153 261.577 226.131C261.745 226.109 261.915 226.132 262.076 226.201C262.236 226.269 262.384 226.38 262.508 226.526C263.243 227.428 262.961 229.765 262.564 230.815C262.538 230.875 262.227 231.513 262.026 231.915C262.171 231.7 262.312 231.497 262.453 231.282C262.752 230.853 263.059 230.441 263.392 229.99L263.896 229.358C264.058 229.143 264.255 228.945 264.434 228.731C264.861 228.253 265.288 227.796 265.77 227.345C265.48 227.005 264.468 225.784 264.195 224.981C263.922 224.178 263.768 223.062 264.097 222.232C264.174 222.038 264.282 221.867 264.414 221.731C264.545 221.594 264.698 221.495 264.862 221.44C265.025 221.384 265.196 221.374 265.363 221.409C265.53 221.444 265.689 221.524 265.83 221.644C266.684 222.397 266.654 224.756 266.39 225.877C266.39 225.943 266.108 226.719 265.963 227.142C266.24 226.873 266.518 226.592 266.817 226.345C267.67 225.602 268.524 224.877 269.378 224.145L270.16 223.475C270.057 223.354 268.828 221.935 268.52 221.039C268.247 220.236 268.093 219.12 268.422 218.29C268.5 218.097 268.608 217.927 268.74 217.792C268.872 217.656 269.025 217.558 269.188 217.503C269.352 217.448 269.522 217.438 269.689 217.473C269.855 217.508 270.014 217.588 270.155 217.707C270.988 218.46 270.979 220.819 270.715 221.941C270.715 222.023 270.313 223.134 270.207 223.414C270.783 222.919 271.351 222.419 271.914 221.897C272.625 221.215 273.303 220.476 273.943 219.686C273.891 219.631 272.602 218.158 272.29 217.234C272.017 216.437 271.842 215.32 272.192 214.512C272.269 214.318 272.377 214.147 272.509 214.011C272.641 213.874 272.794 213.775 272.957 213.72C273.121 213.665 273.292 213.655 273.459 213.692C273.626 213.728 273.785 213.809 273.926 213.929C274.779 214.677 274.75 217.041 274.485 218.158C274.485 218.235 274.177 219.081 274.032 219.483L274.083 219.521C274.731 218.673 275.32 217.753 275.843 216.772C276.137 216.222 276.393 215.705 276.632 215.183C276.372 214.941 275.185 213.814 274.831 213.022C274.476 212.23 274.224 211.18 274.502 210.328C274.563 210.125 274.656 209.941 274.776 209.788C274.896 209.634 275.039 209.515 275.197 209.437C275.354 209.36 275.523 209.325 275.692 209.337C275.86 209.348 276.025 209.405 276.176 209.503C277.068 210.136 277.26 212.483 277.089 213.632C277.089 213.693 276.931 214.314 276.82 214.765C276.923 214.523 277.038 214.281 277.136 214.05C277.503 213.182 277.802 212.357 278.059 211.626C278.204 211.202 278.328 210.823 278.439 210.465C278.281 210.053 277.649 208.387 277.619 207.491C277.589 206.595 277.738 205.495 278.289 204.907C278.415 204.762 278.564 204.653 278.725 204.587C278.886 204.521 279.056 204.5 279.224 204.524C279.392 204.549 279.554 204.618 279.7 204.729C279.845 204.839 279.971 204.988 280.07 205.165C280.637 206.265 279.967 208.464 279.403 209.371C279.356 209.454 278.485 210.581 278.477 210.559V210.531C278.374 210.883 278.259 211.252 278.127 211.659C277.883 212.401 277.597 213.237 277.243 214.116C276.867 215.073 276.448 216 275.988 216.893C275.484 217.896 274.912 218.84 274.28 219.714L274.254 219.741C274.515 219.56 275.262 219.076 275.322 219.043C276.176 218.636 278.003 218.493 278.631 219.527C278.731 219.701 278.802 219.901 278.839 220.113C278.876 220.325 278.878 220.545 278.844 220.758C278.811 220.971 278.743 221.173 278.645 221.35C278.547 221.527 278.422 221.676 278.276 221.787C277.67 222.281 276.795 222.122 276.141 221.814C275.424 221.468 274.25 219.961 274.16 219.84C273.491 220.704 272.777 221.511 272.026 222.254C271.599 222.694 271.137 223.117 270.681 223.53L271.15 223.233C272.004 222.826 273.832 222.683 274.459 223.717C274.56 223.891 274.631 224.091 274.668 224.303C274.705 224.515 274.706 224.735 274.673 224.948C274.639 225.161 274.572 225.363 274.474 225.54C274.376 225.717 274.25 225.866 274.105 225.976C273.499 226.471 272.623 226.312 271.97 226.004C271.317 225.696 270.305 224.431 270.04 224.096C269.861 224.25 269.69 224.409 269.511 224.569C268.657 225.317 267.803 226.059 267.004 226.823C266.718 227.093 266.441 227.373 266.15 227.648L266.552 227.389C267.406 226.983 269.237 226.84 269.865 227.873C269.966 228.048 270.036 228.248 270.073 228.461C270.109 228.673 270.111 228.893 270.077 229.106C270.043 229.319 269.975 229.521 269.877 229.698C269.778 229.875 269.652 230.023 269.506 230.133C268.9 230.628 268.025 230.469 267.372 230.161C266.718 229.853 265.805 228.709 265.489 228.313C265.211 228.605 264.934 228.901 264.677 229.204C264.507 229.413 264.327 229.6 264.165 229.825L263.674 230.469C263.375 230.897 263.059 231.332 262.777 231.761C262.577 232.052 262.389 232.338 262.201 232.624C262.483 232.349 263.055 231.832 263.098 231.799C263.892 231.249 265.685 230.732 266.428 231.629C266.548 231.782 266.642 231.965 266.703 232.168C266.765 232.371 266.792 232.588 266.784 232.805C266.776 233.022 266.733 233.235 266.656 233.429C266.58 233.624 266.473 233.795 266.343 233.933C265.8 234.537 264.917 234.548 264.251 234.372C263.52 234.174 262.231 232.97 262.073 232.816C261.804 233.267 261.505 233.735 261.228 234.18Z" fill="#263238"/>
<path d="M191.282 170.608L195.125 175.369C193.51 177.619 192.079 180.077 190.855 182.704C189.147 186.553 181.603 201.949 181.035 203.961C180.467 205.973 181.889 206.347 183.029 206.897C184.169 207.447 189.434 210.559 191.423 210.559C193.413 210.559 194.13 210.927 194.13 209.459C194.13 207.991 190.142 205.248 189.715 204.329C189.288 203.411 187.58 199.199 187.58 199.199C187.58 199.199 201.389 181.055 202.383 179.037C203.378 177.019 204.945 171.52 204.518 170.239C204.091 168.958 196.406 163.46 196.406 163.46L191.282 170.608Z" fill="#D4D4D4" stroke="#263238" stroke-linecap="round" stroke-linejoin="round"/>
<path d="M186.445 201.949L182.692 200.063C182.084 201.321 181.531 202.623 181.035 203.961C180.467 205.979 181.889 206.347 183.029 206.897C184.169 207.447 189.434 210.559 191.423 210.559C193.413 210.559 194.13 210.927 194.13 209.459C194.13 207.991 190.142 205.248 189.715 204.329C189.288 203.411 187.58 199.199 187.58 199.199L186.727 200.662L186.445 201.949Z" fill="#FF81AE" stroke="#263238" stroke-linecap="round" stroke-linejoin="round"/>
<path d="M193.968 210.279C192.085 209.872 189.271 208.415 186.872 207.079C184.976 206.034 182.628 204.549 181.159 203.598C181.108 203.741 181.061 203.873 181.035 203.961C180.467 205.979 181.889 206.347 183.029 206.897C184.169 207.447 189.434 210.559 191.423 210.559C192.892 210.559 193.66 210.757 193.968 210.279Z" fill="white" stroke="#263238" stroke-linecap="round" stroke-linejoin="round"/>
<path d="M172.923 156.125C172.923 156.125 179.041 162.173 183.311 166.572C187.58 170.971 190.996 174.456 190.996 174.456C190.996 174.456 196.12 169.508 196.974 167.858C197.827 166.209 200.248 164.191 200.248 164.191L178.473 151.913C178.473 151.913 173.636 150.626 172.923 156.125Z" fill="#D4D4D4" stroke="#263238" stroke-linecap="round" stroke-linejoin="round"/>
<path d="M160.541 236C172.018 236 181.321 224.019 181.321 209.239C181.321 194.46 172.018 182.479 160.541 182.479C149.064 182.479 139.76 194.46 139.76 209.239C139.76 224.019 149.064 236 160.541 236Z" fill="#263238" stroke="#263238" stroke-linecap="round" stroke-linejoin="round"/>
<path d="M160.541 233.064C170.758 233.064 179.041 222.397 179.041 209.239C179.041 196.082 170.758 185.415 160.541 185.415C150.323 185.415 142.041 196.082 142.041 209.239C142.041 222.397 150.323 233.064 160.541 233.064Z" fill="white" stroke="#263238" stroke-linecap="round" stroke-linejoin="round"/>
<path d="M160.541 231.964C170.287 231.964 178.187 221.79 178.187 209.239C178.187 196.689 170.287 186.514 160.541 186.514C150.795 186.514 142.894 196.689 142.894 209.239C142.894 221.79 150.795 231.964 160.541 231.964Z" fill="white" stroke="#263238" stroke-linecap="round" stroke-linejoin="round"/>
<path d="M235.972 236C247.449 236 256.753 224.019 256.753 209.239C256.753 194.46 247.449 182.479 235.972 182.479C224.496 182.479 215.192 194.46 215.192 209.239C215.192 224.019 224.496 236 235.972 236Z" fill="#263238" stroke="#263238" stroke-linecap="round" stroke-linejoin="round"/>
<path d="M235.973 233.064C246.19 233.064 254.473 222.397 254.473 209.239C254.473 196.082 246.19 185.415 235.973 185.415C225.755 185.415 217.472 196.082 217.472 209.239C217.472 222.397 225.755 233.064 235.973 233.064Z" fill="white" stroke="#263238" stroke-linecap="round" stroke-linejoin="round"/>
<path d="M235.972 231.964C245.718 231.964 253.619 221.79 253.619 209.239C253.619 196.689 245.718 186.514 235.972 186.514C226.226 186.514 218.326 196.689 218.326 209.239C218.326 221.79 226.226 231.964 235.972 231.964Z" fill="white" stroke="#263238" stroke-linecap="round" stroke-linejoin="round"/>
<path d="M236.208 212.538C237.622 212.538 238.769 211.061 238.769 209.239C238.769 207.417 237.622 205.94 236.208 205.94C234.793 205.94 233.646 207.417 233.646 209.239C233.646 211.061 234.793 212.538 236.208 212.538Z" stroke="#263238" stroke-linecap="round" stroke-linejoin="round"/>
<path d="M175.442 160.364L189.715 211.807" stroke="#263238" stroke-width="4" stroke-miterlimit="10" stroke-linecap="round"/>
<path d="M236.651 210.422C231.669 203.653 218.979 159.111 216.823 151.468C216.731 151.147 216.723 150.796 216.801 150.468C216.878 150.141 217.035 149.855 217.25 149.653L222.109 145.084" stroke="#263238" stroke-width="4" stroke-miterlimit="10" stroke-linecap="round"/>
<path d="M161.079 208.079C161.079 208.079 170.771 169.272 219.539 162.641" stroke="#263238" stroke-width="4" stroke-miterlimit="10" stroke-linecap="round"/>
<path d="M196.833 210.812C196.833 210.812 204.71 208.47 210.009 197.358C215.308 186.245 219.552 176.095 223.185 173.561" stroke="#263238" stroke-width="4" stroke-miterlimit="10" stroke-linecap="round"/>
<path d="M168.286 154.157C168.286 154.157 168.141 159.045 169.161 160.551C170.181 162.058 176.752 162.245 179.835 161.678C182.918 161.112 184.216 159.611 183.921 158.484C183.627 157.357 178.798 153.403 175.454 153.029C172.111 152.655 168.431 152.463 168.286 154.157Z" fill="white" stroke="#263238" stroke-linecap="round" stroke-linejoin="round"/>
<path d="M217.571 137.672C217.571 137.672 228.928 139.624 231.199 150.352C233.471 161.079 225.896 166.149 221.204 166.149" stroke="#263238" stroke-linecap="round" stroke-linejoin="round"/>
<path d="M225.597 134.164C225.597 134.164 235.742 145.865 233.624 154.25C231.506 162.635 219.082 160.689 218.779 160.106" stroke="#263238" stroke-linecap="round" stroke-linejoin="round"/>
<path d="M195.257 149.181C196.734 148.262 200.462 150.506 201.935 151.105C204.528 152.143 207.057 153.429 209.501 154.954C210.393 155.504 213.625 156.702 213.625 158.352C213.625 159.82 205.086 197.577 205.086 197.577C206.755 198.61 208.465 199.527 210.209 200.327C212.063 201.058 215.051 201.426 215.333 201.976C215.615 202.526 214.624 204.357 213.198 205.088C211.772 205.819 201.388 206.925 200.248 206.925C199.108 206.925 198.681 207.474 199.108 205.088C199.535 202.702 199.962 193.728 199.962 193.728C199.962 193.728 200.675 181.236 200.675 178.119C200.675 175.001 202.383 164.56 202.383 164.56L192.849 164.191C193.15 160.265 193.611 156.361 194.228 152.496C194.356 151.737 194.429 150.269 194.817 149.642C194.935 149.448 195.086 149.29 195.257 149.181Z" fill="white" stroke="#263238" stroke-linecap="round" stroke-linejoin="round"/>
<path d="M167.94 142.198C167.94 142.198 166.659 148.977 167.513 152.826C168.367 156.675 174.344 157.412 174.344 157.412L194.557 168.221L197.687 148.614L186.906 144.078C186.906 144.078 168.085 141.279 167.94 142.198Z" fill="white" stroke="#263238" stroke-linecap="round" stroke-linejoin="round"/>
<path d="M191.987 157.758L193.686 158.682" stroke="#263238" stroke-linecap="round" stroke-linejoin="round"/>
<path d="M179.942 151.182L190.168 156.763" stroke="#263238" stroke-linecap="round" stroke-linejoin="round"/>
<path d="M174.631 143.314C174.631 143.314 171.215 146.976 172.218 147.339C173.222 147.701 175.344 143.682 175.344 145.689C175.344 147.696 174.49 149.895 175.058 150.088C175.626 150.28 176.907 149.538 176.907 149.538L178.777 150.555" stroke="#263238" stroke-linecap="round" stroke-linejoin="round"/>
<path d="M205.086 197.55C205.086 197.55 205.176 197.165 205.325 196.489C205.173 196.809 205.091 197.175 205.086 197.55Z" stroke="#263238" stroke-linecap="round" stroke-linejoin="round"/>
<path d="M210.21 200.299C208.465 199.5 206.755 198.582 205.086 197.55C204.945 199.562 204.945 200.662 204.945 200.662L199.519 201.069C199.433 202.408 199.291 203.741 199.092 205.06C198.665 207.447 199.092 206.897 200.232 206.897C201.372 206.897 211.76 205.797 213.181 205.06C214.603 204.324 215.602 202.498 215.316 201.948C215.03 201.399 212.063 201.03 210.21 200.299Z" fill="#FF81AE" stroke="#263238" stroke-linecap="round" stroke-linejoin="round"/>
<path d="M200.249 206.897C201.389 206.897 211.777 205.797 213.199 205.061C214.42 204.434 215.333 202.999 215.376 202.256C210.773 205.061 199.109 205.061 199.109 205.061C198.682 207.447 199.109 206.897 200.249 206.897Z" fill="white" stroke="#263238" stroke-linecap="round" stroke-linejoin="round"/>
<path d="M194.412 204.472L158.974 205.94L158.547 210.889L193.558 219.505L194.412 204.472Z" fill="white" stroke="#263238" stroke-linecap="round" stroke-linejoin="round"/>
<path d="M193.558 219.505C196.781 219.505 199.394 216.14 199.394 211.988C199.394 207.837 196.781 204.472 193.558 204.472C190.334 204.472 187.721 207.837 187.721 211.988C187.721 216.14 190.334 219.505 193.558 219.505Z" fill="white" stroke="#263238" stroke-linecap="round" stroke-linejoin="round"/>
<path d="M204.24 208.277L194.228 211.197C194.061 211.248 193.905 211.345 193.769 211.48C193.634 211.615 193.522 211.786 193.441 211.98C193.36 212.175 193.313 212.39 193.301 212.61C193.29 212.831 193.314 213.052 193.374 213.259C193.487 213.644 193.714 213.956 194.006 214.126C194.297 214.296 194.629 214.31 194.928 214.166L205.914 208.86L204.24 208.277Z" fill="white" stroke="#263238" stroke-miterlimit="10" stroke-linecap="round"/>
<path d="M209.607 206.622H202.891V209.63H209.607V206.622Z" fill="white" stroke="#263238" stroke-miterlimit="10" stroke-linecap="round"/>
<path d="M160.541 214.006C162.585 214.006 164.243 211.872 164.243 209.239C164.243 206.606 162.585 204.472 160.541 204.472C158.496 204.472 156.839 206.606 156.839 209.239C156.839 211.872 158.496 214.006 160.541 214.006Z" fill="white" stroke="#263238" stroke-linecap="round" stroke-linejoin="round"/>
<path d="M199.548 125.972L209.368 131.432C209.368 131.432 213.911 132.603 214.368 133.384C214.806 134.165 215.162 135.017 215.427 135.918C215.576 136.507 214.517 136.507 214.517 136.507C214.517 136.507 215.73 138.651 215.277 139.256C214.825 139.861 214.368 140.037 214.065 139.256C213.856 138.76 213.54 138.354 213.155 138.085L210.278 136.919L208.613 134.17C208.613 134.17 194.676 132.416 193.468 131.828C192.26 131.239 187.713 122.86 187.713 122.86L190.001 119.341L199.548 125.972Z" fill="#D4D4D4" stroke="#263238" stroke-linecap="round" stroke-linejoin="round"/>
<path d="M182.423 94.5925C182.423 94.5925 180.288 94.0427 177.619 96.2421C174.951 98.4414 171.748 103.527 170.681 108.476C169.614 113.425 169.187 123.871 169.187 127.858C169.187 131.844 167.372 137.48 167.372 139.817C167.372 142.154 167.692 143.253 168.653 143.253C169.614 143.253 175.484 143.116 179.114 144.078C182.743 145.04 185.732 145.315 186.906 144.078C188.08 142.841 187.76 135.418 187.76 134.456C187.76 133.494 191.282 121.672 192.136 116.317C192.99 110.961 191.175 101.196 190.321 98.9967C189.467 96.7974 184.878 94.4551 184.451 94.4551C184.024 94.4551 182.423 94.5925 182.423 94.5925Z" fill="#FF81AE" stroke="#263238" stroke-linecap="round" stroke-linejoin="round"/>
<path d="M172.944 118.857L171.526 119.929" stroke="#263238" stroke-linecap="round" stroke-linejoin="round"/>
<path d="M171.83 115.442L180.313 113.292L174.648 117.57" stroke="#263238" stroke-linecap="round" stroke-linejoin="round"/>
<path d="M181.996 88.4069L181.355 95.1424C181.355 95.1424 184.878 100.091 185.945 101.328C187.013 102.565 189.361 103.39 189.361 103.39V98.5789L190.962 88.8247C190.962 88.8247 184.344 91.0241 181.996 88.4069Z" fill="white" stroke="#263238" stroke-linecap="round" stroke-linejoin="round"/>
<path d="M179.545 77.619C179.545 77.619 177.705 77.1022 177.705 79.9834C177.689 80.7955 177.809 81.6026 178.057 82.3495C178.305 83.0963 178.676 83.7653 179.144 84.3106C179.144 84.3106 180.267 85.0309 180.745 83.6948C180.745 83.6948 180.984 88.121 181.385 89.1492C181.787 90.1774 184.344 93.1685 187.384 93.3719C190.424 93.5754 191.782 89.2536 192.102 87.7086C192.422 86.1635 192.9 84.0027 192.9 84.0027C192.9 84.0027 193.379 84.9264 194.42 83.5903C195.462 82.2542 196.261 80.5002 195.62 78.5428C195.474 78.0133 195.18 77.5727 194.796 77.3065C194.412 77.0403 193.965 76.9675 193.541 77.1022V72.2636C193.609 71.2822 193.417 70.3001 192.996 69.4773C192.575 68.6545 191.95 68.0397 191.223 67.733C188.584 66.4958 183.623 67.3206 181.304 70.7186C178.986 74.1166 179.225 75.5572 179.225 75.5572L179.545 77.619Z" fill="white" stroke="#263238" stroke-linecap="round" stroke-linejoin="round"/>
<path d="M186.662 83.3812C186.662 83.3812 183.546 83.0733 182.743 83.6946C181.94 84.3159 182.102 89.5614 182.743 91.3154C183.383 93.0694 186.261 94.5045 187.781 94.4055C189.301 94.3065 190.501 91.8267 190.74 90.2817C190.979 88.7366 191.141 84.0025 190.74 83.6836C190.339 83.3647 186.662 83.3812 186.662 83.3812Z" fill="#263238" stroke="#263238" stroke-linecap="round" stroke-linejoin="round"/>
<path d="M187.704 76.2775L187.623 83.2824L185.702 82.2487" stroke="#263238" stroke-linecap="round" stroke-linejoin="round"/>
<path d="M183.943 84.8275C183.943 84.8275 185.382 86.0592 187.786 85.5478C187.786 85.5478 186.266 87.4008 185.548 87.5052C184.831 87.6097 183.943 84.8275 183.943 84.8275Z" fill="white"/>
<path d="M184.024 77.718C184.024 78.2679 183.844 78.7517 183.622 78.7517C183.4 78.7517 183.225 78.2899 183.225 77.718C183.225 77.1462 183.404 76.6898 183.622 76.6898C183.84 76.6898 184.024 77.1517 184.024 77.718Z" fill="#263238"/>
<path d="M189.382 77.718C189.382 78.2679 189.203 78.7517 188.981 78.7517C188.759 78.7517 188.584 78.2899 188.584 77.718C188.584 77.1462 188.763 76.6898 188.981 76.6898C189.199 76.6898 189.382 77.1517 189.382 77.718Z" fill="#263238"/>
<path d="M181.945 75.7604C181.945 75.7604 183.785 73.8085 185.463 75.557" stroke="#263238" stroke-linecap="round" stroke-linejoin="round"/>
<path d="M188.182 74.8369C188.182 74.8369 190.099 73.9076 191.141 75.8651" stroke="#263238" stroke-linecap="round" stroke-linejoin="round"/>
<path d="M184.493 70.4767C184.493 70.4767 183.033 73.6767 184.92 73.4898C186.808 73.3028 190.898 69.7289 190.898 69.7289C190.898 69.7289 191.483 73.2973 192.063 73.8637C192.644 74.43 193.088 74.8039 193.088 74.8039L192.943 81.0116C192.943 81.0116 193.673 81.5614 193.673 78.7517C193.673 75.942 194.403 71.4169 194.1 67.2821C193.797 63.1473 188.55 58.8201 186.364 58.2537C184.177 57.6874 183.879 60.7005 183.879 60.7005C183.879 60.7005 179.208 61.8277 180.083 63.7082C180.958 65.5886 180.51 65.4016 180.51 65.4016C180.51 65.4016 177.295 65.0278 177.589 68.9756C177.874 71.8652 178.392 74.7086 179.135 77.4596C179.135 77.4596 179.562 81.2205 180.301 81.2205C181.039 81.2205 180.39 79.0211 180.39 78.4713C180.24 77.4214 180.036 76.3854 179.78 75.3702L184.493 70.4767Z" fill="#263238" stroke="#263238" stroke-linecap="round" stroke-linejoin="round"/>
<path d="M213.63 136.111C213.63 136.111 215.598 135.913 216.661 137.276C217.724 138.64 218.326 142.742 219.991 144.496C221.657 146.25 223.475 144.886 224.837 142.544C226.199 140.202 225.439 133.966 225.012 132.812C224.586 131.657 216.832 133.593 216.832 133.593" stroke="#263238" stroke-width="4" stroke-miterlimit="10" stroke-linecap="round"/>
<path d="M175.344 111.038C175.344 111.038 189.148 124.971 190.714 125.521C192.281 126.071 215.905 130.651 215.905 130.651C215.905 130.651 216.187 132.3 217.327 132.669C218.074 132.894 218.836 133.015 219.603 133.032C219.603 133.032 219.462 134.868 220.175 134.868C220.888 134.868 223.446 135.418 223.873 134.868C224.299 134.318 224.586 131.201 224.299 130.283C224.013 129.364 216.046 127.17 216.046 127.17L195.411 117.086C195.411 117.086 185.446 101.141 183.029 98.9418C180.612 96.7424 176.906 100.228 176.906 100.228" fill="white"/>
<path d="M175.344 111.038C175.344 111.038 189.148 124.971 190.714 125.521C192.281 126.071 215.905 130.651 215.905 130.651C215.905 130.651 216.187 132.3 217.327 132.669C218.074 132.894 218.836 133.015 219.603 133.032C219.603 133.032 219.462 134.868 220.175 134.868C220.888 134.868 223.446 135.418 223.873 134.868C224.299 134.318 224.586 131.201 224.299 130.283C224.013 129.364 216.046 127.17 216.046 127.17L195.411 117.086C195.411 117.086 185.446 101.141 183.029 98.9418C180.612 96.7424 176.906 100.228 176.906 100.228" stroke="#263238" stroke-linecap="round" stroke-linejoin="round"/>
<path d="M175.344 111.038C175.344 111.038 179.537 115.272 183.563 119.159L191.825 111.462C188.716 106.645 184.494 100.283 183.029 98.9529C180.608 96.7535 176.906 100.239 176.906 100.239" fill="#FF81AE"/>
<path d="M175.344 111.038C175.344 111.038 179.537 115.272 183.563 119.159L191.825 111.462C188.716 106.645 184.494 100.283 183.029 98.9529C180.608 96.7535 176.906 100.239 176.906 100.239" stroke="#263238" stroke-linecap="round" stroke-linejoin="round"/>
<path d="M221.311 131.932V135.231" stroke="#263238" stroke-linecap="round" stroke-linejoin="round"/>
<path d="M222.591 131.201L222.451 135.05" stroke="#263238" stroke-linecap="round" stroke-linejoin="round"/>
<path d="M223.731 131.201L223.871 134.868" stroke="#263238" stroke-linecap="round" stroke-linejoin="round"/>
<path d="M94.178 73.8252C94.7809 75.6452 95.211 77.5523 95.4589 79.5051C95.8858 82.8041 96.5818 84.0138 97.1027 84.3107C97.6236 84.6076 97.773 85.8117 97.4869 86.7245C97.2009 87.6372 95.9371 87.7252 95.9371 87.7252C95.9371 87.7252 95.3179 92.3328 95.1728 93.0696C95.0276 93.8064 94.464 95.082 92.4701 94.5322C91.5906 94.2902 88.3414 92.7012 88.3414 92.7012C88.3414 92.7012 87.9144 101.13 87.9144 103.33V106.266L80.8012 104.616C80.8012 104.616 81.369 99.6677 81.5099 96.9185C81.6508 94.1693 80.9421 89.952 79.6612 86.4715C78.3803 82.9911 75.9594 81.8859 77.5263 78.224C79.0933 74.562 86.2065 71.439 88.7683 71.2575C91.3301 71.0761 94.178 73.8252 94.178 73.8252Z" fill="white" stroke="#263238" stroke-linecap="round" stroke-linejoin="round"/>
<path d="M94.5791 81.6493L94.6427 82.8974" stroke="#263238" stroke-linecap="round" stroke-linejoin="round"/>
<path d="M93.2896 80.7367C93.2896 80.7367 93.4176 78.7352 94.7113 79.3181" stroke="#263238" stroke-linecap="round" stroke-linejoin="round"/>
<path d="M95.0956 88.9732C95.0956 88.9732 93.4176 89.1381 93.0291 87.1422" stroke="#263238" stroke-linecap="round" stroke-linejoin="round"/>
<path d="M92.3033 112.71L97.6062 122.266C97.6062 122.266 112.448 131.613 114.258 132.41C116.068 133.208 121.516 135.918 123.344 136.116C125.171 136.314 126.828 138.865 126.828 138.865C126.828 138.865 126.674 140.619 126.068 141.208C125.461 141.796 123.796 141.01 122.737 141.01C121.858 140.916 120.995 140.655 120.176 140.235C120.176 140.235 118.041 136.331 117.614 136.138C117.187 135.946 104.587 131.454 100.962 129.7C97.3372 127.946 92.6321 125.801 91.4195 123.069C90.2069 120.336 92.0258 113.512 92.0258 113.512L92.3033 112.71Z" fill="#D4D4D4" stroke="#263238" stroke-linecap="round" stroke-linejoin="round"/>
<path d="M86.4924 163.971C86.4924 163.971 91.3299 169.101 93.7508 171.85C95.0933 173.412 96.5736 174.765 98.1614 175.881C98.1614 175.881 94.1778 181.929 93.4648 187.614C92.7517 193.3 86.7785 209.058 86.9194 210.339C87.0603 211.62 92.329 211.807 94.1778 211.807C96.0265 211.807 98.5883 212.72 99.4423 211.807C100.296 210.894 96.4535 208.321 95.4587 207.59C94.4639 206.859 92.756 204.109 92.756 204.109C92.756 204.109 101.15 186.696 103.285 181.748C105.42 176.799 107.982 174.418 106.701 170.019C105.42 165.621 90.3351 161.035 89.3403 160.672C88.3455 160.309 86.4924 160.854 86.4924 163.971Z" fill="#D4D4D4" stroke="#263238" stroke-linecap="round" stroke-linejoin="round"/>
<path d="M88.5288 204.731C87.5681 207.672 86.8679 209.888 86.9191 210.339C87.06 211.62 92.3288 211.807 94.1775 211.807C96.0263 211.807 98.5881 212.72 99.442 211.807C100.296 210.894 96.4533 208.321 95.4584 207.59C94.4636 206.859 92.7557 204.109 92.7557 204.109L92.0427 205.572L88.5288 204.731Z" fill="white" stroke="#263238" stroke-linecap="round" stroke-linejoin="round"/>
<path d="M99.442 211.807C99.6598 211.576 99.5744 211.257 99.314 210.85C97.0724 210.57 93.1529 210.097 90.9028 209.971C89.627 209.966 88.3625 209.662 87.1711 209.074C87.035 209.476 86.95 209.903 86.9192 210.339C87.0601 211.62 92.3288 211.807 94.1776 211.807C96.0263 211.807 98.5881 212.72 99.442 211.807Z" fill="white" stroke="#263238" stroke-linecap="round" stroke-linejoin="round"/>
<path d="M124.778 162.322C124.778 162.322 114.104 164.702 108.694 174.968C104.587 182.759 94.7455 196.961 90.762 198.424" stroke="#263238" stroke-width="4" stroke-linecap="round" stroke-linejoin="bevel"/>
<path d="M126.059 168.92C126.059 168.92 119.083 173.868 115.385 180.098C111.688 186.328 107.982 206.49 100.582 212.17" stroke="#263238" stroke-width="4" stroke-linecap="round" stroke-linejoin="bevel"/>
<path d="M82.7905 165.984L93.4646 211.807" stroke="#263238" stroke-width="4" stroke-miterlimit="10" stroke-linecap="round"/>
<path d="M64.2904 236C75.767 236 85.0707 224.019 85.0707 209.239C85.0707 194.46 75.767 182.479 64.2904 182.479C52.8137 182.479 43.51 194.46 43.51 209.239C43.51 224.019 52.8137 236 64.2904 236Z" fill="#263238" stroke="#263238" stroke-linecap="round" stroke-linejoin="round"/>
<path d="M64.2904 233.064C74.5079 233.064 82.7908 222.397 82.7908 209.239C82.7908 196.082 74.5079 185.415 64.2904 185.415C54.0729 185.415 45.79 196.082 45.79 209.239C45.79 222.397 54.0729 233.064 64.2904 233.064Z" fill="white" stroke="#263238" stroke-linecap="round" stroke-linejoin="round"/>
<path d="M64.29 231.964C74.0359 231.964 81.9364 221.79 81.9364 209.239C81.9364 196.689 74.0359 186.514 64.29 186.514C54.5441 186.514 46.6436 196.689 46.6436 209.239C46.6436 221.79 54.5441 231.964 64.29 231.964Z" fill="white" stroke="#263238" stroke-linecap="round" stroke-linejoin="round"/>
<path d="M139.722 236C151.199 236 160.503 224.019 160.503 209.239C160.503 194.46 151.199 182.479 139.722 182.479C128.246 182.479 118.942 194.46 118.942 209.239C118.942 224.019 128.246 236 139.722 236Z" fill="#263238" stroke="#263238" stroke-linecap="round" stroke-linejoin="round"/>
<path d="M139.722 233.064C149.94 233.064 158.222 222.397 158.222 209.239C158.222 196.082 149.94 185.415 139.722 185.415C129.505 185.415 121.222 196.082 121.222 209.239C121.222 222.397 129.505 233.064 139.722 233.064Z" fill="white" stroke="#263238" stroke-linecap="round" stroke-linejoin="round"/>
<path d="M139.722 231.964C149.468 231.964 157.369 221.79 157.369 209.239C157.369 196.689 149.468 186.514 139.722 186.514C129.976 186.514 122.076 196.689 122.076 209.239C122.076 221.79 129.976 231.964 139.722 231.964Z" fill="white" stroke="#263238" stroke-linecap="round" stroke-linejoin="round"/>
<path d="M139.722 212.538C141.137 212.538 142.284 211.061 142.284 209.239C142.284 207.417 141.137 205.94 139.722 205.94C138.307 205.94 137.16 207.417 137.16 209.239C137.16 211.061 138.307 212.538 139.722 212.538Z" stroke="#263238" stroke-linecap="round" stroke-linejoin="round"/>
<path d="M139.722 209.239C139.722 209.239 130.043 188.346 129.616 185.596C129.189 182.847 122.925 153.337 122.925 153.337L127.195 140.691C127.222 140.623 127.237 140.549 127.24 140.472C127.244 140.396 127.234 140.32 127.214 140.249C127.193 140.177 127.16 140.112 127.119 140.058C127.078 140.003 127.028 139.961 126.973 139.932L121.363 139.042" stroke="#263238" stroke-width="4" stroke-linecap="round" stroke-linejoin="bevel"/>
<path d="M64.1494 207.408L85.9246 181.016" stroke="#263238" stroke-width="4" stroke-miterlimit="10" stroke-linecap="round"/>
<path d="M77.8506 159.578C77.8506 159.578 75.2461 158.995 74.6825 160.161C74.1189 161.326 74.0036 165.109 75.2461 165.989C76.4886 166.869 84.5283 167.298 86.4539 167.006C88.3795 166.715 88.9431 163.658 87.8117 162.492C86.6802 161.326 77.8506 159.578 77.8506 159.578Z" fill="white" stroke="#263238" stroke-linecap="round" stroke-linejoin="round"/>
<path d="M98.1611 204.472L62.7231 205.94L62.2961 210.889L97.3072 219.505L98.1611 204.472Z" fill="white" stroke="#263238" stroke-linecap="round" stroke-linejoin="round"/>
<path d="M97.3073 219.505C100.531 219.505 103.144 216.14 103.144 211.988C103.144 207.837 100.531 204.472 97.3073 204.472C94.0838 204.472 91.4707 207.837 91.4707 211.988C91.4707 216.14 94.0838 219.505 97.3073 219.505Z" fill="white" stroke="#263238" stroke-linecap="round" stroke-linejoin="round"/>
<path d="M97.3074 214.556C98.4086 214.556 99.3013 213.407 99.3013 211.988C99.3013 210.57 98.4086 209.421 97.3074 209.421C96.2062 209.421 95.3135 210.57 95.3135 211.988C95.3135 213.407 96.2062 214.556 97.3074 214.556Z" fill="white" stroke="#263238" stroke-linecap="round" stroke-linejoin="round"/>
<path d="M108.554 215.838C108.5 215.845 108.445 215.845 108.391 215.838L97.1494 213.088C97.0333 213.07 96.9214 213.021 96.8206 212.945C96.7198 212.868 96.6323 212.766 96.5634 212.645C96.4946 212.523 96.4459 212.384 96.4203 212.237C96.3947 212.09 96.3929 211.938 96.4149 211.79C96.4368 211.642 96.4822 211.502 96.548 211.377C96.6139 211.253 96.6989 211.147 96.7978 211.067C96.8967 210.987 97.0074 210.933 97.1229 210.91C97.2385 210.887 97.3565 210.895 97.4696 210.933L108.712 213.682C108.824 213.696 108.933 213.737 109.032 213.805C109.132 213.872 109.22 213.965 109.292 214.076C109.364 214.188 109.418 214.316 109.452 214.455C109.485 214.594 109.497 214.739 109.487 214.884C109.476 215.028 109.444 215.168 109.391 215.297C109.339 215.425 109.267 215.539 109.181 215.631C109.094 215.724 108.994 215.794 108.886 215.837C108.779 215.88 108.666 215.895 108.554 215.882V215.838Z" fill="white" stroke="#263238" stroke-linecap="round" stroke-linejoin="round"/>
<path d="M64.2904 214.006C66.3348 214.006 67.9922 211.872 67.9922 209.239C67.9922 206.606 66.3348 204.472 64.2904 204.472C62.246 204.472 60.5886 206.606 60.5886 209.239C60.5886 211.872 62.246 214.006 64.2904 214.006Z" fill="white" stroke="#263238" stroke-linecap="round" stroke-linejoin="round"/>
<path d="M90.3819 105.424C89.2017 103.405 87.5325 101.95 85.6383 101.289C81.7956 100.003 79.3748 101.103 77.526 106.969C75.6772 112.836 78.9478 122.546 79.5199 124.933C80.0921 127.319 78.8069 131.893 77.3851 135.929C75.9633 139.965 73.1155 144.177 73.5424 151.506C73.9694 158.836 80.0878 162.684 81.5096 162.871L82.9356 163.053C82.9356 163.053 92.7558 169.282 97.0255 170.751C99.4907 171.618 102.016 172.17 104.566 172.4C104.566 172.4 101.722 175.149 101.722 181.929C101.722 188.708 101.436 215.106 101.436 215.106C101.436 215.106 102.29 216.756 102.717 216.756C103.144 216.756 116.666 212.17 116.666 212.17C116.666 212.17 117.093 209.789 116.38 209.789C115.667 209.789 105.42 206.671 105.42 206.671C105.42 206.671 110.402 179.548 111.542 176.43C112.682 173.313 112.11 169.651 110.829 167.27C109.548 164.889 101.436 153.706 94.7455 149.857L93.3237 146.558C92.9565 139.124 93.0461 139.118 92.6106 132.993C92.4697 130.981 94.1776 117.048 93.0376 112.286C92.4872 109.808 91.5869 107.482 90.3819 105.424Z" fill="white" stroke="#263238" stroke-linecap="round" stroke-linejoin="round"/>
<path d="M76.5608 138.002C79.6648 138.755 86.936 144.276 93.127 143.132C92.9904 140.487 92.6702 133.84 92.6104 132.993C92.4695 130.981 94.1773 117.048 93.0373 112.286C92.4869 109.808 91.5866 107.482 90.3816 105.424C89.2014 103.405 87.5323 101.95 85.6381 101.289C81.7954 100.003 79.3745 101.103 77.5257 106.969C75.677 112.836 78.9475 122.546 79.5197 124.933C80.0918 127.319 78.8066 131.893 77.3848 135.929C77.1415 136.606 76.8554 137.293 76.5608 138.002Z" fill="white" stroke="#263238" stroke-linecap="round" stroke-linejoin="round"/>
<path d="M79.49 128.248C79.3545 129.108 79.1791 129.956 78.9648 130.788H92.6917C92.743 130.057 92.807 129.199 92.8796 128.248H79.49Z" fill="#263238"/>
<path d="M93.0205 140.966C92.9778 140.169 92.9351 139.316 92.8924 138.42H77.7607C79.1441 139.008 80.9672 140.015 82.9996 140.966H93.0205Z" fill="#263238"/>
<path d="M78.2477 133.362C77.9787 134.214 77.6927 135.072 77.3938 135.907H92.7645C92.709 134.808 92.662 133.873 92.6322 133.362H78.2477Z" fill="#263238"/>
<path d="M78.1067 105.353H90.3392C89.7376 104.377 89.0285 103.519 88.2343 102.807H79.4431C78.9076 103.571 78.4578 104.428 78.1067 105.353Z" fill="#263238"/>
<path d="M77.0352 112.985C77.0949 113.831 77.1974 114.684 77.3212 115.53H93.4007C93.3739 114.676 93.2983 113.825 93.1744 112.985H77.0352Z" fill="#263238"/>
<path d="M77.2829 107.899C77.1064 108.728 77.0047 109.58 76.9797 110.439H92.5383C92.2793 109.568 91.977 108.719 91.6332 107.899H77.2829Z" fill="#263238"/>
<path d="M79.0376 123.157C79.2511 123.921 79.4219 124.531 79.5201 124.933C79.5766 125.184 79.6138 125.442 79.6311 125.702H93.0805C93.1402 124.878 93.1957 124.025 93.247 123.157H79.0376Z" fill="#263238"/>
<path d="M77.7783 118.071C77.9619 118.967 78.1626 119.825 78.3633 120.616H93.3582C93.3924 119.748 93.418 118.895 93.4266 118.071H77.7783Z" fill="#263238"/>
<path d="M94.7455 149.857L93.3237 146.558C93.3237 146.558 93.2511 145.458 93.0376 141.428C88.2044 142.472 81.1168 137.029 77.3125 136.116C75.8694 140.092 73.1198 144.287 73.5424 151.512C73.9694 158.841 80.0878 162.69 81.5096 162.877L82.9357 163.058L83.0595 163.141C85.5828 154.855 94.5875 150.78 94.5875 150.78H96.1587C95.6934 150.434 95.2152 150.126 94.7455 149.857Z" fill="#FF81AE" stroke="#263238" stroke-linecap="round" stroke-linejoin="round"/>
<path d="M83.9602 151.996C84.3018 152.271 84.669 152.551 85.0618 152.837" stroke="#263238" stroke-linecap="round" stroke-linejoin="round"/>
<path d="M81.0402 138.898C81.0402 138.898 81.6593 140.092 80.7328 140.487C79.8063 140.883 78.8755 142.687 78.8755 142.687C78.8755 142.687 80.4211 142.885 80.5833 143.484C80.7456 144.083 79.1914 145.073 79.3494 145.683C79.4732 146.162 79.8959 148.185 82.62 150.819" stroke="#263238" stroke-linecap="round" stroke-linejoin="round"/>
<path d="M82.0818 162.871L84.2166 164.521C85.3791 161.099 86.9652 157.942 88.9132 155.174C91.902 151.138 97.3073 151.688 97.3073 151.688C97.3073 151.688 96.0264 149.857 94.7455 149.857C93.4647 149.857 88.9132 151.138 86.3514 153.887C83.7896 156.636 82.0818 162.871 82.0818 162.871Z" fill="white" stroke="#263238" stroke-linecap="round" stroke-linejoin="round"/>
<path d="M91.407 147.168L94.7458 149.857" stroke="#263238" stroke-linecap="round" stroke-linejoin="round"/>
<path d="M89.0542 145.277L89.9081 145.959" stroke="#263238" stroke-linecap="round" stroke-linejoin="round"/>
<path d="M115.812 138.678H114.104" stroke="#263238" stroke-width="4" stroke-linecap="round" stroke-linejoin="round"/>
<path d="M116.38 209.789C115.667 209.789 105.42 206.672 105.42 206.672V210.521L101.474 211.312C101.453 213.638 101.436 215.106 101.436 215.106C101.436 215.106 102.29 216.756 102.717 216.756C103.144 216.756 116.666 212.17 116.666 212.17C116.666 212.17 117.093 209.789 116.38 209.789Z" fill="white" stroke="#263238" stroke-linecap="round" stroke-linejoin="round"/>
<path d="M116.781 211.12L101.885 215.881C102.158 216.305 102.495 216.756 102.717 216.756C103.144 216.756 116.666 212.17 116.666 212.17C116.724 211.824 116.763 211.473 116.781 211.12Z" fill="white" stroke="#263238" stroke-linecap="round" stroke-linejoin="round"/>
<path d="M112.213 214.049L105.744 216.335C105.64 216.372 105.578 216.511 105.607 216.645L106.058 218.761C106.086 218.896 106.194 218.975 106.299 218.938L112.768 216.653C112.872 216.616 112.934 216.477 112.905 216.342L112.454 214.226C112.426 214.092 112.318 214.012 112.213 214.049Z" fill="white" stroke="#263238" stroke-linecap="round" stroke-linejoin="round"/>
<path d="M124.936 163.388L138.1 165.203" stroke="#263238" stroke-width="2" stroke-linecap="round" stroke-linejoin="round"/>
<path d="M146.186 144.391C145.928 144.387 145.675 144.489 145.464 144.683C145.538 144.378 145.577 144.061 145.58 143.743C145.608 142.907 145.378 142.091 144.94 141.473C144.503 140.855 143.893 140.485 143.244 140.444C142.742 140.442 142.253 140.657 141.857 141.054C141.757 140.774 141.599 140.536 141.4 140.366C141.2 140.196 140.968 140.101 140.729 140.092C140.375 140.105 140.038 140.297 139.793 140.628C139.547 140.958 139.413 141.4 139.419 141.857C139.297 141.798 139.169 141.766 139.039 141.763C138.987 141.763 138.94 141.763 138.893 141.763C138.94 141.586 138.965 141.4 138.966 141.213C138.968 140.994 138.936 140.777 138.872 140.573C138.809 140.37 138.715 140.185 138.596 140.028C138.476 139.872 138.334 139.747 138.178 139.661C138.021 139.576 137.853 139.53 137.683 139.528C137.513 139.526 137.344 139.567 137.186 139.649C137.028 139.731 136.884 139.852 136.763 140.005C136.641 140.159 136.545 140.341 136.478 140.543C136.411 140.745 136.376 140.961 136.374 141.18C136.372 141.367 136.392 141.552 136.434 141.73H136.114C136.13 141.618 136.14 141.504 136.144 141.389C136.16 140.93 136.035 140.48 135.795 140.139C135.555 139.798 135.22 139.593 134.863 139.569C134.655 139.572 134.451 139.64 134.268 139.768C134.085 139.895 133.928 140.078 133.813 140.301C133.708 140.074 133.561 139.886 133.385 139.753C133.209 139.621 133.009 139.548 132.805 139.542C132.47 139.558 132.153 139.742 131.922 140.056C131.691 140.369 131.565 140.787 131.571 141.219C131.569 141.524 131.628 141.825 131.742 142.093C131.473 141.937 131.183 141.853 130.888 141.846C130.251 141.911 129.655 142.281 129.219 142.883C128.783 143.485 128.537 144.275 128.53 145.098C128.523 145.921 128.756 146.718 129.182 147.332C129.608 147.946 130.196 148.333 130.832 148.416L140.123 149.939C140.024 150.196 139.97 150.478 139.965 150.764C139.95 151.223 140.076 151.672 140.316 152.012C140.555 152.353 140.89 152.558 141.246 152.584C141.529 152.579 141.802 152.455 142.026 152.232C142.249 152.009 142.41 151.698 142.484 151.347C142.655 151.408 142.832 151.441 143.009 151.446C143.661 151.42 144.278 151.063 144.726 150.453C145.174 149.843 145.416 149.03 145.4 148.191C145.401 147.986 145.388 147.782 145.362 147.58C145.582 147.838 145.867 147.984 146.165 147.993C146.523 147.973 146.861 147.777 147.11 147.445C147.359 147.114 147.5 146.672 147.504 146.21C147.508 145.749 147.374 145.303 147.131 144.965C146.887 144.627 146.552 144.421 146.195 144.391H146.186Z" fill="#FF81AE" stroke="#263238" stroke-linecap="round" stroke-linejoin="round"/>
<path d="M137.058 164.538L127.302 163.465L127.246 145.799L139.44 147.141L137.058 164.538Z" fill="white" stroke="#263238" stroke-linecap="round" stroke-linejoin="round"/>
<path d="M132.916 147.108C134.046 147.108 134.961 145.928 134.961 144.474C134.961 143.019 134.046 141.84 132.916 141.84C131.787 141.84 130.871 143.019 130.871 144.474C130.871 145.928 131.787 147.108 132.916 147.108Z" fill="white" stroke="#263238" stroke-linecap="round" stroke-linejoin="round"/>
<path d="M133.578 144.474C133.579 144.643 133.541 144.808 133.469 144.949C133.396 145.09 133.293 145.2 133.172 145.265C133.052 145.33 132.918 145.348 132.79 145.316C132.661 145.284 132.543 145.203 132.45 145.084C132.357 144.965 132.293 144.813 132.267 144.648C132.242 144.482 132.254 144.311 132.304 144.154C132.354 143.998 132.439 143.865 132.548 143.771C132.657 143.677 132.785 143.627 132.916 143.627C133.003 143.626 133.089 143.648 133.169 143.69C133.249 143.732 133.322 143.794 133.384 143.873C133.445 143.952 133.494 144.045 133.528 144.149C133.561 144.252 133.578 144.362 133.578 144.474Z" fill="white" stroke="#263238" stroke-linecap="round" stroke-linejoin="round"/>
<path d="M139.722 140.878C139.722 141.399 139.602 141.908 139.377 142.341C139.153 142.774 138.833 143.112 138.459 143.311C138.086 143.51 137.674 143.562 137.278 143.461C136.881 143.359 136.517 143.108 136.231 142.74C135.945 142.372 135.75 141.902 135.671 141.392C135.592 140.881 135.632 140.351 135.787 139.87C135.942 139.389 136.204 138.977 136.541 138.688C136.877 138.398 137.272 138.244 137.677 138.244C138.219 138.244 138.739 138.521 139.123 139.015C139.506 139.509 139.722 140.179 139.722 140.878Z" fill="white" stroke="#263238" stroke-linecap="round" stroke-linejoin="round"/>
<path d="M138.339 140.878C138.339 141.046 138.3 141.211 138.227 141.351C138.154 141.492 138.051 141.601 137.93 141.665C137.809 141.73 137.676 141.747 137.548 141.714C137.419 141.681 137.302 141.6 137.209 141.481C137.116 141.361 137.053 141.209 137.028 141.044C137.002 140.879 137.015 140.707 137.066 140.552C137.116 140.396 137.2 140.263 137.309 140.169C137.418 140.076 137.546 140.026 137.677 140.026C137.764 140.025 137.85 140.046 137.931 140.089C138.011 140.132 138.085 140.194 138.146 140.274C138.208 140.353 138.256 140.447 138.29 140.551C138.323 140.655 138.339 140.766 138.339 140.878Z" fill="white" stroke="#263238" stroke-linecap="round" stroke-linejoin="round"/>
<path d="M142.424 145.09C142.425 145.611 142.306 146.121 142.081 146.555C141.857 146.989 141.538 147.327 141.164 147.527C140.79 147.727 140.378 147.78 139.981 147.679C139.584 147.577 139.219 147.326 138.933 146.957C138.647 146.589 138.452 146.119 138.373 145.608C138.294 145.096 138.335 144.566 138.49 144.085C138.646 143.603 138.909 143.192 139.246 142.903C139.583 142.614 139.979 142.46 140.383 142.461C140.925 142.461 141.444 142.738 141.827 143.231C142.209 143.724 142.424 144.393 142.424 145.09Z" fill="white" stroke="#263238" stroke-linecap="round" stroke-linejoin="round"/>
<path d="M141.041 145.09C141.042 145.259 141.004 145.424 140.931 145.565C140.859 145.706 140.756 145.816 140.635 145.881C140.513 145.947 140.38 145.964 140.251 145.931C140.122 145.899 140.004 145.817 139.911 145.698C139.819 145.578 139.755 145.426 139.73 145.26C139.705 145.094 139.718 144.922 139.769 144.766C139.819 144.611 139.905 144.478 140.014 144.384C140.124 144.291 140.252 144.242 140.384 144.243C140.558 144.243 140.725 144.332 140.849 144.491C140.972 144.65 141.041 144.865 141.041 145.09Z" fill="white" stroke="#263238" stroke-linecap="round" stroke-linejoin="round"/>
<path d="M143.991 141.428C143.991 141.949 143.871 142.458 143.647 142.891C143.422 143.324 143.103 143.662 142.729 143.861C142.355 144.06 141.944 144.112 141.547 144.011C141.151 143.909 140.786 143.658 140.5 143.29C140.214 142.922 140.019 142.452 139.94 141.941C139.862 141.431 139.902 140.901 140.057 140.42C140.212 139.939 140.474 139.527 140.81 139.238C141.146 138.948 141.542 138.794 141.946 138.794C142.215 138.794 142.481 138.862 142.729 138.994C142.977 139.127 143.203 139.321 143.392 139.565C143.582 139.81 143.733 140.1 143.836 140.42C143.939 140.739 143.991 141.082 143.991 141.428Z" fill="white" stroke="#263238" stroke-linecap="round" stroke-linejoin="round"/>
<path d="M142.608 141.428C142.608 141.596 142.569 141.761 142.497 141.901C142.424 142.041 142.321 142.151 142.2 142.215C142.079 142.28 141.946 142.297 141.817 142.264C141.689 142.231 141.571 142.15 141.479 142.03C141.386 141.911 141.323 141.759 141.297 141.594C141.272 141.429 141.285 141.257 141.335 141.102C141.385 140.946 141.47 140.813 141.579 140.719C141.688 140.626 141.816 140.576 141.946 140.576C142.034 140.575 142.12 140.596 142.2 140.639C142.281 140.682 142.354 140.744 142.416 140.824C142.477 140.903 142.526 140.997 142.559 141.101C142.592 141.205 142.609 141.316 142.608 141.428Z" fill="white" stroke="#263238" stroke-linecap="round" stroke-linejoin="round"/>
<path d="M135.777 139.228C135.777 139.749 135.657 140.259 135.432 140.692C135.207 141.125 134.888 141.462 134.514 141.662C134.14 141.861 133.729 141.913 133.332 141.812C132.936 141.71 132.571 141.459 132.285 141.091C131.999 140.722 131.804 140.253 131.726 139.742C131.647 139.231 131.687 138.702 131.842 138.221C131.997 137.739 132.259 137.328 132.595 137.039C132.932 136.749 133.327 136.595 133.731 136.595C134 136.594 134.266 136.662 134.515 136.794C134.763 136.926 134.989 137.12 135.179 137.365C135.369 137.609 135.519 137.9 135.622 138.22C135.725 138.54 135.777 138.882 135.777 139.228Z" fill="white" stroke="#263238" stroke-linecap="round" stroke-linejoin="round"/>
<path d="M134.393 139.228C134.393 139.397 134.355 139.562 134.282 139.702C134.209 139.842 134.106 139.951 133.985 140.016C133.864 140.08 133.731 140.097 133.603 140.064C133.474 140.031 133.356 139.95 133.264 139.831C133.171 139.712 133.108 139.56 133.083 139.395C133.057 139.229 133.07 139.058 133.12 138.902C133.17 138.746 133.255 138.613 133.364 138.52C133.473 138.426 133.601 138.376 133.732 138.376C133.819 138.375 133.905 138.397 133.986 138.439C134.066 138.482 134.139 138.545 134.201 138.624C134.262 138.703 134.311 138.798 134.344 138.901C134.377 139.005 134.394 139.116 134.393 139.228Z" fill="white" stroke="#263238" stroke-linecap="round" stroke-linejoin="round"/>
<path d="M93.0377 74.7378C91.6342 75.8892 90.4636 77.454 89.6224 79.303C88.7813 81.152 88.2938 83.2321 88.2002 85.3717C87.7732 92.8825 86.9534 99.6675 83.6444 101.498C75.3912 106.079 69.1276 102.241 67.8468 103.879C66.5659 105.518 67.2789 108.465 67.2789 108.465C67.2789 108.465 63.2953 107.728 62.0144 105.347C59.9821 101.57 59.8796 96 64.7171 91.4199C69.5546 86.8397 74.2512 87.2026 74.2512 87.2026C74.2512 87.2026 74.5373 87.7525 77.24 83.7222C79.9427 79.6918 87.4871 76.2059 88.9132 75.656C90.27 75.2286 91.6481 74.9218 93.0377 74.7378Z" fill="#263238" stroke="#263238" stroke-linecap="round" stroke-linejoin="round"/>
<path d="M74.2515 87.2028L99.3015 71.8073C99.3015 71.8073 93.4649 69.2396 92.6109 68.1399C91.757 67.0402 90.3352 63.5597 89.7674 63.3783C89.1995 63.1968 75.2506 70.3392 74.5375 71.4389C73.8245 72.5386 74.6784 80.7862 74.8236 82.6226C74.9688 84.4591 74.2515 87.2028 74.2515 87.2028Z" fill="white" stroke="#263238" stroke-linecap="round" stroke-linejoin="round"/>
<path d="M85.7666 72.2086C86.3561 71.879 86.959 71.5908 87.5727 71.3453" stroke="#263238" stroke-linecap="round" stroke-linejoin="round"/>
<path d="M74.9431 79.802C74.9431 79.802 79.5244 76.1016 83.6105 73.5009" stroke="#263238" stroke-linecap="round" stroke-linejoin="round"/>
<path d="M74.2512 87.2027C74.2512 87.2027 73.6833 83.9036 73.6833 83.3538C73.6833 82.8039 79.9469 79.8733 82.2226 79.3235C84.4984 78.7736 89.6219 77.674 89.6219 77.674L74.2512 87.2027Z" fill="white" stroke="#263238" stroke-linecap="round" stroke-linejoin="round"/>
<path d="M88.3413 109.9C88.3413 109.9 87.2312 106.64 85.2117 106.051C80.8011 104.77 79.0933 108.437 79.6611 113.567C80.229 118.697 91.0483 130.612 93.324 131.712C95.5997 132.812 113.818 136.842 113.818 136.842L114.531 137.76L116.239 138.86C116.239 138.86 115.953 141.241 117.093 141.059C118.233 140.878 121.645 142.341 122.071 140.878C122.498 139.415 122.217 136.661 121.218 136.111C120.218 135.561 112.823 133.543 110.116 131.894C107.41 130.244 95.5997 123.646 95.5997 123.646L88.3413 109.9Z" fill="white" stroke="#263238" stroke-linecap="round" stroke-linejoin="round"/>
<path d="M117.869 137.843L117.784 140.955" stroke="#263238" stroke-linecap="round" stroke-linejoin="round"/>
<path d="M118.907 141.071L119.253 137.398" stroke="#263238" stroke-linecap="round" stroke-linejoin="round"/>
<path d="M120.462 141.29L120.722 137.617" stroke="#263238" stroke-linecap="round" stroke-linejoin="round"/>
<path d="M277.956 236H283.507" stroke="#263238" stroke-linecap="round" stroke-linejoin="round"/>
<path d="M46.9683 236H273.259" stroke="#263238" stroke-linecap="round" stroke-linejoin="round"/>
<path d="M10.6765 236H39.7101" stroke="#263238" stroke-linecap="round" stroke-linejoin="round"/>
</svg>
