<svg width="235" height="235" viewBox="0 0 235 235" fill="none" xmlns="http://www.w3.org/2000/svg">
<path d="M138.679 13.0364C138.685 12.4036 138.476 11.7877 138.087 11.291C137.699 10.7943 137.153 10.4465 136.541 10.3054C135.929 10.1643 135.288 10.2384 134.723 10.5153C134.159 10.7922 133.705 11.2554 133.438 11.8279C133.168 11.2579 132.713 10.7976 132.149 10.5226C131.585 10.2477 130.945 10.1745 130.334 10.3152C129.723 10.4558 129.178 10.8019 128.788 11.2965C128.398 11.7911 128.187 12.4047 128.189 13.0364C128.189 14.7883 130.14 16.4472 131.487 17.3268C132.236 17.798 132.931 18.352 133.558 18.9786C134.16 18.2227 134.899 17.5893 135.736 17.1122C137.083 16.4043 138.679 14.6596 138.679 13.0364Z" fill="#FF81AE"/>
<path opacity="0.4" d="M138.679 13.0364C138.685 12.4036 138.476 11.7877 138.087 11.291C137.699 10.7943 137.153 10.4465 136.541 10.3054C135.929 10.1643 135.288 10.2384 134.723 10.5153C134.159 10.7922 133.705 11.2554 133.438 11.8279C133.168 11.2579 132.713 10.7976 132.149 10.5226C131.585 10.2477 130.945 10.1745 130.334 10.3152C129.723 10.4558 129.178 10.8019 128.788 11.2965C128.398 11.7911 128.187 12.4047 128.189 13.0364C128.189 14.7883 130.14 16.4472 131.487 17.3268C132.236 17.798 132.931 18.352 133.558 18.9786C134.16 18.2227 134.899 17.5893 135.736 17.1122C137.083 16.4043 138.679 14.6596 138.679 13.0364Z" fill="white"/>
<path d="M121.841 1.55243C121.843 1.2013 121.726 0.860034 121.509 0.584895C121.293 0.309757 120.99 0.117167 120.65 0.0388795C120.311 -0.0394083 119.955 0.00127528 119.641 0.154226C119.328 0.307176 119.075 0.563263 118.926 0.880268C118.776 0.563263 118.523 0.307176 118.21 0.154226C117.896 0.00127528 117.541 -0.0394083 117.201 0.0388795C116.861 0.117167 116.559 0.309757 116.342 0.584895C116.126 0.860034 116.009 1.2013 116.011 1.55243C116.011 2.52492 117.096 3.44736 117.84 3.94075C118.258 4.20509 118.646 4.51439 118.997 4.86319C119.33 4.44194 119.739 4.08776 120.202 3.81919C120.636 3.60134 121.011 3.28171 121.296 2.88723C121.581 2.49275 121.768 2.03496 121.841 1.55243Z" fill="#FF81AE"/>
<path opacity="0.4" d="M121.841 1.55243C121.843 1.2013 121.726 0.860034 121.509 0.584895C121.293 0.309757 120.99 0.117167 120.65 0.0388795C120.311 -0.0394083 119.955 0.00127528 119.641 0.154226C119.328 0.307176 119.075 0.563263 118.926 0.880268C118.776 0.563263 118.523 0.307176 118.21 0.154226C117.896 0.00127528 117.541 -0.0394083 117.201 0.0388795C116.861 0.117167 116.559 0.309757 116.342 0.584895C116.126 0.860034 116.009 1.2013 116.011 1.55243C116.011 2.52492 117.096 3.44736 117.84 3.94075C118.258 4.20509 118.646 4.51439 118.997 4.86319C119.33 4.44194 119.739 4.08776 120.202 3.81919C120.636 3.60134 121.011 3.28171 121.296 2.88723C121.581 2.49275 121.768 2.03496 121.841 1.55243Z" fill="white"/>
<path d="M109.435 10.7482C109.433 10.3982 109.314 10.059 109.097 9.78594C108.88 9.51285 108.577 9.32185 108.239 9.24398C107.9 9.16611 107.545 9.20594 107.232 9.357C106.919 9.50807 106.665 9.76148 106.513 10.0761C106.363 9.75906 106.111 9.50298 105.797 9.35003C105.484 9.19708 105.128 9.15639 104.788 9.23468C104.449 9.31297 104.146 9.50555 103.929 9.78069C103.713 10.0558 103.596 10.3971 103.598 10.7482C103.598 11.7279 104.683 12.6503 105.435 13.1437C105.852 13.403 106.237 13.7101 106.584 14.059C106.92 13.6396 107.332 13.2879 107.797 13.0221C108.23 12.8026 108.605 12.4816 108.89 12.086C109.175 11.6904 109.362 11.2317 109.435 10.7482Z" fill="#FF81AE"/>
<path opacity="0.4" d="M109.435 10.7482C109.433 10.3982 109.314 10.059 109.097 9.78594C108.88 9.51285 108.577 9.32185 108.239 9.24398C107.9 9.16611 107.545 9.20594 107.232 9.357C106.919 9.50807 106.665 9.76148 106.513 10.0761C106.363 9.75906 106.111 9.50298 105.797 9.35003C105.484 9.19708 105.128 9.15639 104.788 9.23468C104.449 9.31297 104.146 9.50555 103.929 9.78069C103.713 10.0558 103.596 10.3971 103.598 10.7482C103.598 11.7279 104.683 12.6503 105.435 13.1437C105.852 13.403 106.237 13.7101 106.584 14.059C106.92 13.6396 107.332 13.2879 107.797 13.0221C108.23 12.8026 108.605 12.4816 108.89 12.086C109.175 11.6904 109.362 11.2317 109.435 10.7482Z" fill="white"/>
<path d="M115.067 235C164.628 235 204.806 230.617 204.806 225.211C204.806 219.804 164.628 215.422 115.067 215.422C65.506 215.422 25.3286 219.804 25.3286 225.211C25.3286 230.617 65.506 235 115.067 235Z" fill="#FF81AE"/>
<path opacity="0.5" d="M115.067 235C164.628 235 204.806 230.617 204.806 225.211C204.806 219.804 164.628 215.422 115.067 215.422C65.506 215.422 25.3286 219.804 25.3286 225.211C25.3286 230.617 65.506 235 115.067 235Z" fill="white"/>
<path d="M35.6911 211.353H61.1757C60.6863 208.214 58.679 208.764 58.4166 203.895C58.2818 201.442 60.5444 198.41 60.3387 195.185C60.1756 192.532 57.5796 189.808 57.381 186.776C57.1966 184.037 59.4167 180.998 59.1968 178.045C58.9982 175.249 56.3597 172.575 56.1327 169.672C55.9057 166.768 58.0761 163.772 57.8208 160.912C57.5654 158.052 54.8843 155.42 54.6006 152.596C54.3169 149.771 56.4093 146.575 56.0901 143.801C55.7497 140.855 52.9906 138.309 52.6146 135.599C52.1962 132.574 54.1538 129.349 53.6928 126.739C53.1324 123.543 50.1818 121.226 49.5647 118.873C48.4086 114.476 48.5504 110.243 47.1815 109.964C45.8126 109.685 45.3941 113.825 44.2876 118.466C43.7344 120.797 40.8476 123.157 40.3724 126.331C39.9894 128.927 42.0321 132.052 41.6917 135.084C41.3938 137.78 38.7056 140.368 38.4431 143.3C38.202 146.053 40.3795 149.092 40.1667 151.974C39.9539 154.855 37.3296 157.444 37.1735 160.29C37.0175 163.136 39.2375 166.118 39.0886 168.921C38.9396 171.724 36.3649 174.52 36.2515 177.287C36.1096 180.219 38.3793 183.172 38.2942 185.868C38.1736 188.878 35.6415 191.638 35.5493 194.27C35.4429 197.466 37.7693 200.42 37.6771 202.851C37.5211 208.128 35.1166 207.034 35.0315 211.289L35.6911 211.353Z" fill="#FF81AE"/>
<path d="M46.6282 118.409V210.166" stroke="#263238" stroke-width="0.75" stroke-miterlimit="10"/>
<path d="M50.6073 128.026L46.458 131.644L43.0605 127.082" stroke="#263238" stroke-width="0.75" stroke-miterlimit="10"/>
<path d="M50.6073 144.001L46.458 147.612L43.0605 143.05" stroke="#263238" stroke-width="0.75" stroke-miterlimit="10"/>
<path d="M50.6073 159.024L46.458 162.635L43.0605 158.073" stroke="#263238" stroke-width="0.75" stroke-miterlimit="10"/>
<path d="M50.6073 176.894L46.458 180.505L43.0605 175.943" stroke="#263238" stroke-width="0.75" stroke-miterlimit="10"/>
<path d="M50.6073 194.956L46.458 198.567L43.0605 194.005" stroke="#263238" stroke-width="0.75" stroke-miterlimit="10"/>
<path d="M18.3278 211.353H38.0033C37.6203 208.929 36.0741 209.358 35.8755 205.597C35.7691 203.702 37.5068 201.363 37.3579 198.875C37.2302 196.823 35.23 194.728 35.074 192.382C34.9321 190.237 36.6415 187.92 36.4926 185.639C36.3365 183.494 34.3009 181.42 34.1235 179.204C33.9462 176.987 35.6201 174.649 35.4286 172.439C35.2371 170.229 33.1589 168.199 32.939 166.003C32.7192 163.808 34.3576 161.356 34.0881 159.21C33.8257 156.936 31.6978 154.97 31.407 152.875C31.0878 150.544 32.5986 148.055 32.2439 146.039C31.8113 143.572 29.5345 141.784 29.0522 139.968C28.1585 136.571 28.272 133.303 27.2151 133.089C26.1583 132.874 25.7966 136.071 24.9809 139.653C24.5553 141.448 22.3282 143.272 21.9593 145.746C21.6614 147.741 23.236 150.172 22.9807 152.496C22.7466 154.577 20.6755 156.579 20.4698 158.838C20.2854 160.984 21.9664 163.308 21.8033 165.531C21.6402 167.755 19.6258 169.758 19.4839 171.967C19.3421 174.177 21.0869 176.465 20.9663 178.632C20.8458 180.798 18.8385 182.922 18.7676 185.067C18.6612 187.327 20.4273 189.608 20.3422 191.71C20.25 194.034 18.2994 196.165 18.2143 198.196C18.1292 200.663 19.9237 202.937 19.8669 204.817C19.7464 208.893 17.8951 208.049 17.8313 211.324L18.3278 211.353Z" fill="#FF81AE"/>
<path d="M26.7754 139.61V210.438" stroke="#263238" stroke-width="0.75" stroke-miterlimit="10"/>
<path d="M29.8467 147.033L26.6407 149.821L24.0234 146.303" stroke="#263238" stroke-width="0.75" stroke-miterlimit="10"/>
<path d="M29.8467 159.36L26.6407 162.149L24.0234 158.631" stroke="#263238" stroke-width="0.75" stroke-miterlimit="10"/>
<path d="M29.8467 170.959L26.6407 173.748L24.0234 170.222" stroke="#263238" stroke-width="0.75" stroke-miterlimit="10"/>
<path d="M29.8467 184.752L26.6407 187.541L24.0234 184.023" stroke="#263238" stroke-width="0.75" stroke-miterlimit="10"/>
<path d="M29.8467 198.696L26.6407 201.485L24.0234 197.96" stroke="#263238" stroke-width="0.75" stroke-miterlimit="10"/>
<path d="M184.272 211.353H208.955C208.48 208.307 206.543 208.843 206.281 204.131C206.153 201.757 208.338 198.811 208.146 195.693C207.99 193.126 205.48 190.487 205.309 187.548C205.132 184.895 207.281 181.949 207.068 179.089C206.877 176.386 204.323 173.79 204.103 170.98C203.884 168.17 205.983 165.26 205.735 162.492C205.487 159.725 202.898 157.172 202.621 154.441C202.344 151.709 204.366 148.613 204.04 145.924C203.713 143.064 201.039 140.604 200.678 137.98C200.273 135.048 202.167 131.923 201.727 129.399C201.181 126.303 198.323 124.065 197.727 121.784C196.606 117.529 196.741 113.425 195.422 113.16C194.103 112.895 193.684 116.893 192.585 121.39C192.046 123.643 189.251 125.931 188.79 129.034C188.421 131.537 190.4 134.591 190.074 137.508C189.783 140.118 187.18 142.628 186.925 145.467C186.691 148.134 188.804 151.073 188.591 153.869C188.379 156.665 185.868 159.167 185.69 161.92C185.513 164.673 187.698 167.562 187.549 170.287C187.4 173.011 184.917 175.707 184.79 178.388C184.655 181.249 186.875 184.109 186.769 186.719C186.648 189.636 184.201 192.311 184.109 194.856C184.002 197.953 186.237 200.813 186.187 203.165C186.038 208.278 183.712 207.22 183.626 211.339L184.272 211.353Z" fill="#FF81AE"/>
<path d="M194.869 121.333V210.202" stroke="#263238" stroke-width="0.75" stroke-miterlimit="10"/>
<path d="M198.72 130.651L194.706 134.147L191.415 129.728" stroke="#263238" stroke-width="0.75" stroke-miterlimit="10"/>
<path d="M198.72 146.117L194.706 149.614L191.415 145.195" stroke="#263238" stroke-width="0.75" stroke-miterlimit="10"/>
<path d="M198.72 160.662L194.706 164.166L191.415 159.746" stroke="#263238" stroke-width="0.75" stroke-miterlimit="10"/>
<path d="M198.72 177.974L194.706 181.477L191.415 177.058" stroke="#263238" stroke-width="0.75" stroke-miterlimit="10"/>
<path d="M198.72 195.471L194.706 198.968L191.415 194.549" stroke="#263238" stroke-width="0.75" stroke-miterlimit="10"/>
<path d="M167.441 211.353H186.499C186.13 209 184.634 209.415 184.435 205.775C184.336 203.945 186.017 201.671 185.854 199.268C185.733 197.28 183.79 195.25 183.641 192.976C183.506 190.931 185.159 188.685 185.003 186.447C184.846 184.359 182.875 182.357 182.704 180.19C182.534 178.024 184.158 175.778 183.967 173.64C183.775 171.502 181.775 169.536 181.562 167.426C181.35 165.317 182.91 162.921 182.669 160.848C182.421 158.645 180.357 156.743 180.08 154.713C179.768 152.453 181.222 150.043 180.882 148.091C180.463 145.696 178.257 143.972 177.796 142.206C176.931 138.924 177.037 135.77 176.016 135.549C174.995 135.327 174.675 138.409 173.853 141.906C173.434 143.643 171.278 145.409 170.923 147.805C170.632 149.743 172.164 152.095 171.909 154.348C171.689 156.357 169.675 158.295 169.483 160.49C169.299 162.55 170.902 164.781 170.767 166.976C170.632 169.171 168.639 171.066 168.526 173.19C168.412 175.314 170.072 177.545 169.944 179.625C169.817 181.706 167.916 183.809 167.817 185.882C167.71 188.07 169.427 190.28 169.342 192.318C169.249 194.57 167.363 196.608 167.292 198.603C167.207 200.992 168.951 203.194 168.895 205.039C168.781 208.993 166.987 208.171 166.923 211.353H167.441Z" fill="#FF81AE"/>
<path d="M175.633 141.863V210.466" stroke="#263238" stroke-width="0.75" stroke-miterlimit="10"/>
<path d="M178.612 149.056L175.505 151.752L172.973 148.341" stroke="#263238" stroke-width="0.75" stroke-miterlimit="10"/>
<path d="M178.612 160.998L175.505 163.694L172.973 160.283" stroke="#263238" stroke-width="0.75" stroke-miterlimit="10"/>
<path d="M178.612 172.225L175.505 174.927L172.973 171.517" stroke="#263238" stroke-width="0.75" stroke-miterlimit="10"/>
<path d="M178.612 185.589L175.505 188.292L172.973 184.881" stroke="#263238" stroke-width="0.75" stroke-miterlimit="10"/>
<path d="M178.612 199.097L175.505 201.792L172.973 198.381" stroke="#263238" stroke-width="0.75" stroke-miterlimit="10"/>
<path d="M98.6401 112.688C98.6401 112.688 99.5267 125.38 100.059 131.101C100.591 136.821 101.3 141.827 101.477 145.402C101.573 149.881 100.535 154.311 98.4628 158.273C96.1576 162.743 94.739 168.999 95.803 174.541C96.8669 180.083 97.2215 187.055 96.5123 189.379C95.803 191.703 90.4833 195.278 91.1926 197.96C91.9019 200.641 94.739 200.641 96.1576 203.859C97.5762 207.077 103.073 212.082 104.492 211.01C105.91 209.937 103.605 206.362 102.718 201.892C101.832 197.423 101.655 188.306 102.364 184.91C103.073 181.513 108.747 160.24 109.811 156.486C110.875 152.732 114.422 145.045 114.776 132.531C115.131 120.017 115.131 113.224 115.131 113.224L98.6401 112.688Z" fill="white" stroke="#263238" stroke-linecap="round" stroke-linejoin="round"/>
<path d="M129.054 30.813C129.662 30.6842 130.219 30.3805 130.658 29.9388C131.097 29.4971 131.4 28.9363 131.53 28.3245C131.849 26.2652 129.7 20.7377 126.565 17.3769C123.43 14.0161 116.457 13.5799 111.081 16.0755C105.705 18.571 105.059 22.4682 103.13 26.1579C101.201 29.8476 92.7532 59.3942 89.2068 65.4865C85.6604 71.5789 75.0211 81.0607 78.5675 91.7652C81.4047 100.346 88.1641 101.061 92.8951 101.061C97.626 101.061 100.421 95.9626 101.818 92.609C103.215 89.2553 106.116 78.1932 106.116 72.773C106.116 67.3528 107.081 56.4052 109.45 51.7501C111.819 47.095 118.373 35.3822 119.77 33.8734C121.167 32.3647 127.402 29.533 127.402 29.533L129.054 30.813Z" fill="#FF81AE" stroke="#263238" stroke-linecap="round" stroke-linejoin="round"/>
<path d="M117.337 32.9796C117.337 32.9796 103.151 39.1149 96.5621 51.4641C89.9728 63.8133 83.0857 91.5435 83.9084 98.83" stroke="#263238" stroke-linecap="round" stroke-linejoin="round"/>
<path d="M104.591 41.5461C104.591 41.5461 86.5184 77.1707 90.3344 100.646" stroke="#263238" stroke-linecap="round" stroke-linejoin="round"/>
<path d="M97.3635 43.1478C99.9897 38.2242 104.153 34.311 109.209 32.0142C117.841 27.9669 127.281 24.9279 127.281 20.6804" stroke="#263238" stroke-linecap="round" stroke-linejoin="round"/>
<path d="M112.712 41.5461L109.166 48.1534L117.337 49.2403L119.167 44.2562L112.712 41.5461Z" fill="white" stroke="#263238" stroke-linecap="round" stroke-linejoin="round"/>
<path d="M128.515 25.9362C128.515 25.9362 129.487 29.4042 129.161 31.5709C128.835 33.7375 128.409 35.3679 128.515 36.0186C128.622 36.6693 129.806 37.5345 129.055 38.1638C128.5 38.6094 127.886 38.9752 127.232 39.2507C127.232 39.2507 125.402 43.0405 124.437 44.5565C123.935 45.2893 123.258 45.8825 122.468 46.2812C121.678 46.68 120.802 46.8713 119.919 46.8375C118.089 46.8375 112.713 41.5246 112.713 41.5246L117.337 32.9438C117.337 32.9438 126.26 29.0824 128.515 25.9362Z" fill="white" stroke="#263238" stroke-linecap="round" stroke-linejoin="round"/>
<path d="M127.011 34.0665L126.799 35.5825C126.536 35.6171 126.269 35.5855 126.022 35.4907C125.774 35.3959 125.554 35.2407 125.38 35.039" stroke="#263238" stroke-linecap="round" stroke-linejoin="round"/>
<path d="M124.323 40.5664C123.887 40.4608 123.478 40.261 123.125 39.9807C122.773 39.7005 122.484 39.3466 122.281 38.9432" stroke="#263238" stroke-linecap="round" stroke-linejoin="round"/>
<path d="M125.189 32.5505C125.189 32.5505 126.153 30.8129 127.231 31.4636" stroke="#263238" stroke-linecap="round" stroke-linejoin="round"/>
<path d="M103.151 67.6675C103.151 67.6675 100.03 68.7472 97.5549 73.388C95.0795 78.0288 99.0656 80.2169 101.747 79.2373C104.428 78.2576 108.953 70.2632 103.151 67.6675Z" fill="white" stroke="#263238" stroke-linecap="round" stroke-linejoin="round"/>
<path d="M97.7606 112.388C97.7606 112.388 98.8813 123.986 100.669 131.308C101.681 135.535 102.978 139.687 104.548 143.736C104.548 143.736 94.8596 140.161 86.0361 138.859C78.8936 137.801 67.5947 132.553 66.3677 132.324C65.1406 132.095 63.4667 126.353 62.4595 125.681C61.4524 125.009 57.0973 125.116 53.1892 126.131C49.281 127.147 44.3586 128.041 42.9046 129.056C41.4505 130.071 42.1244 130.972 43.6139 131.201C47.0135 131.73 50.344 132.639 53.5438 133.911C57.5655 135.599 70.8575 140.44 73.5385 141.57C76.2196 142.699 92.7601 150.579 97.7819 152.946C102.804 155.313 109.96 159.475 113.088 158.91C116.216 158.345 117.897 152.474 117.67 149.45C117.443 146.425 116.776 114.983 116.89 113.975C117.003 112.967 97.7606 112.388 97.7606 112.388Z" fill="white" stroke="#263238" stroke-linecap="round" stroke-linejoin="round"/>
<path d="M104.549 143.736C104.549 143.736 108.095 144.687 109.045 148.027" stroke="#263238" stroke-linecap="round" stroke-linejoin="round"/>
<path d="M104.974 48.8039C104.974 48.8039 102.073 54.3314 102.392 59.9661C102.712 65.6008 103.364 76.334 102.612 80.3455C101.861 84.357 99.3851 89.1265 98.846 90.2062C98.307 91.286 93.8811 94.8685 93.6896 100.181C93.498 105.494 96.1579 111.558 96.1579 111.558V114.054C99.3695 115.013 102.703 115.495 106.052 115.484C109.516 115.473 112.971 115.138 116.372 114.483L120.132 89.341L122.047 73.7311C122.047 73.7311 126.239 63.3269 125.7 59.7516C125.16 56.1762 123.125 50.756 120.025 48.8039C116.926 46.8518 108.634 44.2561 104.974 48.8039Z" fill="white" stroke="#263238" stroke-linecap="round" stroke-linejoin="round"/>
<path d="M104.974 48.804C104.974 48.804 102.073 54.3315 102.392 59.9662C102.534 62.4332 102.74 65.8655 102.86 69.262C107.258 68.1036 112.592 65.608 113.719 60.2522C114.598 55.5884 114.193 50.7711 112.549 46.3227C109.684 46.0653 106.768 46.573 104.974 48.804Z" fill="white" stroke="#263238" stroke-linecap="round" stroke-linejoin="round"/>
<path d="M106.052 115.463C109.515 115.459 112.97 115.131 116.372 114.483L119.408 94.2108C108.769 95.8054 101.676 91.515 99.1581 89.5771C99.0305 89.8489 98.917 90.0634 98.846 90.2064C98.307 91.2933 93.8811 94.8686 93.6896 100.182C93.498 105.495 96.1579 111.558 96.1579 111.558V114.054C99.3706 115.006 102.704 115.48 106.052 115.463Z" fill="#263238" stroke="#263238" stroke-linecap="round" stroke-linejoin="round"/>
<path d="M150.773 48.046C151.585 48.0699 152.382 48.2745 153.107 48.6454C153.832 49.0163 154.466 49.5442 154.965 50.1912C156.468 52.3364 156.383 55.9117 154.106 56.6983C151.83 57.4849 150.127 57.5636 147.872 55.3969C145.616 53.2303 147.162 49.2831 148.404 48.568C149.12 48.1502 149.948 47.9678 150.773 48.046Z" fill="white" stroke="#263238" stroke-linecap="round" stroke-linejoin="round"/>
<path d="M141.417 28.6463C141.417 28.6463 139.594 26.2651 140.772 24.6348C141.949 23.0044 146.687 21.2811 149.162 21.9318C151.638 22.5825 157.865 28.3245 159.369 34.281C160.873 40.2375 157.759 42.7402 154.964 44.1489C152.452 45.4172 149.868 46.5369 147.226 47.5026C146.9 47.5026 143.68 45.5576 142.602 43.3909C141.523 41.2243 141.098 37.4273 141.743 36.7766C142.389 36.1259 143.999 35.2606 143.162 33.852C142.325 32.4433 141.034 31.4636 141.545 30.4911C141.695 30.2018 141.762 29.8762 141.739 29.5505C141.717 29.2249 141.605 28.9119 141.417 28.6463Z" fill="#263238" stroke="#263238" stroke-linecap="round" stroke-linejoin="round"/>
<path d="M128.075 201.413C128.075 201.413 126.068 214.049 125.118 215.357C124.167 216.666 114.72 219.533 113.06 220.363C111.4 221.192 111.641 222.751 113.415 222.865C115.188 222.98 125.827 223.466 128.905 223.466C131.984 223.466 136.232 224.896 137.176 223.938C138.119 222.98 136.587 217.624 136.232 212.976C136.076 209.159 136.194 205.335 136.587 201.535L128.075 201.413Z" fill="white" stroke="#263238" stroke-linecap="round" stroke-linejoin="round"/>
<path d="M126.891 216.909C126.734 216.529 126.497 216.189 126.197 215.91C125.897 215.631 125.541 215.42 125.153 215.293C125.146 215.316 125.134 215.338 125.118 215.357C124.174 216.673 114.72 219.533 113.06 220.363C111.4 221.192 111.641 222.751 113.415 222.865C115.188 222.98 125.827 223.466 128.905 223.466C131.984 223.466 136.232 224.896 137.176 223.938C137.75 223.359 137.41 221.156 136.977 218.475C135.154 218.99 133.211 219.648 131.856 219.648C128.664 219.648 127.955 219.054 126.891 216.909Z" fill="#263238" stroke="#263238" stroke-linecap="round" stroke-linejoin="round"/>
<path d="M112.152 221.114C111.634 221.907 112.102 222.78 113.414 222.865C115.188 222.987 125.827 223.466 128.905 223.466C131.983 223.466 136.232 224.896 137.175 223.938C137.439 223.525 137.545 223.029 137.473 222.544C133.154 222.544 126.323 222.351 121.571 222.272C118.396 222.284 115.231 221.894 112.152 221.114Z" fill="white" stroke="#263238" stroke-linecap="round" stroke-linejoin="round"/>
<path d="M120.671 153.39C120.671 153.39 123.572 166.726 124.756 171.381C125.941 176.036 126.884 193.276 127.231 198.26C127.579 203.244 126.905 213.326 126.48 214.842C126.054 216.358 118.309 221.128 115.727 222.215C113.145 223.302 111.315 224.167 111.535 225.354C111.755 226.541 120.351 228.393 125.508 228.171C130.664 227.95 133.572 226.333 136.041 226.112C138.509 225.89 139.374 225.139 139.374 222.107C139.374 219.076 137.119 217.102 136.906 209.751C136.789 203.201 137.076 196.651 137.764 190.137C138.197 186.018 140.346 182.114 138.083 173.983C135.821 165.853 133.998 164.337 133.785 161.827C133.572 159.317 132.821 152.074 132.821 152.074L120.671 153.39Z" fill="white" stroke="#263238" stroke-linecap="round" stroke-linejoin="round"/>
<path d="M116.585 115.892C116.585 115.892 115.94 131.823 116.372 137.894C116.805 143.965 119.167 152.31 119.167 152.31C119.167 152.31 126.799 153.068 130.884 151.874C134.97 150.68 136.041 149.6 136.041 149.6L135.828 127.49C135.828 127.49 139.481 122.613 140.878 119.145C141.716 117.125 142.085 114.938 141.956 112.752C139.698 109.139 136.396 106.309 132.494 104.644C126.047 101.912 119.167 109.177 116.585 115.892Z" fill="#263238" stroke="#263238" stroke-linecap="round" stroke-linejoin="round"/>
<path d="M126.26 114.59C126.26 114.59 124.323 129.335 124.969 139.196" stroke="white" stroke-linecap="round" stroke-linejoin="round"/>
<path d="M117.337 109.063L116.046 118.358L130.778 110.772L147.006 119.224C147.006 119.224 143.354 107.74 143.034 106.867C142.715 105.995 139.07 100.503 133.395 100.289C127.721 100.074 117.337 109.063 117.337 109.063Z" fill="white" stroke="#263238" stroke-linecap="round" stroke-linejoin="round"/>
<path d="M128.303 58.2358C128.303 58.2358 104.116 69.6125 100.676 72.7588C97.236 75.9051 95.1933 82.1905 96.5905 84.3571C97.9878 86.5238 100.243 85.9803 103.577 85.2224C106.911 84.4644 115.082 79.6949 118.522 78.608C121.962 77.5211 120.777 77.6355 120.777 77.6355C120.777 77.6355 117.663 101.154 117.337 107.439C117.011 113.725 116.912 112.531 116.912 112.531C116.912 112.531 128.43 104.644 131.849 104.079C135.268 103.514 145.077 111.015 145.077 111.015C145.077 111.015 143.893 104.944 143.141 101.369C142.665 99.0871 142.413 96.7638 142.389 94.4324C142.389 94.1106 148.624 76.9848 148.624 76.9848C148.624 76.9848 148.191 83.0557 149.801 82.5123C151.411 81.9688 157.759 68.7472 158.085 65.8226C158.412 62.898 149.574 56.3909 149.574 56.3909C149.354 56.0194 149.059 55.6996 148.706 55.453C148.354 55.2063 147.953 55.0385 147.531 54.9608C146.162 54.7677 129.92 57.0416 128.303 58.2358Z" fill="#FF81AE" stroke="#263238" stroke-linecap="round" stroke-linejoin="round"/>
<path d="M148.624 76.9846C148.624 76.9846 147.872 64.7356 146.042 59.9661" stroke="#263238" stroke-linecap="round" stroke-linejoin="round"/>
<path d="M120.777 77.6355L142.389 69.6124" stroke="#263238" stroke-linecap="round" stroke-linejoin="round"/>
<path d="M130.345 74.3818C131.778 76.7474 133.775 78.714 136.154 80.1024" stroke="#263238" stroke-linecap="round" stroke-linejoin="round"/>
<path d="M129.487 74.6107C129.487 74.6107 134.112 92.1656 138.949 96.0627" stroke="#263238" stroke-linecap="round" stroke-linejoin="round"/>
<path d="M128.196 75.0327C128.196 75.0327 129.274 88.3616 131.742 93.6745" stroke="#263238" stroke-linecap="round" stroke-linejoin="round"/>
<path d="M143.566 26.8086C143.566 26.8086 137.977 29.626 137.012 30.813C136.048 32 135.722 33.3086 134.324 34.281C132.927 35.2535 130.991 35.4752 131.423 36.2332C131.995 37.0123 132.644 37.7311 133.36 38.3784C133.36 38.3784 131.941 42.9333 131.232 44.6638C130.523 46.3943 130.7 47.8101 131.877 48.0246C133.055 48.2391 138.332 48.0246 138.332 48.0246L137.041 55.9404L146.794 53.1588L147.581 46.7232L144.432 42.4328C144.432 42.4328 147.758 41.5676 148.404 40.0516C148.555 39.7811 148.626 39.4726 148.608 39.1627C148.59 38.8528 148.485 38.5545 148.304 38.3031C148.124 38.0517 147.875 37.8578 147.589 37.7444C147.302 37.631 146.989 37.6029 146.687 37.6633C145.503 37.885 143.034 39.2936 143.034 38.9647C143.034 38.6358 145.29 35.6039 145.29 34.7387C145.29 33.8735 142.708 31.8141 143.353 31.3779C143.999 30.9417 147.12 30.0765 147.226 28.6678C147.333 27.2591 143.566 26.8086 143.566 26.8086Z" fill="white" stroke="#263238" stroke-linecap="round" stroke-linejoin="round"/>
<path d="M137.842 34.1594C137.629 34.6814 137.296 35.0461 137.133 34.9674C136.97 34.8888 136.963 34.3954 137.176 33.8662C137.388 33.3371 137.722 32.9795 137.885 33.0582C138.048 33.1369 138.055 33.6303 137.842 34.1594Z" fill="#263238"/>
<path d="M138.083 31.0347C138.083 31.0347 139.594 29.9478 140.02 32.2217" stroke="#263238" stroke-linecap="round" stroke-linejoin="round"/>
<path d="M134.324 40.6809C134.818 40.957 135.373 41.1019 135.938 41.1019C136.502 41.1019 137.058 40.957 137.551 40.6809" stroke="#263238" stroke-linecap="round" stroke-linejoin="round"/>
<path d="M103.527 54.5889C103.527 54.5889 102.506 47.853 107.45 46.1153C112.393 44.3777 120.025 45.3574 127.657 47.5455C135.289 49.7336 140.992 48.0889 144.212 48.1962C147.432 48.3034 152.276 49.1758 152.276 51.4497C152.22 52.3181 151.98 53.1642 151.573 53.9313C151.165 54.6985 150.6 55.3688 149.914 55.8975C149.375 56.2192 147.978 55.0251 147.978 55.0251C147.978 55.0251 133.963 57.9354 126.153 58.7148C115.706 59.7517 111.152 60.9315 106.925 58.6075" fill="white"/>
<path d="M103.527 54.5889C103.527 54.5889 102.506 47.853 107.45 46.1153C112.393 44.3777 120.025 45.3574 127.657 47.5455C135.289 49.7336 140.992 48.0889 144.212 48.1962C147.432 48.3034 152.276 49.1758 152.276 51.4497C152.22 52.3181 151.98 53.1642 151.573 53.9313C151.165 54.6985 150.6 55.3688 149.914 55.8975C149.375 56.2192 147.978 55.0251 147.978 55.0251C147.978 55.0251 133.963 57.9354 126.153 58.7148C115.706 59.7517 111.152 60.9315 106.925 58.6075" stroke="#263238" stroke-linecap="round" stroke-linejoin="round"/>
<path d="M143.46 45.0141C143.46 45.0141 140.878 48.3749 140.878 49.5619C140.878 50.7489 142.062 50.2126 142.708 49.7836C143.353 49.3545 146.042 45.9866 145.609 45.3359C145.176 44.6851 144.431 44.0344 143.46 45.0141Z" fill="white" stroke="#263238" stroke-linecap="round" stroke-linejoin="round"/>
<path d="M147.652 46.3156C147.652 46.3156 145.077 49.6764 145.077 50.8634C145.077 52.0504 146.255 51.5141 146.9 51.0851C147.545 50.6561 150.234 47.2881 149.801 46.6374C149.368 45.9867 148.624 45.336 147.652 46.3156Z" fill="white" stroke="#263238" stroke-linecap="round" stroke-linejoin="round"/>
<path d="M149.631 47.8745C149.631 47.8745 147.652 50.4487 147.652 51.364C147.652 52.2793 148.56 51.8574 149.07 51.5285C149.581 51.1995 151.617 48.6253 151.29 48.1247C150.964 47.6242 150.368 47.1308 149.631 47.8745Z" fill="white" stroke="#263238" stroke-linecap="round" stroke-linejoin="round"/>
<path d="M145.609 45.336C145.609 45.336 142.495 49.9982 142.708 50.7562C142.921 51.5141 144.318 50.5416 146.042 48.804C147.765 47.0664 148.191 43.6055 145.609 45.336Z" fill="white" stroke="#263238" stroke-linecap="round" stroke-linejoin="round"/>
<path d="M105.357 66.2803C105.357 66.2803 108.471 69.1406 108.677 70.3204C108.882 71.5003 107.62 71.1642 106.911 70.8496C106.201 70.5349 102.981 67.689 103.293 66.9739C103.605 66.2589 104.237 65.4866 105.357 66.2803Z" fill="white" stroke="#263238" stroke-linecap="round" stroke-linejoin="round"/>
<path d="M101.477 68.2896C101.477 68.2896 104.591 71.1498 104.797 72.3226C105.002 73.4953 103.74 73.1735 103.031 72.8589C102.321 72.5442 99.1012 69.6983 99.4133 68.9832C99.7254 68.2681 100.328 67.4959 101.477 68.2896Z" fill="white" stroke="#263238" stroke-linecap="round" stroke-linejoin="round"/>
<path d="M99.7679 70.1702C99.7679 70.1702 102.151 72.3583 102.307 73.2593C102.463 74.1602 101.506 73.91 100.96 73.6668C100.413 73.4237 97.9522 71.2499 98.1933 70.6993C98.4345 70.1487 98.9168 69.5624 99.7679 70.1702Z" fill="white" stroke="#263238" stroke-linecap="round" stroke-linejoin="round"/>
<path d="M103.293 66.9739C103.293 66.9739 107.159 71.0211 107.081 71.8077C107.003 72.5943 105.449 71.8721 103.463 70.4634C101.477 69.0547 100.456 65.7082 103.293 66.9739Z" fill="white" stroke="#263238" stroke-linecap="round" stroke-linejoin="round"/>
<path d="M117.443 147.326C117.443 147.326 117.55 152.524 118.309 153.504C119.068 154.484 123.791 154.477 127.983 154.369C132.175 154.262 135.722 153.826 136.261 152.739C136.8 151.652 137.013 146.346 136.367 146.024C135.722 145.703 129.161 146.997 124.437 146.997C119.713 146.997 117.443 146.024 117.443 147.326Z" fill="white" stroke="#263238" stroke-linecap="round" stroke-linejoin="round"/>
<path d="M125.508 228.171C130.671 227.957 133.572 226.333 136.041 226.112C138.509 225.89 139.374 225.139 139.374 222.107C139.374 220.677 138.899 219.533 138.36 217.967C134.948 219.44 130.132 219.612 130.132 219.612C130.239 218.266 129.979 216.916 129.381 215.708C128.409 214.084 126.586 215.279 126.586 215.279L126.274 215.221C124.962 217.023 118.124 221.206 115.727 222.215C113.145 223.294 111.315 224.167 111.535 225.354C111.755 226.541 120.351 228.393 125.508 228.171Z" fill="#263238" stroke="#263238" stroke-linecap="round" stroke-linejoin="round"/>
<path d="M139.311 223.345C136.353 224.06 129.012 227.006 121.749 226.326C115.833 225.769 112.932 224.861 111.819 224.417C111.708 224.542 111.626 224.69 111.579 224.851C111.533 225.012 111.522 225.181 111.549 225.347C111.762 226.541 120.366 228.386 125.522 228.164C130.679 227.942 133.587 226.326 136.055 226.105C138.133 225.933 139.069 225.354 139.311 223.345Z" fill="white" stroke="#263238" stroke-linecap="round" stroke-linejoin="round"/>
<path d="M58.1329 135.713C58.3361 135.169 58.4395 134.592 58.4379 134.011C58.4379 132.66 64.2469 131.423 64.9207 131.423H65.4669C64.4101 129.728 63.2327 126.203 62.4595 125.702C61.4523 125.023 57.0973 125.137 53.1892 126.153C49.281 127.168 44.3586 128.062 42.9046 129.077C41.4505 130.093 42.1244 130.994 43.6139 131.222C47.0135 131.751 50.344 132.66 53.5438 133.933C54.5581 134.333 56.2107 134.977 58.1329 135.713Z" fill="#263238" stroke="#263238" stroke-linecap="round" stroke-linejoin="round"/>
<path d="M63.5163 127.368C63.2783 126.741 62.9191 126.167 62.4595 125.681C61.4523 125.001 57.0973 125.116 53.1892 126.131C49.281 127.147 44.3586 128.04 42.9046 129.056C41.6775 129.921 41.9754 130.693 42.9826 131.051C43.394 130.557 44.316 129.878 46.373 129.056C50.3449 127.475 59.6295 126.882 63.5163 127.368Z" fill="white" stroke="#263238" stroke-linecap="round" stroke-linejoin="round"/>
<path d="M102.719 201.893C102.275 199.305 102.026 196.688 101.974 194.063C101.929 194.041 101.881 194.029 101.832 194.027C100.059 194.027 98.9949 195.815 98.9949 195.815L95.491 191.059C93.7604 193.205 90.6395 195.865 91.1928 197.96C91.902 200.641 94.7392 200.641 96.1577 203.859C97.5763 207.077 103.073 212.082 104.492 211.01C105.91 209.937 103.605 206.362 102.719 201.893Z" fill="#263238" stroke="#263238" stroke-linecap="round" stroke-linejoin="round"/>
<path d="M104.492 211.01C104.628 210.903 104.736 210.762 104.804 210.602C98.4204 206.941 97.86 202.336 96.867 200.999C96.1223 199.998 93.2284 197.423 91.5403 195.993C91.186 196.588 91.0622 197.293 91.1927 197.974C91.902 200.655 94.7392 200.655 96.1577 203.873C97.5763 207.091 103.073 212.082 104.492 211.01Z" fill="white" stroke="#263238" stroke-linecap="round" stroke-linejoin="round"/>
</svg>
