<svg width="235" height="237" viewBox="0 0 235 237" fill="none" xmlns="http://www.w3.org/2000/svg">
<path opacity="0.2" d="M199.416 161.402H178.379V170.422H199.416V161.402Z" fill="black"/>
<path opacity="0.2" d="M64.6956 203.55H43.658V212.57H64.6956V203.55Z" fill="black"/>
<path opacity="0.2" d="M33.1392 140.147H12.1016V149.167H33.1392V140.147Z" fill="black"/>
<path opacity="0.2" d="M191.402 129.302H170.365V138.322H191.402V129.302Z" fill="black"/>
<path opacity="0.2" d="M207.952 77.2749H186.914V86.2946H207.952V77.2749Z" fill="black"/>
<path opacity="0.2" d="M129.812 88.4169H108.774V97.4366H129.812V88.4169Z" fill="black"/>
<path opacity="0.2" d="M131.315 164.819H110.277V173.839H131.315V164.819Z" fill="black"/>
<path opacity="0.2" d="M107.272 164.819H86.2341V173.839H107.272V164.819Z" fill="black"/>
<path opacity="0.2" d="M47.1643 90.5391H26.1267V99.5587H47.1643V90.5391Z" fill="black"/>
<path opacity="0.2" d="M70.7064 90.5391H49.6688V99.5587H70.7064V90.5391Z" fill="black"/>
<path opacity="0.2" d="M156.359 88.4169H135.322V97.4366H156.359V88.4169Z" fill="black"/>
<path opacity="0.1" d="M207.932 141.771H186.894V150.791H207.932V141.771Z" fill="black"/>
<path opacity="0.1" d="M224.481 201.428H203.444V210.448H224.481V201.428Z" fill="black"/>
<path opacity="0.1" d="M231.975 141.771H210.937V150.791H231.975V141.771Z" fill="black"/>
<path opacity="0.1" d="M62.1912 78.6013H41.1536V87.621H62.1912V78.6013Z" fill="black"/>
<path opacity="0.1" d="M27.6294 69.051H6.5918V78.0707H27.6294V69.051Z" fill="black"/>
<path opacity="0.1" d="M235 77.5402H213.962V86.5598H235V77.5402Z" fill="black"/>
<path opacity="0.1" d="M220.975 92.9266H199.937V101.946H220.975V92.9266Z" fill="black"/>
<path opacity="0.2" d="M39.6509 25.2791H18.6133V34.2987H39.6509V25.2791Z" fill="black"/>
<path opacity="0.1" d="M66.6992 25.5443H45.6616V34.564H66.6992V25.5443Z" fill="black"/>
<path opacity="0.1" d="M52.6741 40.9309H31.6365V49.9506H52.6741V40.9309Z" fill="black"/>
<path opacity="0.2" d="M173.39 199.836H152.352V208.856H173.39V199.836Z" fill="black"/>
<path opacity="0.1" d="M200.438 200.102H179.401V209.121H200.438V200.102Z" fill="black"/>
<path opacity="0.1" d="M186.413 215.488H165.376V224.508H186.413V215.488Z" fill="black"/>
<path opacity="0.1" d="M142.835 77.5402H121.798V86.5598H142.835V77.5402Z" fill="black"/>
<path opacity="0.1" d="M122.799 154.208H101.762V163.227H122.799V154.208Z" fill="black"/>
<path opacity="0.1" d="M109.776 180.205H88.7386V189.225H109.776V180.205Z" fill="black"/>
<path opacity="0.1" d="M130.313 202.489H109.275V211.509H130.313V202.489Z" fill="black"/>
<path opacity="0.2" d="M131.315 47.0325H110.277V56.0522H131.315V47.0325Z" fill="black"/>
<path opacity="0.2" d="M107.272 47.0325H86.2341V56.0522H107.272V47.0325Z" fill="black"/>
<path opacity="0.1" d="M122.799 36.421H101.762V45.4407H122.799V36.421Z" fill="black"/>
<path opacity="0.1" d="M109.776 62.4189H88.7386V71.4386H109.776V62.4189Z" fill="black"/>
<path opacity="0.1" d="M43.1571 154.208H22.1195V163.227H43.1571V154.208Z" fill="black"/>
<path opacity="0.2" d="M197.212 29.7729H176.175V38.7926H197.212V29.7729Z" fill="black"/>
<path opacity="0.1" d="M207.23 43.8331H186.193V52.8528H207.23V43.8331Z" fill="black"/>
<path opacity="0.1" d="M33.6401 180.205H12.6025V189.225H33.6401V180.205Z" fill="black"/>
<path opacity="0.2" d="M157.842 161.402H136.805V170.422H157.842V161.402Z" fill="black"/>
<path d="M201.565 70.2236L140.671 78.7127L132.822 15.4688L193.716 6.97974L201.565 70.2236ZM201.911 73.0038L141.017 81.4929L148.866 144.742L209.76 136.253L201.911 73.0038ZM210.106 139.023L149.212 147.512L157.061 210.75L217.955 202.261L210.106 139.023Z" fill="#ADADAD"/>
<path d="M152.878 54.5453C152.878 54.5453 150.594 56.466 145.901 62.021C141.207 67.5761 140.586 72.0223 140.281 74.2931C140.108 76.2479 140.098 78.2151 140.251 80.1718L183.643 74.1286C183.643 74.1286 180.097 57.0814 174.682 54.0943C169.268 51.1072 161.904 51.4415 161.904 51.4415C161.904 51.4415 156.93 51.3035 152.878 54.5453Z" fill="#263238" stroke="#263238" stroke-linecap="round" stroke-linejoin="round"/>
<path d="M177.132 48.762C174.289 47.9399 171.402 47.3003 168.486 46.8467C164.118 46.21 159.831 50.2795 159.32 50.8843C158.809 51.4892 165.295 51.5688 167.8 52.1099L170.304 52.6405C170.304 52.6405 169.077 59.6705 170.129 64.7746C170.814 68.4484 171.221 72.1742 171.346 75.9166L195.725 72.5209C195.725 72.5209 197.949 65.3529 197.578 58.9914C197.208 52.6299 194.923 50.4599 191.828 48.571C188.732 46.6822 177.132 48.762 177.132 48.762Z" fill="#FF81AE" stroke="#263238" stroke-linecap="round" stroke-linejoin="round"/>
<path d="M168.421 55.1395L171.882 59.2886L167.359 58.758L168.421 55.1395Z" fill="white" stroke="#263238" stroke-linecap="round" stroke-linejoin="round"/>
<path d="M164.188 50.8313L168.421 55.1395L167.299 62.1537C167.299 62.1537 165.005 58.5564 164.454 56.1423C164.113 54.3963 164.024 52.6057 164.188 50.8313Z" fill="white" stroke="#263238" stroke-linecap="round" stroke-linejoin="round"/>
<path d="M151.771 44.8995C151.771 44.8995 153.685 50.1574 153.975 52.5185C154.266 54.8795 154.476 56.0096 154.476 56.0096C154.476 56.0096 160.863 59.3946 163.147 60.859C165.431 62.3234 167.249 63.4057 167.259 62.1536C167.269 60.9014 165.586 56.7789 165.195 53.6273C164.805 50.4758 165.3 43.6367 165.3 43.6367C165.3 43.6367 162.27 46.9952 159.791 47.3507C157.311 47.7062 151.771 44.8995 151.771 44.8995Z" fill="white" stroke="#263238" stroke-linecap="round" stroke-linejoin="round"/>
<path d="M157.727 47.1598C155.677 46.6078 153.681 45.851 151.766 44.8995C151.766 44.8995 153.68 50.1575 153.97 52.5185C153.995 52.7254 154.02 52.9058 154.045 53.0915C154.272 53.2453 154.539 53.3178 154.807 53.2985L155.628 53.1817H155.703C156.039 53.1393 163.031 49.871 163.031 49.871L157.727 47.1598Z" fill="#263238" stroke="#263238" stroke-linecap="round" stroke-linejoin="round"/>
<path d="M153.114 52.37L162.15 57.4369L165.962 62.4243L161.103 60.5195L159.455 64.849L151.115 55.2351L153.114 52.37Z" fill="white" stroke="#263238" stroke-linecap="round" stroke-linejoin="round"/>
<path d="M161.103 60.5195L162.15 57.4369" stroke="#263238" stroke-linecap="round" stroke-linejoin="round"/>
<path d="M148.03 37.8483C148.03 37.8483 147.208 36.628 146.527 38.0552C145.846 39.4825 147.779 41.3554 148.821 42.2998C149.233 42.7228 149.7 43.0802 150.209 43.3609L148.03 37.8483Z" fill="white" stroke="#263238" stroke-linecap="round" stroke-linejoin="round"/>
<path d="M165.556 32.8238C165.556 32.8238 165.726 31.3329 166.958 32.2508C168.191 33.1687 167.359 35.7791 166.868 37.1161C166.694 37.6956 166.443 38.2458 166.122 38.7503L165.556 32.8238Z" stroke="#263238" stroke-linecap="round" stroke-linejoin="round"/>
<path d="M146.762 35.6146C146.762 35.6146 149.908 42.7932 150.885 44.5918C151.861 46.3904 156.465 50.635 158.173 51.4202C159.881 52.2055 163.502 51.1337 164.183 48.9902C164.865 46.8467 166.513 42.6234 166.142 38.8245C165.771 35.0256 165.531 28.68 164.439 25.0775C163.347 21.4749 159.52 19.1722 156.425 19.151C153.329 19.1298 146.762 21.8569 145.019 24.9448C143.276 28.0327 142.655 30.9562 143.517 31.6353C144.378 32.3144 146.762 35.6146 146.762 35.6146Z" fill="white" stroke="#263238" stroke-linecap="round" stroke-linejoin="round"/>
<path d="M156.43 19.151C153.314 19.151 146.782 21.8569 145.019 24.9448C143.256 28.0327 142.655 30.9562 143.517 31.6353C144.378 32.3144 146.797 35.6146 146.797 35.6146L147.554 37.323C147.959 36.7834 148.394 36.2696 148.856 35.7844C149.713 34.8665 150.003 32.8928 150.003 32.8928C150.003 32.8928 154.391 33.6462 157.992 31.5557C160.195 30.1915 161.889 28.0676 162.791 25.5391C162.791 25.5391 163.643 28.9453 164.865 30.1391C165.085 30.3513 165.285 30.5582 165.461 30.7439C165.287 28.8272 164.952 26.9308 164.459 25.0775C163.372 21.4802 159.545 19.1722 156.43 19.151Z" fill="#263238" stroke="#263238" stroke-linecap="round" stroke-linejoin="round"/>
<path d="M150.269 36.7394C150.682 35.9336 151.324 35.2864 152.105 34.8901C152.886 34.4938 153.765 34.3686 154.616 34.5322" stroke="#263238" stroke-width="2" stroke-linecap="round" stroke-linejoin="round"/>
<path d="M158.864 33.6674C159.484 33.2262 160.202 32.9642 160.947 32.9075C161.692 32.8507 162.438 33.0011 163.112 33.3437" stroke="#263238" stroke-width="2" stroke-linecap="round" stroke-linejoin="round"/>
<path d="M156.78 39.7531C156.78 39.7531 156.83 42.8622 157.281 43.154C157.732 43.4458 158.979 43.276 159.7 42.9948C159.925 42.8922 160.126 42.7396 160.291 42.5473C160.455 42.3551 160.578 42.1277 160.652 41.8806" stroke="#263238" stroke-linecap="round" stroke-linejoin="round"/>
<path d="M153.865 37.4397C153.915 37.8483 153.775 38.2091 153.544 38.2409C153.314 38.2727 153.089 37.965 153.044 37.5512C152.998 37.1373 153.139 36.7818 153.364 36.75C153.59 36.7182 153.815 37.0365 153.865 37.4397Z" fill="#263238"/>
<path d="M161.479 35.7525C161.529 36.1663 161.383 36.5271 161.153 36.559C160.923 36.5908 160.702 36.2831 160.652 35.8692C160.602 35.4554 160.742 35.0999 160.973 35.0681C161.203 35.0362 161.424 35.344 161.479 35.7525Z" fill="#263238"/>
<path d="M157.426 45.8015C157.426 45.8015 159.976 46.6982 161.564 44.6024" stroke="#263238" stroke-linecap="round" stroke-linejoin="round"/>
<path d="M176.075 46.8998C176.075 46.8998 175.574 50.582 175.073 51.8129C174.572 53.0438 175.013 55.7179 181.519 55.3942C188.026 55.0706 187.495 47.4835 187.495 47.4835L182.671 40.4958C182.671 40.4958 178.634 45.5256 176.075 46.8998Z" fill="white" stroke="#263238" stroke-linecap="round" stroke-linejoin="round"/>
<path d="M175.869 48.5181C176.52 49.2968 177.005 50.214 177.292 51.2081L175.869 48.5181Z" fill="white"/>
<path d="M175.869 48.5181C176.52 49.2968 177.005 50.214 177.292 51.2081" stroke="#263238" stroke-linecap="round" stroke-linejoin="round"/>
<path d="M152.022 55.1077C152.022 55.1077 161.684 59.1029 162.4 59.4477C163.309 59.7792 164.24 60.0381 165.185 60.2224C165.67 59.966 166.184 59.7735 166.713 59.6493L167.289 59.5698L167.519 60.0738L169.207 60.1056L170.259 61.119C170.259 61.119 171.907 60.1746 172.443 60.4558C172.971 60.8272 173.451 61.2695 173.871 61.7716L174.697 61.6549C175.051 61.6693 175.401 61.7409 175.734 61.8671C175.734 61.8671 185.937 51.2557 187.029 50.5872C188.121 49.9187 191.267 48.8416 193.716 50.2795C196.166 51.7173 196.967 57.4846 196.566 58.3441C196.166 59.2037 179.366 72.8499 178.033 73.7307C176.701 74.6114 174.863 74.6167 173.66 74.431C172.458 74.2453 169.473 72.5156 169.473 72.5156C169.473 72.5156 167.925 72.9136 167.655 72.7703C167.449 72.6393 167.277 72.4572 167.154 72.2398L166.653 71.0566C166.24 70.8887 165.803 70.7989 165.361 70.7913C164.689 70.7913 164.028 69.5551 164.028 69.5551C163.619 69.6629 163.195 69.6917 162.776 69.64C161.844 69.5922 161.128 68.5311 161.128 68.5311L149.607 58.2062L147.699 57.0443C147.699 57.0443 148.631 53.7123 148.876 53.6751C149.122 53.638 152.022 55.1077 152.022 55.1077Z" fill="white" stroke="#263238" stroke-linecap="round" stroke-linejoin="round"/>
<path d="M193.716 50.3007C191.267 48.8629 188.121 49.924 187.029 50.6084C185.937 51.2929 175.734 61.8883 175.734 61.8883C175.401 61.7621 175.051 61.6905 174.697 61.6761L173.871 61.7928C173.451 61.2907 172.971 60.8484 172.443 60.477C171.907 60.1958 170.259 61.1402 170.259 61.1402L169.207 60.1269L167.519 60.095L167.289 59.591L166.713 59.6706C166.184 59.7947 165.67 59.9872 165.185 60.2436C164.24 60.0593 163.309 59.8004 162.4 59.4689C162.28 59.4106 161.899 59.2461 161.348 59.018C158.108 60.8537 157.011 63.0715 156.65 64.5041L161.158 68.547C161.158 68.547 161.874 69.6081 162.806 69.6559C163.225 69.7076 163.649 69.6788 164.058 69.571C164.058 69.571 164.719 70.8125 165.391 70.8072C165.833 70.8148 166.27 70.9046 166.683 71.0725L167.184 72.2557C167.308 72.4731 167.479 72.6552 167.685 72.7862C167.955 72.9295 169.503 72.5316 169.503 72.5316C169.503 72.5316 172.508 74.2559 173.69 74.4469C174.873 74.6379 176.746 74.6432 178.063 73.7466C179.381 72.8499 196.186 59.1984 196.596 58.3601C197.007 57.5218 196.166 51.7173 193.716 50.3007Z" fill="#FF81AE" stroke="#263238" stroke-linecap="round" stroke-linejoin="round"/>
<path d="M142.815 57.4581C142.815 57.4581 140.812 61.4798 140.536 62.1378C140.261 62.7957 141.433 63.2626 141.433 63.2626L143.331 64.3237C143.331 64.3237 144.568 63.4376 144.804 63.3156C145.241 62.8866 145.526 62.3116 145.61 61.6868L145.5 60.8113C145.5 60.8113 146.251 60.0844 146.847 59.469C147.444 58.8535 146.677 56.7313 146.291 56.3386C145.906 55.946 143.692 55.7338 142.815 57.4581Z" fill="white" stroke="#263238" stroke-linecap="round" stroke-linejoin="round"/>
<path d="M145.139 59.2727C145.139 59.2727 144.373 60.5355 144.098 61.0183C143.699 61.543 143.251 62.023 142.76 62.4508" stroke="#263238" stroke-linecap="round" stroke-linejoin="round"/>
<path d="M143.822 61.5011C143.822 61.5011 144.744 62.1749 144.789 62.5251C144.834 62.8753 144.338 63.6552 144.338 63.6552" stroke="#263238" stroke-linecap="round" stroke-linejoin="round"/>
<path d="M144.363 60.4506C144.363 60.4506 145.69 60.9811 145.61 61.6974" stroke="#263238" stroke-linecap="round" stroke-linejoin="round"/>
<path d="M143.542 54.5082C143.542 54.5082 142.039 55.9619 142.114 56.5774C142.189 57.1929 143.762 59.018 144.889 59.9306C146.016 60.8432 146.417 60.0739 146.807 59.8404C147.198 59.607 146.807 59.2143 145.921 58.0948C145.034 56.9753 143.542 54.5082 143.542 54.5082Z" fill="white" stroke="#263238" stroke-linecap="round" stroke-linejoin="round"/>
<path d="M144.804 53.1711C144.472 53.1805 144.156 53.3244 143.921 53.5731C143.686 53.8219 143.55 54.1565 143.542 54.5082C143.371 55.8664 144.829 57.4422 145.59 58.1373C146.176 58.7259 146.893 59.1475 147.674 59.3629C148.1 59.3947 148.085 58.5936 148.085 58.5936C148.085 58.5936 146.081 55.4101 145.766 54.8212C145.45 54.2323 144.804 53.1711 144.804 53.1711Z" fill="white" stroke="#263238" stroke-linecap="round" stroke-linejoin="round"/>
<path d="M148.611 51.3088C149.345 51.4374 150.067 51.6327 150.77 51.8925C151.31 52.1737 153.314 54.1209 153.274 55.1979C153.234 56.275 152.342 55.1502 152.002 55.1077C151.661 55.0653 150.544 53.516 150.544 53.516L149.542 53.5691L148.611 51.3088Z" fill="white" stroke="#263238" stroke-linecap="round" stroke-linejoin="round"/>
<path d="M146.822 51.8235C146.822 51.8235 145.405 51.9296 144.844 52.8103C144.283 53.6911 147.298 58.3495 148.085 58.5936C148.183 58.6334 148.288 58.6521 148.394 58.6485C148.499 58.6449 148.603 58.6192 148.699 58.5728C148.795 58.5264 148.881 58.4602 148.953 58.3782C149.025 58.2961 149.08 58.1998 149.117 58.0948L146.822 51.8235Z" fill="white" stroke="#263238" stroke-linecap="round" stroke-linejoin="round"/>
<path d="M149.142 52.2108C149.142 52.2108 150.564 56.9116 150.539 57.3626C150.514 57.8136 149.117 58.0948 149.117 58.0948C149.117 58.0948 146.717 52.996 146.822 51.8235C146.928 50.6509 148.581 50.4175 149.142 52.2108Z" fill="white" stroke="#263238" stroke-linecap="round" stroke-linejoin="round"/>
<path d="M174.742 19.3474C174.742 19.3474 171.201 19.931 167.86 23.5123C164.519 27.0937 164.764 31.7786 165.967 35.3546C167.169 38.9307 167.364 39.1588 167.8 43.4034C168.236 47.6479 167.419 52.5451 171.652 54.8053C175.884 57.0655 177.918 53.1287 177.918 53.1287C177.918 53.1287 177.638 52.9006 176.596 51.9774C175.554 51.0542 176.165 48.4756 176.135 47.5896C176.105 46.7035 173.505 44.6608 171.892 41.8541C170.279 39.0474 168.887 33.365 169.253 32.0704C169.618 30.7758 174.682 31.1366 175.178 31.0676C175.674 30.9987 181.454 32.1288 182.151 35.084C182.847 38.0393 182.566 41.7957 182.386 45.1118C182.206 48.4279 183.939 53.5373 188.497 53.7017C193.055 53.8662 195.665 53.8609 195.419 55.946C195.174 58.0312 192.719 57.2141 193.085 58.1426C193.451 59.0711 194.763 60.1322 198.164 59.7343C201.565 59.3364 202.627 55.7285 202.442 52.9059C202.257 50.0832 200.473 48.5446 199.837 46.1411C199.201 43.7376 200.488 40.5277 198.46 37.0737C196.431 33.6197 191.272 34.6861 189.884 31.6725C188.497 28.6588 188.106 23.3638 183.328 20.5571C178.549 17.7503 174.742 19.3474 174.742 19.3474Z" fill="#263238" stroke="#263238" stroke-linecap="round" stroke-linejoin="round"/>
<path d="M167.399 31.3223C167.399 31.3223 168.852 38.9572 169.468 41.1909C170.084 43.4245 173.265 46.7141 174.632 47.5948C176 48.4756 176.836 49.0698 178.384 48.656C179.932 48.2421 182.116 45.5574 182.892 44.2045C183.668 42.8515 184.425 38.8988 184.229 37.3389C183.965 35.8222 183.611 34.3247 183.167 32.8556C183.167 32.8556 179.11 30.659 177.242 29.1416C176.135 28.2742 175.214 27.1674 174.542 25.8945C174.542 25.8945 172.038 27.8523 170.239 29.1681C168.441 30.484 167.399 31.3223 167.399 31.3223Z" fill="white" stroke="#263238" stroke-linecap="round" stroke-linejoin="round"/>
<path d="M174.281 40.6974C174.519 40.9251 174.798 41.0995 175.101 41.2098C175.404 41.3202 175.725 41.3642 176.045 41.3394" stroke="#263238" stroke-linecap="round" stroke-linejoin="round"/>
<path d="M174.312 43.5413C174.312 43.5413 176.701 45.1701 179.175 42.0663" stroke="#263238" stroke-linecap="round" stroke-linejoin="round"/>
<path d="M178.77 34.8611C178.758 34.959 178.721 35.0516 178.663 35.1284C178.605 35.2053 178.527 35.2634 178.44 35.2963C178.352 35.3292 178.257 35.3356 178.166 35.3147C178.075 35.2937 177.992 35.2464 177.925 35.1779C177.858 35.1094 177.81 35.0226 177.787 34.927C177.764 34.8314 177.767 34.731 177.795 34.637C177.823 34.5429 177.875 34.459 177.945 34.3945C178.016 34.3301 178.102 34.2877 178.194 34.2722C178.343 34.2721 178.486 34.3335 178.594 34.4434C178.701 34.5532 178.764 34.703 178.77 34.8611Z" fill="#263238"/>
<path d="M172.704 36.108C172.692 36.2056 172.655 36.2978 172.597 36.3745C172.539 36.4511 172.462 36.5091 172.374 36.5421C172.287 36.575 172.193 36.5815 172.102 36.5609C172.011 36.5403 171.927 36.4934 171.86 36.4255C171.793 36.3575 171.745 36.2711 171.722 36.176C171.699 36.0808 171.701 35.9806 171.728 35.8866C171.755 35.7926 171.806 35.7085 171.876 35.6436C171.946 35.5787 172.031 35.5356 172.123 35.5191C172.273 35.5176 172.418 35.5783 172.526 35.6884C172.635 35.7984 172.698 35.949 172.704 36.108Z" fill="#263238"/>
<path d="M169.558 34.495C169.558 34.495 169.964 33.0147 172.098 33.2535" stroke="#263238" stroke-linecap="round" stroke-linejoin="round"/>
<path d="M176.505 32.1924C176.505 32.1924 178.935 30.7864 179.972 33.0466" stroke="#263238" stroke-linecap="round" stroke-linejoin="round"/>
<path d="M161.333 119.487C161.333 119.487 159.049 121.408 154.356 126.963C149.663 132.518 149.041 136.964 148.731 139.235C148.561 141.19 148.553 143.157 148.706 145.114L192.098 139.07C192.098 139.07 188.552 122.018 183.137 119.036C177.723 116.054 170.359 116.383 170.359 116.383C170.359 116.383 165.386 116.251 161.333 119.487Z" fill="#263238" stroke="#263238" stroke-linecap="round" stroke-linejoin="round"/>
<path d="M185.587 113.704C182.743 112.885 179.856 112.247 176.941 111.794C172.573 111.152 168.286 115.227 167.775 115.831C167.264 116.436 173.741 116.51 176.25 117.052L178.754 117.582C178.754 117.582 177.522 124.607 178.579 129.716C179.261 133.391 179.666 137.116 179.791 140.858L204.175 137.463C204.175 137.463 206.399 130.295 206.028 123.933C205.658 117.572 203.368 115.396 200.278 113.513C197.187 111.629 185.587 113.704 185.587 113.704Z" fill="#FF81AE" stroke="#263238" stroke-linecap="round" stroke-linejoin="round"/>
<path d="M176.876 120.087L180.332 124.236L175.814 123.705L176.876 120.087Z" fill="white" stroke="#263238" stroke-linecap="round" stroke-linejoin="round"/>
<path d="M172.644 115.773L176.876 120.086L175.729 127.101C175.729 127.101 173.435 123.503 172.879 121.084C172.55 119.336 172.471 117.546 172.644 115.773Z" fill="white" stroke="#263238" stroke-linecap="round" stroke-linejoin="round"/>
<path d="M160.221 109.846C160.221 109.846 162.135 115.099 162.425 117.465C162.716 119.832 162.926 120.957 162.926 120.957C162.926 120.957 169.313 124.342 171.597 125.806C173.881 127.27 175.699 128.347 175.709 127.101C175.719 125.854 174.031 121.726 173.64 118.574C173.25 115.423 173.746 108.584 173.746 108.584C173.746 108.584 170.715 111.942 168.236 112.298C165.756 112.653 160.221 109.846 160.221 109.846Z" fill="white" stroke="#263238" stroke-linecap="round" stroke-linejoin="round"/>
<path d="M171.186 116.266L160.752 111.38C161.343 113.115 162.255 115.916 162.425 117.466C162.721 119.827 162.926 120.957 162.926 120.957L164.429 121.753L171.186 116.266Z" fill="#263238" stroke="#263238" stroke-linecap="round" stroke-linejoin="round"/>
<path d="M161.569 117.317L170.605 122.384L174.417 127.371L169.558 125.466L167.91 129.796L159.57 120.177L161.569 117.317Z" fill="white" stroke="#263238" stroke-linecap="round" stroke-linejoin="round"/>
<path d="M169.558 125.467L170.605 122.384" stroke="#263238" stroke-linecap="round" stroke-linejoin="round"/>
<path d="M184.53 111.847C184.53 111.847 184.029 115.529 183.528 116.76C183.027 117.991 183.468 120.665 189.975 120.336C196.481 120.007 195.945 112.425 195.945 112.425L191.127 105.443C191.127 105.443 187.089 110.478 184.53 111.847Z" fill="white" stroke="#263238" stroke-linecap="round" stroke-linejoin="round"/>
<path d="M184.329 113.465C184.981 114.243 185.466 115.16 185.752 116.155L184.329 113.465Z" fill="white"/>
<path d="M184.329 113.465C184.981 114.243 185.466 115.16 185.752 116.155" stroke="#263238" stroke-linecap="round" stroke-linejoin="round"/>
<path d="M160.477 120.055C160.477 120.055 170.139 124.05 170.855 124.395C171.765 124.723 172.696 124.98 173.64 125.164C174.118 124.912 174.623 124.722 175.143 124.596L175.719 124.517L175.949 125.021L177.638 125.053L178.684 126.061C178.684 126.061 180.337 125.122 180.873 125.403C181.409 125.768 181.897 126.205 182.326 126.703L183.152 126.586C183.505 126.598 183.853 126.669 184.184 126.798C184.184 126.798 194.392 116.187 195.484 115.518C196.576 114.85 199.722 113.768 202.171 115.211C204.621 116.654 205.417 122.416 205.021 123.275C204.626 124.135 187.821 137.781 186.488 138.662C185.156 139.543 183.318 139.548 182.116 139.357C180.913 139.166 177.928 137.447 177.928 137.447C177.928 137.447 176.38 137.845 176.11 137.702C175.902 137.563 175.729 137.371 175.609 137.144L175.108 135.967C174.695 135.799 174.258 135.709 173.816 135.701C173.139 135.701 172.483 134.46 172.483 134.46C172.075 134.572 171.65 134.602 171.231 134.55C170.299 134.497 169.583 133.441 169.583 133.441L158.063 123.116L156.154 121.954C156.154 121.954 157.086 118.617 157.331 118.585C157.577 118.553 160.477 120.055 160.477 120.055Z" fill="white" stroke="#263238" stroke-linecap="round" stroke-linejoin="round"/>
<path d="M202.171 115.227C199.722 113.783 196.576 114.844 195.484 115.534C194.392 116.224 184.184 126.814 184.184 126.814C183.853 126.685 183.505 126.613 183.152 126.602L182.326 126.703C181.906 126.201 181.426 125.758 180.898 125.387C180.362 125.106 178.709 126.045 178.709 126.045L177.663 125.037L175.975 125.005L175.744 124.501L175.168 124.58C174.648 124.706 174.143 124.896 173.665 125.148C172.721 124.964 171.79 124.707 170.88 124.379L169.829 123.923C166.588 125.764 165.491 127.981 165.13 129.414L169.638 133.457C169.638 133.457 170.355 134.518 171.286 134.566C171.705 134.618 172.13 134.588 172.538 134.476C172.538 134.476 173.195 135.722 173.871 135.717C174.313 135.725 174.75 135.815 175.163 135.982L175.664 137.16C175.784 137.387 175.957 137.579 176.165 137.717C176.435 137.861 177.983 137.463 177.983 137.463C177.983 137.463 180.989 139.187 182.171 139.373C183.353 139.558 185.221 139.574 186.543 138.678C187.866 137.781 204.661 124.129 205.077 123.291C205.492 122.453 204.621 116.664 202.171 115.227Z" fill="#FF81AE" stroke="#263238" stroke-linecap="round" stroke-linejoin="round"/>
<path d="M151.27 122.405C151.27 122.405 149.267 126.427 148.991 127.085C148.716 127.743 149.888 128.204 149.888 128.204L151.786 129.265C151.786 129.265 153.019 128.385 153.259 128.263C153.696 127.834 153.981 127.259 154.065 126.634L153.955 125.758C153.955 125.758 154.707 125.031 155.303 124.416C155.899 123.801 155.132 121.678 154.747 121.286C154.361 120.893 152.147 120.681 151.27 122.405Z" fill="white" stroke="#263238" stroke-linecap="round" stroke-linejoin="round"/>
<path d="M153.595 124.22C153.595 124.22 152.828 125.482 152.553 125.965C152.154 126.49 151.706 126.97 151.215 127.398" stroke="#263238" stroke-linecap="round" stroke-linejoin="round"/>
<path d="M152.272 126.448C152.272 126.448 153.194 127.122 153.239 127.472C153.284 127.822 152.788 128.602 152.788 128.602" stroke="#263238" stroke-linecap="round" stroke-linejoin="round"/>
<path d="M152.818 125.392C152.818 125.392 154.146 125.923 154.065 126.644" stroke="#263238" stroke-linecap="round" stroke-linejoin="round"/>
<path d="M151.997 119.45C151.997 119.45 150.494 120.909 150.569 121.519C150.644 122.129 152.217 123.965 153.339 124.878C154.461 125.79 154.872 125.021 155.263 124.787C155.653 124.554 155.263 124.161 154.376 123.042C153.489 121.922 151.997 119.45 151.997 119.45Z" fill="white" stroke="#263238" stroke-linecap="round" stroke-linejoin="round"/>
<path d="M153.274 118.118C152.943 118.127 152.628 118.271 152.393 118.518C152.158 118.766 152.022 119.099 152.012 119.45C151.841 120.813 153.299 122.389 154.06 123.084C154.647 123.672 155.363 124.093 156.144 124.31C156.57 124.342 156.555 123.541 156.555 123.541C156.555 123.541 154.551 120.357 154.236 119.768C153.92 119.179 153.274 118.118 153.274 118.118Z" fill="white" stroke="#263238" stroke-linecap="round" stroke-linejoin="round"/>
<path d="M157.061 116.25C157.802 116.381 158.531 116.578 159.24 116.839C159.776 117.121 161.784 119.068 161.744 120.145C161.704 121.222 160.812 120.092 160.472 120.055C160.131 120.018 159.014 118.463 159.014 118.463L158.012 118.516L157.061 116.25Z" fill="white" stroke="#263238" stroke-linecap="round" stroke-linejoin="round"/>
<path d="M155.278 116.771C155.278 116.771 153.86 116.877 153.299 117.757C152.738 118.638 155.748 123.291 156.54 123.541C156.638 123.58 156.743 123.598 156.849 123.594C156.954 123.59 157.058 123.564 157.153 123.518C157.249 123.471 157.335 123.406 157.407 123.324C157.479 123.242 157.535 123.146 157.572 123.042L155.278 116.771Z" fill="white" stroke="#263238" stroke-linecap="round" stroke-linejoin="round"/>
<path d="M157.597 117.152C157.597 117.152 159.019 121.853 158.994 122.304C158.969 122.755 157.572 123.036 157.572 123.036C157.572 123.036 155.172 117.938 155.278 116.765C155.383 115.593 157.036 115.364 157.597 117.152Z" fill="white" stroke="#263238" stroke-linecap="round" stroke-linejoin="round"/>
<path d="M178.444 85.5093C178.444 85.5093 174.968 86.4431 171.957 90.3375C168.947 94.2319 169.603 98.8744 171.111 102.312C172.619 105.751 172.839 105.973 173.65 110.122C174.462 114.272 174.076 119.259 178.489 121.095C182.902 122.93 184.58 118.808 184.58 118.808C184.58 118.808 184.279 118.606 183.162 117.789C182.045 116.972 182.421 114.346 182.316 113.465C182.211 112.584 179.441 110.812 177.587 108.159C175.734 105.506 173.866 100.004 174.081 98.6781C174.297 97.3516 179.411 97.2137 179.897 97.0864C180.382 96.959 183.583 97.9193 184.54 100.769C185.497 103.618 188.206 107.072 188.337 110.388C188.467 113.704 190.621 118.617 195.174 118.346C199.727 118.076 202.322 117.816 202.262 119.896C202.201 121.975 199.682 121.424 200.133 122.31C200.583 123.196 201.976 124.129 205.327 123.413C208.678 122.697 209.419 118.983 208.989 116.187C208.558 113.391 206.644 112.043 205.798 109.714C204.951 107.385 205.953 104.063 203.629 100.816C201.305 97.5692 196.261 99.1556 194.613 96.2905C192.965 93.4254 192.108 88.2046 187.099 85.886C182.09 83.5674 178.444 85.5093 178.444 85.5093Z" fill="#263238" stroke="#263238" stroke-linecap="round" stroke-linejoin="round"/>
<path d="M156.46 109.051C156.46 109.051 154.431 108.133 155.257 109.862C156.084 111.592 159.475 112.966 159.475 112.966L156.46 109.051Z" fill="white" stroke="#263238" stroke-linecap="round" stroke-linejoin="round"/>
<path d="M153.865 106.366C153.865 106.366 159.445 113.439 160.837 114.807C162.23 116.176 167.049 117.821 168.636 117.991C170.224 118.161 172.173 116.298 172.609 115.593C173.044 114.887 174.261 110.653 174.046 108.929C173.831 107.204 172.483 104.069 172.483 104.069C172.483 104.069 172.984 101.23 172.298 99.7551C171.936 98.9403 171.399 98.2262 170.73 97.67C170.73 97.67 168.757 91.5738 167.259 90.0298C165.761 88.4858 162.48 86.6341 161.343 86.6076C160.206 86.5811 153.83 87.7483 151.471 91.3032C149.112 94.858 147.033 100.509 148.255 102.641C149.477 104.774 150.835 105.146 151.952 105.729C152.551 106.054 153.198 106.269 153.865 106.366Z" fill="white" stroke="#263238" stroke-linecap="round" stroke-linejoin="round"/>
<path d="M171.306 100.981C171.131 100.264 170.344 98.1581 170.344 98.1581L170.645 97.4259C170.279 96.3329 168.571 91.3774 167.244 89.9979C165.741 88.454 162.465 86.6023 161.328 86.5758C160.191 86.5492 153.815 87.7165 151.456 91.2713C149.097 94.8261 147.018 100.477 148.24 102.61C149.462 104.742 150.82 105.114 151.937 105.697C152.535 106.029 153.182 106.252 153.85 106.355C153.85 106.355 155.187 108.048 156.72 109.942L156.9 109.9L154.732 105.029C156.971 103.379 159.109 101.58 161.133 99.6437C164.639 96.2958 165.115 93.8074 165.115 93.8074C165.115 93.8074 167.519 97.7177 168.466 98.3279C169.413 98.938 169.788 99.1556 169.788 99.1556L171.066 101.75C171.066 101.75 171.497 101.692 171.306 100.981Z" fill="#263238" stroke="#263238" stroke-linecap="round" stroke-linejoin="round"/>
<path d="M158.418 107.947C158.418 107.947 158.463 106.923 160.362 106.753" stroke="#263238" stroke-linecap="round" stroke-linejoin="round"/>
<path d="M159.285 103.851C159.285 103.851 156.7 104.122 157.041 106.843" stroke="#263238" stroke-width="2" stroke-linecap="round" stroke-linejoin="round"/>
<path d="M162.49 101.469C162.49 101.469 162.435 98.8956 166.112 99.0283" stroke="#263238" stroke-width="2" stroke-linecap="round" stroke-linejoin="round"/>
<path d="M166.267 103.14C166.503 103.469 166.543 103.856 166.362 104.005C166.182 104.154 165.836 104.005 165.601 103.671C165.366 103.336 165.326 102.954 165.506 102.806C165.686 102.657 166.032 102.827 166.267 103.14Z" fill="#263238"/>
<path d="M162.445 108.133C162.445 108.133 163.673 110.255 164.414 110.626C165.155 110.998 166.813 110.292 167.144 108.769" stroke="#263238" stroke-linecap="round" stroke-linejoin="round"/>
<path d="M165.511 113.141C165.511 113.141 168.611 112.154 169.378 109.189" stroke="#263238" stroke-linecap="round" stroke-linejoin="round"/>
<path d="M177.708 92.863C177.708 92.863 175.589 93.3459 174.427 94.5237C173.494 95.5511 172.642 96.6565 171.877 97.8292L171.582 98.243C171.582 98.243 173.009 107.645 173.67 109.486C174.332 111.327 177.582 114.298 178.604 114.791C179.626 115.285 180.838 115.959 181.95 115.8C183.062 115.64 185.907 112.574 187.195 111.024C188.164 109.851 188.69 108.339 188.672 106.78C188.292 104.75 187.753 102.757 187.059 100.822C186.121 98.7095 184.488 97.0324 182.466 96.1048C180.751 95.2526 179.151 94.1624 177.708 92.863Z" fill="white" stroke="#263238" stroke-linecap="round" stroke-linejoin="round"/>
<path d="M177.011 106.902C177.011 106.902 177.853 108.074 178.985 107.363" stroke="#263238" stroke-linecap="round" stroke-linejoin="round"/>
<path d="M176.841 109.045C177.176 109.284 177.559 109.439 177.959 109.496C178.36 109.553 178.767 109.511 179.15 109.374C180.483 108.907 182.797 106.462 182.797 106.462" stroke="#263238" stroke-linecap="round" stroke-linejoin="round"/>
<path d="M181.795 107.528C181.795 107.528 181.294 110.457 180.548 110.839C179.801 111.221 178.314 109.671 178.314 109.671C178.314 109.671 179.716 109.756 181.795 107.528Z" fill="white" stroke="#263238" stroke-linecap="round" stroke-linejoin="round"/>
<path d="M180.252 102.111C180.6 101.74 181.044 101.488 181.528 101.388C182.012 101.288 182.513 101.344 182.967 101.548" stroke="#263238" stroke-linecap="round" stroke-linejoin="round"/>
<path d="M173.55 103.596C173.55 103.596 174.211 102.583 175.769 103.198" stroke="#263238" stroke-linecap="round" stroke-linejoin="round"/>
<path d="M179.32 98.9169C179.32 98.9169 180.608 97.3517 182.962 98.7789" stroke="#263238" stroke-linecap="round" stroke-linejoin="round"/>
<path d="M175.659 99.5216C175.369 99.4079 175.059 99.365 174.752 99.3963C174.444 99.4275 174.147 99.532 173.883 99.7019C173.619 99.8718 173.395 100.103 173.227 100.378C173.059 100.652 172.952 100.964 172.914 101.288" stroke="#263238" stroke-linecap="round" stroke-linejoin="round"/>
<path d="M169.012 185.134C169.012 185.134 166.728 187.055 162.035 192.605C157.341 198.155 156.72 202.611 156.415 204.877C156.241 206.833 156.231 208.802 156.385 210.761L199.777 204.696C199.777 204.696 196.231 187.665 190.841 184.678C185.451 181.691 178.068 182.025 178.068 182.025C178.068 182.025 173.069 181.882 169.012 185.134Z" fill="#263238" stroke="#263238" stroke-linecap="round" stroke-linejoin="round"/>
<path d="M193.265 179.351C190.422 178.532 187.535 177.892 184.62 177.436C180.252 176.799 175.965 180.869 175.454 181.473C174.943 182.078 178.199 182.232 180.703 182.773C182.232 183.103 183.738 183.541 185.211 184.084C185.241 187.875 185.594 191.656 186.268 195.38C186.953 199.053 187.36 202.779 187.485 206.522L211.879 203.105C211.879 203.105 214.103 195.937 213.732 189.575C213.361 183.214 211.077 181.038 207.982 179.155C204.886 177.271 193.265 179.351 193.265 179.351Z" fill="#FF81AE" stroke="#263238" stroke-linecap="round" stroke-linejoin="round"/>
<path d="M184.555 185.729L188.016 189.878L183.493 189.352L184.555 185.729Z" fill="white" stroke="#263238" stroke-linecap="round" stroke-linejoin="round"/>
<path d="M180.322 181.42L184.555 185.729L183.413 192.748C183.413 192.748 181.114 189.146 180.563 186.731C180.233 184.984 180.152 183.194 180.322 181.42Z" fill="white" stroke="#263238" stroke-linecap="round" stroke-linejoin="round"/>
<path d="M167.9 175.515C167.9 175.515 169.813 180.768 170.109 183.134C170.405 185.5 170.61 186.62 170.61 186.62C170.61 186.62 177.016 189.984 179.32 191.432C181.625 192.881 183.423 193.979 183.438 192.732C183.453 191.485 181.76 187.352 181.369 184.201C180.978 181.049 181.474 174.21 181.474 174.21C181.474 174.21 178.444 177.574 175.964 177.924C173.485 178.274 167.9 175.515 167.9 175.515Z" fill="white" stroke="#263238" stroke-linecap="round" stroke-linejoin="round"/>
<path d="M175.939 177.935C175.033 178.062 173.71 177.765 172.403 177.346L168.656 177.69C169.282 179.452 169.768 181.266 170.109 183.113C170.134 183.325 170.159 183.516 170.184 183.707C171.505 183.639 172.818 183.443 174.106 183.123C176.836 182.423 180.282 181.256 181.194 180.943V180.678L177.217 177.531C176.81 177.726 176.38 177.862 175.939 177.935Z" fill="#263238" stroke="#263238" stroke-linecap="round" stroke-linejoin="round"/>
<path d="M169.248 182.964L178.284 188.026L182.101 193.019L177.237 191.114L175.589 195.438L167.249 185.824L169.248 182.964Z" fill="white" stroke="#263238" stroke-linecap="round" stroke-linejoin="round"/>
<path d="M177.237 191.114L178.284 188.026" stroke="#263238" stroke-linecap="round" stroke-linejoin="round"/>
<path d="M192.209 177.494C192.209 177.494 191.708 181.171 191.182 182.402C190.656 183.633 191.122 186.312 197.628 185.983C204.135 185.654 203.604 178.073 203.604 178.073L198.78 171.09C198.78 171.09 194.768 176.125 192.209 177.494Z" fill="white" stroke="#263238" stroke-linecap="round" stroke-linejoin="round"/>
<path d="M192.003 179.112C192.657 179.888 193.143 180.807 193.426 181.802L192.003 179.112Z" fill="white"/>
<path d="M192.003 179.112C192.657 179.888 193.143 180.807 193.426 181.802" stroke="#263238" stroke-linecap="round" stroke-linejoin="round"/>
<path d="M210.842 193.157C206.334 196.68 194.312 205.36 193.2 206.012C191.833 206.824 189.985 206.707 188.797 206.447C187.61 206.187 184.715 204.293 184.715 204.293C184.715 204.293 183.152 204.59 182.887 204.436C182.693 204.284 182.536 204.083 182.431 203.853L182.01 202.648C181.607 202.456 181.175 202.339 180.733 202.304C180.062 202.266 179.471 200.988 179.471 200.988C179.055 201.07 178.629 201.07 178.214 200.988C177.287 200.882 176.626 199.783 176.626 199.783L165.651 188.779L163.808 187.506C163.808 187.506 164.915 184.232 165.16 184.211C165.406 184.19 168.201 185.829 168.201 185.829C168.201 185.829 177.638 190.398 178.334 190.785C179.224 191.167 180.14 191.479 181.074 191.719C181.572 191.495 182.093 191.335 182.626 191.241L183.207 191.193L183.413 191.724L185.096 191.851L186.098 192.913C186.098 192.913 187.796 192.069 188.322 192.382C188.827 192.784 189.281 193.253 189.674 193.777L190.506 193.714C190.851 193.749 191.188 193.84 191.507 193.984C191.507 193.984 201.024 185.15 203.088 183.596" fill="white"/>
<path d="M210.842 193.157C206.334 196.68 194.312 205.36 193.2 206.012C191.833 206.824 189.985 206.707 188.797 206.447C187.61 206.187 184.715 204.293 184.715 204.293C184.715 204.293 183.152 204.59 182.887 204.436C182.693 204.284 182.536 204.083 182.431 203.853L182.01 202.648C181.607 202.456 181.175 202.339 180.733 202.304C180.062 202.266 179.471 200.988 179.471 200.988C179.055 201.07 178.629 201.07 178.214 200.988C177.287 200.882 176.626 199.783 176.626 199.783L165.651 188.779L163.808 187.506C163.808 187.506 164.915 184.232 165.16 184.211C165.406 184.19 168.201 185.829 168.201 185.829C168.201 185.829 177.638 190.398 178.334 190.785C179.224 191.167 180.14 191.479 181.074 191.719C181.572 191.495 182.093 191.335 182.626 191.241L183.207 191.193L183.413 191.724L185.096 191.851L186.098 192.913C186.098 192.913 187.796 192.069 188.322 192.382C188.827 192.784 189.281 193.253 189.674 193.777L190.506 193.714C190.851 193.749 191.188 193.84 191.507 193.984C191.507 193.984 201.024 185.15 203.088 183.596" stroke="#263238" stroke-linecap="round" stroke-linejoin="round"/>
<path d="M202.156 184.392C199.036 187.044 191.517 194.011 191.517 194.011C191.198 193.867 190.861 193.775 190.516 193.74L189.684 193.804C189.291 193.28 188.837 192.811 188.332 192.408C187.806 192.095 186.108 192.939 186.108 192.939L185.106 191.878L183.423 191.751L183.218 191.22L182.636 191.268C182.103 191.361 181.582 191.522 181.084 191.745C180.15 191.505 179.234 191.193 178.344 190.811C178.224 190.748 177.843 190.557 177.342 190.281C174.006 191.92 172.799 194.069 172.363 195.475L176.661 199.783C176.661 199.783 177.322 200.882 178.249 200.988C178.664 201.07 179.09 201.07 179.506 200.988C179.506 200.988 180.097 202.266 180.768 202.304C181.21 202.339 181.642 202.456 182.045 202.649L182.466 203.853C182.572 204.083 182.728 204.284 182.922 204.437C183.187 204.59 184.75 204.293 184.75 204.293C184.75 204.293 187.645 206.187 188.833 206.447C190.02 206.707 191.868 206.824 193.235 206.012C194.382 205.323 207.04 196.207 211.218 192.891" fill="#FF81AE"/>
<path d="M202.156 184.392C199.036 187.044 191.517 194.011 191.517 194.011C191.198 193.867 190.861 193.775 190.516 193.74L189.684 193.804C189.291 193.28 188.837 192.811 188.332 192.408C187.806 192.095 186.108 192.939 186.108 192.939L185.106 191.878L183.423 191.751L183.218 191.22L182.636 191.268C182.103 191.361 181.582 191.522 181.084 191.745C180.15 191.505 179.234 191.193 178.344 190.811C178.224 190.748 177.843 190.557 177.342 190.281C174.006 191.92 172.799 194.069 172.363 195.475L176.661 199.783C176.661 199.783 177.322 200.882 178.249 200.988C178.664 201.07 179.09 201.07 179.506 200.988C179.506 200.988 180.097 202.266 180.768 202.304C181.21 202.339 181.642 202.456 182.045 202.649L182.466 203.853C182.572 204.083 182.728 204.284 182.922 204.437C183.187 204.59 184.75 204.293 184.75 204.293C184.75 204.293 187.645 206.187 188.833 206.447C190.02 206.707 191.868 206.824 193.235 206.012C194.382 205.323 207.04 196.207 211.218 192.891" stroke="#263238" stroke-linecap="round" stroke-linejoin="round"/>
<path d="M158.949 188.047C158.949 188.047 156.946 192.069 156.67 192.732C156.395 193.395 157.567 193.852 157.567 193.852L159.465 194.913C159.465 194.913 160.702 194.027 160.938 193.905C161.374 193.477 161.658 192.904 161.744 192.281C161.689 191.841 161.639 191.406 161.639 191.406C161.639 191.406 162.385 190.679 162.981 190.058C163.577 189.437 162.811 187.32 162.425 186.933C162.04 186.546 159.826 186.323 158.949 188.047Z" fill="white" stroke="#263238" stroke-linecap="round" stroke-linejoin="round"/>
<path d="M161.288 189.84C161.288 189.84 160.517 191.109 160.241 191.591C159.843 192.116 159.395 192.596 158.904 193.024" stroke="#263238" stroke-linecap="round" stroke-linejoin="round"/>
<path d="M159.956 192.095C159.956 192.095 160.878 192.769 160.923 193.119C160.968 193.47 160.477 194.25 160.477 194.25" stroke="#263238" stroke-linecap="round" stroke-linejoin="round"/>
<path d="M160.497 191.04C160.497 191.04 161.824 191.57 161.744 192.292" stroke="#263238" stroke-linecap="round" stroke-linejoin="round"/>
<path d="M159.675 185.097C159.675 185.097 158.173 186.556 158.253 187.166C158.333 187.777 159.901 189.607 161.023 190.52C162.145 191.432 162.525 190.663 162.946 190.429C163.367 190.196 162.946 189.809 162.055 188.684C161.163 187.559 159.675 185.097 159.675 185.097Z" fill="white" stroke="#263238" stroke-linecap="round" stroke-linejoin="round"/>
<path d="M160.938 183.766C160.607 183.775 160.291 183.918 160.057 184.166C159.822 184.413 159.686 184.747 159.675 185.097C159.51 186.455 160.963 188.037 161.724 188.732C162.312 189.317 163.028 189.739 163.808 189.957C164.234 189.957 164.219 189.188 164.219 189.188C164.219 189.188 162.215 186.005 161.899 185.41C161.584 184.816 160.938 183.766 160.938 183.766Z" fill="white" stroke="#263238" stroke-linecap="round" stroke-linejoin="round"/>
<path d="M164.744 181.882C165.484 182.012 166.211 182.209 166.918 182.471C167.459 182.752 169.463 184.699 169.423 185.771C169.383 186.843 168.496 185.723 168.151 185.681C167.805 185.638 166.698 184.089 166.698 184.089L165.696 184.137L164.744 181.882Z" fill="white" stroke="#263238" stroke-linecap="round" stroke-linejoin="round"/>
<path d="M162.956 182.412C162.956 182.412 161.544 182.524 160.978 183.405C160.412 184.285 163.432 188.938 164.218 189.188C164.317 189.227 164.423 189.245 164.528 189.24C164.634 189.236 164.737 189.21 164.833 189.163C164.929 189.116 165.015 189.05 165.087 188.967C165.159 188.885 165.214 188.789 165.25 188.684L162.956 182.412Z" fill="white" stroke="#263238" stroke-linecap="round" stroke-linejoin="round"/>
<path d="M165.295 182.805C165.295 182.805 166.718 187.506 166.693 187.952C166.668 188.397 165.27 188.684 165.27 188.684C165.27 188.684 162.871 183.585 162.976 182.412C163.082 181.24 164.719 181.012 165.295 182.805Z" fill="white" stroke="#263238" stroke-linecap="round" stroke-linejoin="round"/>
<path d="M187.766 157.439C187.766 157.439 185.171 161.1 185.326 162.341C185.518 163.731 185.56 165.138 185.451 166.538C185.023 167.901 184.521 169.236 183.949 170.538C183.949 170.538 183.633 171.212 183.949 171.52L184.555 172.141C184.555 172.141 184.625 173.255 184.71 173.945C184.795 174.634 185.091 175.929 185.126 176.205C185.161 176.481 186.088 177.542 186.278 178.009C186.468 178.476 186.599 180.073 187.44 180.444C188.282 180.816 190.495 179.951 191.487 179.383C192.479 178.815 195.6 176.2 195.6 176.2C195.6 176.2 197.378 174.475 197.177 172.326C196.977 170.178 196.436 164.776 194.468 162.246C192.499 159.715 190.005 156.76 189.914 156.558C189.824 156.356 188.292 156.309 187.766 157.439Z" fill="white" stroke="#263238" stroke-linecap="round" stroke-linejoin="round"/>
<path d="M187.044 167.196L186.784 167.896C186.784 167.896 187.395 168.326 188.983 167.737" stroke="#263238" stroke-linecap="round" stroke-linejoin="round"/>
<path d="M186.699 164.373C186.699 164.373 187.58 163.662 189.343 165.031" stroke="#263238" stroke-linecap="round" stroke-linejoin="round"/>
<path d="M181.434 160.802C181.545 160.574 183.102 157.46 183.172 156.924C183.243 156.388 179.666 153.21 175.584 153.21C171.502 153.21 164.945 155.332 162.22 158.654C159.495 161.975 159.465 168.612 160.507 170.103C161.273 171.102 162.224 171.924 163.302 172.517C163.302 172.517 166.217 175.929 166.488 176.359C166.758 176.788 168.156 179.473 169.273 179.866C170.39 180.258 171.522 180.174 172.043 179.791C172.389 179.483 172.636 179.067 172.749 178.603L172.273 177.011C172.273 177.011 174.702 176.518 175.113 175.213C175.524 173.907 174.357 171.424 175.063 170.236C175.769 169.047 179.381 165.991 180.668 164.861L181.434 160.802Z" fill="#263238" stroke="#263238" stroke-linecap="round" stroke-linejoin="round"/>
<path d="M181.434 160.802C181.434 160.802 183.102 163.662 183.228 164.639L183.588 167.567C183.588 167.567 185.852 170.411 186.203 170.804C186.553 171.196 186.083 172.257 186.083 172.257L185.582 172.926C185.409 173.309 185.356 173.74 185.431 174.157L185.602 174.688L185.722 175.664C185.948 175.871 186.121 176.135 186.223 176.433C186.393 177.791 187.225 178.661 185.997 179.723C184.854 180.624 183.506 181.19 182.09 181.362C179.623 181.604 177.135 181.391 174.737 180.731C173.054 180.2 171.732 178.391 171.732 178.391C171.732 178.391 168.857 178.014 167.429 177.112C166.002 176.21 166.848 172.443 168.767 172.401C170.685 172.358 172.273 174.56 172.273 174.56L173.43 174.953L172.473 172.104C173.666 170.715 174.525 169.043 174.978 167.228C174.978 167.228 179.451 165.164 181.434 160.802Z" fill="white" stroke="#263238" stroke-linecap="round" stroke-linejoin="round"/>
<path d="M177.848 168.48C178.006 167.833 178.351 167.254 178.834 166.825C179.317 166.395 179.914 166.135 180.543 166.082" stroke="#263238" stroke-width="2" stroke-linecap="round" stroke-linejoin="round"/>
<path d="M180.598 168.252L181.154 169.265C181.154 169.265 181.154 170.278 179.426 170.284" stroke="#263238" stroke-linecap="round" stroke-linejoin="round"/>
<path d="M215.18 175.865C215.068 175.584 214.935 175.313 214.784 175.054C214.3 174.235 213.727 173.48 213.076 172.804C212.647 172.291 212.169 171.827 211.648 171.419C210.827 170.703 210.146 170.215 209.71 169.774C209.418 169.139 209.248 168.448 209.209 167.742C208.838 164.209 208.623 158.887 206.148 156.563C203.674 154.239 197.353 151.958 193.586 153.115C189.819 154.271 185.847 155.948 187.756 157.439C187.756 157.439 189.148 157.969 189.549 160.134C189.688 161.12 190.014 162.066 190.507 162.914C191.001 163.763 191.651 164.498 192.419 165.074C193.952 166.193 194.858 169.79 193.781 172.326C192.704 174.863 192.719 178.725 194.007 180.02C194.416 180.404 194.867 180.737 195.349 181.012L195.309 181.044C195.309 181.044 198.164 183.092 198.39 184.896C198.615 186.7 196.03 186.859 196.236 189.278C196.441 191.698 198.595 193.523 200.198 194.053C201.279 194.352 202.398 194.47 203.514 194.403C203.514 194.403 201.931 193.3 202.622 191.878C203.313 190.456 207.786 190.037 210.862 189.199C213.937 188.36 216.031 184.296 215.951 180.534C215.995 178.939 215.733 177.35 215.18 175.865Z" fill="#263238" stroke="#263238" stroke-linecap="round" stroke-linejoin="round"/>
<path d="M128.58 10.6513L153.92 214.777L221.977 205.301L196.636 1.17529L128.58 10.6513ZM217.955 202.256L157.061 210.745L149.212 147.501L210.106 139.012L217.955 202.256ZM209.76 136.253L148.866 144.742L141.017 81.4823L201.911 72.9932L209.76 136.253ZM201.565 70.2236L140.671 78.7127L132.822 15.4688L193.716 6.97972L201.565 70.2236Z" fill="white" stroke="#263238" stroke-linecap="round" stroke-linejoin="round"/>
<path d="M141.077 102.769H86.149V234.541H141.077V102.769Z" fill="#8F8F8F" stroke="#263238" stroke-linecap="round" stroke-linejoin="round"/>
<path d="M137.075 189.665H130.899V233.347H137.075V189.665Z" fill="#696969" stroke="#263238" stroke-linecap="round" stroke-linejoin="round"/>
<path d="M120.175 188.132L115.687 221.765L119.438 222.524L127.247 193.077L132.021 188.907L120.175 188.132Z" fill="#263238" stroke="#263238" stroke-linecap="round" stroke-linejoin="round"/>
<path d="M115.511 221.266C115.511 221.266 112.591 224.354 111.239 225.208C110.661 225.596 110.058 225.942 109.436 226.243C109.436 226.243 104.086 227.193 103.856 227.951C103.625 228.71 103.856 229.543 104.256 229.776C104.657 230.01 108.063 230.498 110.538 230.631C113.012 230.763 116.148 230.265 117.926 230.721C119.704 231.177 120.255 229.819 120.355 228.843C120.455 227.866 119.453 222.253 119.453 222.253L115.511 221.266Z" fill="white" stroke="#263238" stroke-linecap="round" stroke-linejoin="round"/>
<path d="M117.926 230.721C119.704 231.177 120.255 229.819 120.355 228.843V228.806C120.14 228.832 119.914 228.864 119.669 228.912C116.978 229.402 114.248 229.599 111.519 229.501C108.922 229.278 106.339 228.904 103.78 228.381C103.74 228.637 103.762 228.9 103.846 229.145C103.929 229.389 104.07 229.607 104.256 229.776C104.632 230.005 108.063 230.498 110.538 230.631C113.012 230.763 116.148 230.265 117.926 230.721Z" fill="white" stroke="#263238" stroke-linecap="round" stroke-linejoin="round"/>
<path d="M128.014 187.999L111.369 221.956L114.82 223.548C114.82 223.548 130.478 201.991 131.47 200.388C132.462 198.786 138.422 191.496 138.422 191.496L128.014 187.999Z" fill="#263238" stroke="#263238" stroke-linecap="round" stroke-linejoin="round"/>
<path d="M111.369 221.951C110.161 222.705 108.908 223.375 107.617 223.956C105.889 224.694 100.73 226.078 100.515 227.861C100.299 229.644 103.62 231.045 106.616 231.236C109.611 231.427 112.857 229.103 112.857 229.103L114.82 223.537L111.369 221.951Z" fill="white" stroke="#263238" stroke-linecap="round" stroke-linejoin="round"/>
<path d="M100.75 227.293C100.626 227.457 100.545 227.653 100.515 227.861C100.294 229.649 103.62 231.045 106.616 231.236C109.611 231.427 112.857 229.103 112.857 229.103L113.553 227.134C112.471 227.755 108.809 229.734 106.17 229.708C103.796 229.665 101.652 228.068 100.75 227.293Z" fill="white" stroke="#263238" stroke-linecap="round" stroke-linejoin="round"/>
<path d="M114.485 187.479C114.485 187.479 106.886 196.207 107.192 197.597C107.497 198.988 114.334 225.919 114.334 225.919L118.387 225.723L116.709 198.25L124.848 189.145L114.485 187.479Z" fill="white" stroke="#263238" stroke-linecap="round" stroke-linejoin="round"/>
<path d="M114.359 225.389C114.359 225.389 111.434 229.241 110.633 229.633C109.831 230.026 106.761 231.363 106.345 231.893C105.929 232.424 106.681 233.018 106.681 233.018C106.681 233.018 119.333 233.284 119.859 233.172C120.385 233.061 118.387 225.744 118.387 225.744L114.359 225.389Z" fill="#FF81AE" stroke="#263238" stroke-linecap="round" stroke-linejoin="round"/>
<path d="M106.345 231.846C105.929 232.376 106.681 232.97 106.681 232.97C106.681 232.97 119.333 233.236 119.859 233.124C120.014 233.092 119.949 232.419 119.779 231.495L106.415 231.777C106.39 231.797 106.366 231.82 106.345 231.846Z" fill="white" stroke="#263238" stroke-linecap="round" stroke-linejoin="round"/>
<path d="M119.278 188.535C119.278 188.535 111.765 194.743 111.624 197.178C111.484 199.614 103.485 222.858 103.109 224.237C102.734 225.617 106.926 226.89 106.926 226.89C106.926 226.89 112.726 215.711 115.531 212.034C118.336 208.357 122.153 197.417 122.153 197.417L140 188.625L119.278 188.535Z" fill="white" stroke="#263238" stroke-linecap="round" stroke-linejoin="round"/>
<path d="M103.094 224.232L92.9161 223.877C92.9161 223.877 90.8023 223.765 91.9494 225.107C93.0964 226.45 103.971 233.443 103.971 233.443L106.931 226.874L103.094 224.232Z" fill="#FF81AE" stroke="#263238" stroke-linecap="round" stroke-linejoin="round"/>
<path d="M104.592 232.026L92.6656 223.876C92.1397 223.876 91.0627 224.062 91.9543 225.107C93.1014 226.45 103.976 233.443 103.976 233.443L104.592 232.026Z" fill="white" stroke="#263238" stroke-linecap="round" stroke-linejoin="round"/>
<path d="M89.6152 107.438V193.586C93.2612 192.804 97.0262 192.894 100.635 193.852C108.429 195.809 110.372 196.462 118.817 194.181C127.262 191.899 128.88 192.552 136.674 194.181C138.278 194.522 139.907 194.714 141.543 194.754V107.438H89.6152Z" fill="#263238" stroke="#263238" stroke-miterlimit="10"/>
<path d="M97.2187 117.72L97.1736 119.657" stroke="#A3A3A3" stroke-linecap="round" stroke-linejoin="round"/>
<path d="M97.399 109.656L97.2538 116.07" stroke="#A3A3A3" stroke-linecap="round" stroke-linejoin="round"/>
<path d="M98.9218 163.816L98.9719 165.519" stroke="#A3A3A3" stroke-linecap="round" stroke-linejoin="round"/>
<path d="M98.3007 111.083L98.8917 161.312" stroke="#A3A3A3" stroke-linecap="round" stroke-linejoin="round"/>
<path d="M107.066 116.537V118.468" stroke="#A3A3A3" stroke-linecap="round" stroke-linejoin="round"/>
<path d="M107.066 109.894V114.176" stroke="#A3A3A3" stroke-linecap="round" stroke-linejoin="round"/>
<path d="M115.612 167.196V175.579" stroke="#A3A3A3" stroke-linecap="round" stroke-linejoin="round"/>
<path d="M115.612 133.478V161.487" stroke="#A3A3A3" stroke-linecap="round" stroke-linejoin="round"/>
<path d="M115.612 110.372V131.34" stroke="#A3A3A3" stroke-linecap="round" stroke-linejoin="round"/>
<path d="M118.116 118.203L118.306 119.418" stroke="#A3A3A3" stroke-linecap="round" stroke-linejoin="round"/>
<path d="M116.959 110.844L117.931 117.015" stroke="#A3A3A3" stroke-linecap="round" stroke-linejoin="round"/>
<path d="M123.14 124.671L123.03 126.804" stroke="#A3A3A3" stroke-linecap="round" stroke-linejoin="round"/>
<path d="M123.926 109.656L123.245 122.665" stroke="#A3A3A3" stroke-linecap="round" stroke-linejoin="round"/>
<path d="M126.847 113.799L127.748 117.752" stroke="#A3A3A3" stroke-linecap="round" stroke-linejoin="round"/>
<path d="M125.95 109.894L126.626 112.828" stroke="#A3A3A3" stroke-linecap="round" stroke-linejoin="round"/>
<path d="M132.612 125.504L130.914 152.388" stroke="#A3A3A3" stroke-linecap="round" stroke-linejoin="round"/>
<path d="M133.373 110.844L132.717 123.503" stroke="#A3A3A3" stroke-linecap="round" stroke-linejoin="round"/>
<path d="M135.557 117.497L135.843 120.851" stroke="#A3A3A3" stroke-linecap="round" stroke-linejoin="round"/>
<path d="M135.172 112.987L135.467 116.452" stroke="#A3A3A3" stroke-linecap="round" stroke-linejoin="round"/>
<path d="M98.6112 103.968H96.8531V108.069H98.6112V103.968Z" fill="white" stroke="#263238" stroke-linecap="round" stroke-linejoin="round"/>
<path d="M107.587 103.968H105.829V108.069H107.587V103.968Z" fill="white" stroke="#263238" stroke-linecap="round" stroke-linejoin="round"/>
<path d="M116.563 103.968H114.805V108.069H116.563V103.968Z" fill="white" stroke="#263238" stroke-linecap="round" stroke-linejoin="round"/>
<path d="M125.539 103.968H123.781V108.069H125.539V103.968Z" fill="white" stroke="#263238" stroke-linecap="round" stroke-linejoin="round"/>
<path d="M134.515 103.968H132.757V108.069H134.515V103.968Z" fill="white" stroke="#263238" stroke-linecap="round" stroke-linejoin="round"/>
<path d="M69.6244 81.0737H32.5582V236H69.6244V81.0737Z" fill="#263238" stroke="#263238" stroke-linecap="round" stroke-linejoin="round"/>
<path d="M47.585 81.0737V236H143.256V81.0737H47.585ZM139.75 233.347H91.6638V104.949H139.75V233.347Z" fill="white" stroke="#263238" stroke-linecap="round" stroke-linejoin="round"/>
<path d="M140.251 83.7266H50.5904V101.235H140.251V83.7266Z" fill="white" stroke="#263238" stroke-linecap="round" stroke-linejoin="round"/>
<path d="M87.6316 105.522H50.5904V183.15H87.6316V105.522Z" fill="white" stroke="#263238" stroke-linecap="round" stroke-linejoin="round"/>
<path d="M54.9432 148.79H62.9825" stroke="#263238" stroke-linecap="round" stroke-linejoin="round"/>
<path d="M54.9432 151.682H62.9825" stroke="#263238" stroke-linecap="round" stroke-linejoin="round"/>
<path d="M54.9432 154.573H62.9825" stroke="#263238" stroke-linecap="round" stroke-linejoin="round"/>
<path d="M54.9432 157.465H62.9825" stroke="#263238" stroke-linecap="round" stroke-linejoin="round"/>
<path d="M54.9432 160.362H62.9825" stroke="#263238" stroke-linecap="round" stroke-linejoin="round"/>
<path d="M54.9432 163.254H62.9825" stroke="#263238" stroke-linecap="round" stroke-linejoin="round"/>
<path d="M54.9432 166.145H62.9825" stroke="#263238" stroke-linecap="round" stroke-linejoin="round"/>
<path d="M54.9432 169.037H62.9825" stroke="#263238" stroke-linecap="round" stroke-linejoin="round"/>
<path d="M54.9432 171.928H62.9825" stroke="#263238" stroke-linecap="round" stroke-linejoin="round"/>
<path d="M54.9432 174.82H62.9825" stroke="#263238" stroke-linecap="round" stroke-linejoin="round"/>
<path d="M64.9911 148.79H73.0355" stroke="#263238" stroke-linecap="round" stroke-linejoin="round"/>
<path d="M64.9911 151.682H73.0355" stroke="#263238" stroke-linecap="round" stroke-linejoin="round"/>
<path d="M64.9911 154.573H73.0355" stroke="#263238" stroke-linecap="round" stroke-linejoin="round"/>
<path d="M64.9911 157.465H73.0355" stroke="#263238" stroke-linecap="round" stroke-linejoin="round"/>
<path d="M64.9911 160.362H73.0355" stroke="#263238" stroke-linecap="round" stroke-linejoin="round"/>
<path d="M64.9911 163.254H73.0355" stroke="#263238" stroke-linecap="round" stroke-linejoin="round"/>
<path d="M64.9911 166.145H73.0355" stroke="#263238" stroke-linecap="round" stroke-linejoin="round"/>
<path d="M64.9911 169.037H73.0355" stroke="#263238" stroke-linecap="round" stroke-linejoin="round"/>
<path d="M64.9911 171.928H73.0355" stroke="#263238" stroke-linecap="round" stroke-linejoin="round"/>
<path d="M64.9911 174.82H73.0355" stroke="#263238" stroke-linecap="round" stroke-linejoin="round"/>
<path d="M75.0441 148.79H83.0835" stroke="#263238" stroke-linecap="round" stroke-linejoin="round"/>
<path d="M75.0441 151.682H83.0835" stroke="#263238" stroke-linecap="round" stroke-linejoin="round"/>
<path d="M75.0441 154.573H83.0835" stroke="#263238" stroke-linecap="round" stroke-linejoin="round"/>
<path d="M75.0441 157.465H83.0835" stroke="#263238" stroke-linecap="round" stroke-linejoin="round"/>
<path d="M75.0441 160.362H83.0835" stroke="#263238" stroke-linecap="round" stroke-linejoin="round"/>
<path d="M75.0441 163.254H83.0835" stroke="#263238" stroke-linecap="round" stroke-linejoin="round"/>
<path d="M75.0441 166.145H83.0835" stroke="#263238" stroke-linecap="round" stroke-linejoin="round"/>
<path d="M75.0441 169.037H83.0835" stroke="#263238" stroke-linecap="round" stroke-linejoin="round"/>
<path d="M75.0441 171.928H83.0835" stroke="#263238" stroke-linecap="round" stroke-linejoin="round"/>
<path d="M75.0441 174.82H83.0835" stroke="#263238" stroke-linecap="round" stroke-linejoin="round"/>
<path d="M87.6316 105.522H50.5904V141.569H87.6316V105.522Z" fill="#FF81AE" stroke="#263238" stroke-linecap="round" stroke-linejoin="round"/>
<path d="M82.9432 110.085H55.2788V137.006H82.9432V110.085Z" fill="white" stroke="#263238" stroke-linecap="round" stroke-linejoin="round"/>
<path d="M77.774 85.2599C79.7776 85.2599 80.6592 86.528 80.6592 88.5866V90.2207C80.6592 92.3854 79.7025 93.5102 77.6538 93.5102H76.3865V98.8849H74.954V85.2599H77.774ZM77.6638 92.1573C78.7307 92.1573 79.2416 91.6267 79.2416 90.3268V88.5017C79.2416 87.2548 78.8209 86.6341 77.774 86.6341H76.3966V92.1414L77.6638 92.1573Z" fill="#263238"/>
<path d="M83.2688 92.7462V98.8796H81.8312V85.2599H83.2688V91.3933H86.4244V85.2599H87.862V98.8849H86.4244V92.7462H83.2688Z" fill="#263238"/>
<path d="M89.2195 88.5494C89.2195 86.4643 90.1912 85.1219 92.1597 85.1219C94.1283 85.1219 95.12 86.4643 95.12 88.5494V95.5954C95.12 97.6593 94.1182 99.0229 92.1597 99.0229C90.2012 99.0229 89.2195 97.6593 89.2195 95.5954V88.5494ZM90.632 95.675C90.632 96.9165 91.1329 97.6381 92.1597 97.6381C93.1866 97.6381 93.6624 96.9165 93.6624 95.675V88.4698C93.6624 87.2442 93.1866 86.5067 92.1597 86.5067C91.1329 86.5067 90.632 87.2442 90.632 88.4698V95.675Z" fill="#263238"/>
<path d="M98.3507 98.8849V86.6447H95.9815V85.2599H102.153V86.6447H99.7833V98.8849H98.3507Z" fill="#263238"/>
<path d="M103.034 88.5494C103.034 86.4643 104.036 85.1219 105.974 85.1219C107.913 85.1219 108.935 86.4643 108.935 88.5494V95.5954C108.935 97.6593 107.963 99.0229 105.974 99.0229C103.986 99.0229 103.034 97.6593 103.034 95.5954V88.5494ZM104.452 95.675C104.452 96.9165 104.953 97.6381 105.954 97.6381C106.956 97.6381 107.482 96.9165 107.482 95.675V88.4698C107.482 87.2442 106.981 86.5067 105.954 86.5067C104.928 86.5067 104.452 87.2442 104.452 88.4698V95.675Z" fill="#263238"/>
<path d="M115.862 88.5282V88.8996H114.5V88.4539C114.5 87.2283 114.059 86.5067 113.032 86.5067C112.005 86.5067 111.559 87.2283 111.559 88.4327C111.559 91.4888 115.877 91.7806 115.877 95.6166C115.877 97.6752 114.94 99.0229 112.977 99.0229C111.013 99.0229 110.092 97.6752 110.092 95.6166V94.8367H111.434V95.6909C111.434 96.9165 111.91 97.6381 112.937 97.6381C113.964 97.6381 114.44 96.9165 114.44 95.6909C114.44 92.656 110.142 92.3642 110.142 88.5282C110.142 86.4059 111.058 85.1219 112.992 85.1219C114.925 85.1219 115.862 86.4643 115.862 88.5282Z" fill="#263238"/>
<path d="M63.1829 112.712H58.725V118.028H63.1829V112.712Z" fill="#263238"/>
<path d="M63.1829 120.686H58.725V126.002H63.1829V120.686Z" fill="#263238"/>
<path d="M63.1829 128.661H58.725V133.977H63.1829V128.661Z" fill="#263238"/>
<path d="M71.1472 112.712H66.6892V118.028H71.1472V112.712Z" fill="#263238"/>
<path d="M71.1472 120.686H66.6892V126.002H71.1472V120.686Z" fill="#263238"/>
<path d="M71.1472 128.661H66.6892V133.977H71.1472V128.661Z" fill="#263238"/>
<path d="M79.1114 112.712H74.6534V118.028H79.1114V112.712Z" fill="#263238"/>
<path d="M79.1114 120.686H74.6534V126.002H79.1114V120.686Z" fill="#263238"/>
<path d="M79.1114 128.661H74.6534V133.977H79.1114V128.661Z" fill="#263238"/>
<path d="M70.7815 208.554H55.4892V221.038H70.7815V208.554Z" fill="#263238"/>
<path d="M139.75 143.57V233.347H91.6638V183.559C86.6198 188.297 81.9615 192.398 78.1096 195.056C67.6208 202.309 54.853 204.696 47.585 205.471V236H143.256V142.37C142.191 142.721 141.022 143.12 139.75 143.57Z" fill="#FF81AE" stroke="#263238" stroke-linecap="round" stroke-linejoin="round"/>
<path d="M11.7661 141.155L18.8287 212.835" stroke="#263238" stroke-width="2" stroke-miterlimit="10"/>
<path d="M17.6866 199.12L14.4859 195.539" stroke="#263238" stroke-width="2" stroke-miterlimit="10"/>
<path d="M15.4576 196.611C15.4527 196.063 15.3365 195.522 15.117 195.026C14.8975 194.53 14.5797 194.089 14.1853 193.735C13.3639 192.955 9.04115 191.029 8.63042 192.642C8.17961 194.398 12.6075 197.847 15.4576 196.611Z" fill="#FF81AE" stroke="#263238" stroke-miterlimit="10"/>
<path d="M15.4576 196.611L11.3403 193.894" stroke="#263238" stroke-width="0.5" stroke-miterlimit="10"/>
<path d="M18.4931 207.27L15.2924 203.688" stroke="#263238" stroke-width="2" stroke-miterlimit="10"/>
<path d="M16.2641 204.765C16.2573 204.217 16.1398 203.676 15.9195 203.179C15.6992 202.682 15.3812 202.24 14.9868 201.884C14.1653 201.11 9.8426 199.184 9.43186 200.797C8.98607 202.574 13.414 205.996 16.2641 204.765Z" fill="#FF81AE" stroke="#263238" stroke-miterlimit="10"/>
<path d="M16.2641 204.765L12.1467 202.044" stroke="#263238" stroke-width="0.5" stroke-miterlimit="10"/>
<path d="M15.7281 179.229L12.5274 175.642" stroke="#263238" stroke-width="2" stroke-miterlimit="10"/>
<path d="M13.5242 176.719C13.5176 176.172 13.4007 175.632 13.1813 175.136C12.9619 174.64 12.645 174.2 12.2519 173.844C11.4304 173.064 7.10272 171.138 6.69198 172.751C6.22114 174.507 10.6491 177.95 13.5242 176.719Z" fill="#FF81AE" stroke="#263238" stroke-miterlimit="10"/>
<path d="M13.4991 176.719L9.38177 174.003" stroke="#263238" stroke-width="0.5" stroke-miterlimit="10"/>
<path d="M16.5295 187.379L13.3288 183.797" stroke="#263238" stroke-width="2" stroke-miterlimit="10"/>
<path d="M14.3055 184.869C14.2977 184.321 14.1793 183.78 13.9581 183.284C13.7369 182.788 13.4182 182.348 13.0232 181.993C12.2018 181.219 7.87905 179.287 7.46832 180.9C7.0125 182.657 11.4504 186.126 14.3055 184.869Z" fill="#FF81AE" stroke="#263238" stroke-miterlimit="10"/>
<path d="M14.3056 184.869L10.1832 182.153" stroke="#263238" stroke-width="0.5" stroke-miterlimit="10"/>
<path d="M14.4258 165.986L11.22 162.405" stroke="#263238" stroke-width="2" stroke-miterlimit="10"/>
<path d="M12.1968 163.476C12.1902 162.928 12.0728 162.388 11.8525 161.892C11.6322 161.396 11.314 160.956 10.9195 160.601C10.098 159.821 5.77531 157.895 5.36457 159.508C4.91878 161.264 9.34168 164.707 12.1968 163.476Z" fill="#FF81AE" stroke="#263238" stroke-miterlimit="10"/>
<path d="M12.1968 163.477L8.07947 160.76" stroke="#263238" stroke-width="0.5" stroke-miterlimit="10"/>
<path d="M13.1134 152.685L9.91272 149.103" stroke="#263238" stroke-width="2" stroke-miterlimit="10"/>
<path d="M10.8844 150.175C10.8779 149.627 10.761 149.088 10.5416 148.592C10.3221 148.096 10.0053 147.655 9.61217 147.299C8.7907 146.519 4.46297 144.593 4.05223 146.206C3.60644 147.963 8.01431 151.406 10.8844 150.175Z" fill="#FF81AE" stroke="#263238" stroke-miterlimit="10"/>
<path d="M10.8844 150.175L6.76709 147.459" stroke="#263238" stroke-width="0.5" stroke-miterlimit="10"/>
<path d="M17.1506 194.297L19.585 190.09" stroke="#263238" stroke-width="2" stroke-miterlimit="10"/>
<path d="M18.8437 191.353C18.7416 190.813 18.7506 190.256 18.8699 189.721C18.9891 189.185 19.216 188.683 19.5349 188.249C20.1861 187.31 24.043 184.476 24.7592 185.967C25.5456 187.596 21.8741 191.963 18.8437 191.353Z" fill="#FF81AE" stroke="#263238" stroke-miterlimit="10"/>
<path d="M18.8437 191.353L22.5503 187.601" stroke="#263238" stroke-width="0.5" stroke-miterlimit="10"/>
<path d="M15.0369 172.846L17.4712 168.639" stroke="#263238" stroke-width="2" stroke-miterlimit="10"/>
<path d="M16.7299 169.902C16.6287 169.364 16.6375 168.81 16.7559 168.276C16.8743 167.742 17.0994 167.242 17.4161 166.808C18.0673 165.869 21.9242 163.036 22.6404 164.527C23.4168 166.145 19.7603 170.485 16.7299 169.902Z" fill="#FF81AE" stroke="#263238" stroke-miterlimit="10"/>
<path d="M16.7299 169.902L20.4365 166.145" stroke="#263238" stroke-width="0.5" stroke-miterlimit="10"/>
<path d="M14.1102 163.418L16.5446 159.211" stroke="#263238" stroke-width="2" stroke-miterlimit="10"/>
<path d="M15.7983 160.473C15.6984 159.936 15.7079 159.382 15.8262 158.848C15.9446 158.315 16.169 157.814 16.4845 157.38C17.1407 156.441 20.9925 153.608 21.7088 155.099C22.4902 156.717 18.8287 161.057 15.7983 160.473Z" fill="#FF81AE" stroke="#263238" stroke-miterlimit="10"/>
<path d="M15.7982 160.473L19.5099 156.722" stroke="#263238" stroke-width="0.5" stroke-miterlimit="10"/>
<path d="M12.7478 149.597L15.1822 145.389" stroke="#263238" stroke-width="2" stroke-miterlimit="10"/>
<path d="M14.4358 146.652C14.3359 146.115 14.3455 145.56 14.4638 145.027C14.5821 144.494 14.8065 143.993 15.1221 143.559C15.7782 142.62 19.6301 139.787 20.3514 141.277C21.1278 142.896 17.4662 147.236 14.4358 146.652Z" fill="#FF81AE" stroke="#263238" stroke-miterlimit="10"/>
<path d="M14.4358 146.652L18.1474 142.901" stroke="#263238" stroke-width="0.5" stroke-miterlimit="10"/>
<path d="M11.706 140.757C11.6047 140.22 11.6136 139.666 11.732 139.132C11.8504 138.598 12.0755 138.098 12.3922 137.664C13.0433 136.725 16.9002 133.892 17.6165 135.383C18.3929 137.001 14.7364 141.341 11.706 140.757Z" fill="#FF81AE" stroke="#263238" stroke-miterlimit="10"/>
<path d="M11.7059 140.757L15.4126 137.006" stroke="#263238" stroke-width="0.5" stroke-miterlimit="10"/>
<path d="M11.9213 140.922C11.4046 140.97 10.8842 140.9 10.3951 140.717C9.906 140.534 9.45969 140.242 9.08627 139.861C8.27482 139.086 6.01077 134.73 7.51345 134.131C9.09628 133.478 12.7879 137.792 11.9213 140.922Z" fill="#FF81AE" stroke="#263238" stroke-miterlimit="10"/>
<path d="M11.9213 140.922L8.78571 136.619" stroke="#263238" stroke-width="0.5" stroke-miterlimit="10"/>
<path d="M30.3943 151.029L23.3718 222.715" stroke="#263238" stroke-width="2" stroke-miterlimit="10"/>
<path d="M24.9195 209.042L22.4852 204.84" stroke="#263238" stroke-width="2" stroke-miterlimit="10"/>
<path d="M23.2265 206.102C23.3281 205.565 23.3194 205.01 23.201 204.477C23.0826 203.943 22.8573 203.443 22.5403 203.009C21.8891 202.07 18.0323 199.237 17.316 200.728C16.5296 202.346 20.2011 206.686 23.2265 206.102Z" fill="#FF81AE" stroke="#263238" stroke-miterlimit="10"/>
<path d="M23.2265 206.102L19.7253 202.542" stroke="#263238" stroke-width="0.5" stroke-miterlimit="10"/>
<path d="M26.873 189.145L24.4337 184.943" stroke="#263238" stroke-width="2" stroke-miterlimit="10"/>
<path d="M25.175 186.206C25.2762 185.669 25.2673 185.114 25.1489 184.581C25.0305 184.047 24.8054 183.546 24.4887 183.113C23.8376 182.174 19.9807 179.346 19.2644 180.831C18.483 182.455 22.1496 186.79 25.175 186.206Z" fill="#FF81AE" stroke="#263238" stroke-miterlimit="10"/>
<path d="M25.175 186.206L21.6788 182.651" stroke="#263238" stroke-width="0.5" stroke-miterlimit="10"/>
<path d="M26.0716 197.3L23.6373 193.098" stroke="#263238" stroke-width="2" stroke-miterlimit="10"/>
<path d="M24.3786 194.361C24.4785 193.823 24.469 193.269 24.3506 192.736C24.2323 192.202 24.0079 191.702 23.6924 191.268C23.0362 190.329 19.1843 187.495 18.463 188.986C17.6866 190.604 21.3482 194.944 24.3786 194.361Z" fill="#FF81AE" stroke="#263238" stroke-miterlimit="10"/>
<path d="M24.3786 194.361L20.8773 190.801" stroke="#263238" stroke-width="0.5" stroke-miterlimit="10"/>
<path d="M28.1704 175.902L25.731 171.7" stroke="#263238" stroke-width="2" stroke-miterlimit="10"/>
<path d="M26.4723 172.963C26.5738 172.426 26.5651 171.871 26.4467 171.337C26.3283 170.804 26.103 170.303 25.7861 169.87C25.1349 168.931 21.278 166.103 20.5617 167.588C19.7853 169.212 23.4469 173.547 26.4723 172.963Z" fill="#FF81AE" stroke="#263238" stroke-miterlimit="10"/>
<path d="M26.4723 172.963L22.9761 169.403" stroke="#263238" stroke-width="0.5" stroke-miterlimit="10"/>
<path d="M29.4727 162.601L27.0333 158.399" stroke="#263238" stroke-width="2" stroke-miterlimit="10"/>
<path d="M27.7797 159.662C27.8792 159.124 27.869 158.569 27.7498 158.036C27.6306 157.502 27.4051 157.002 27.0884 156.568C26.4373 155.629 22.5804 152.801 21.8641 154.287C21.0877 155.911 24.7492 160.245 27.7797 159.662Z" fill="#FF81AE" stroke="#263238" stroke-miterlimit="10"/>
<path d="M27.7796 159.662L24.2784 156.102" stroke="#263238" stroke-width="0.5" stroke-miterlimit="10"/>
<path d="M25.3353 204.203L28.531 200.622" stroke="#263238" stroke-width="2" stroke-miterlimit="10"/>
<path d="M27.5493 201.693C27.5558 201.146 27.6727 200.606 27.8921 200.11C28.1116 199.614 28.4284 199.173 28.8215 198.818C29.643 198.038 33.9707 196.107 34.3815 197.719C34.8373 199.476 30.4144 202.924 27.5493 201.693Z" fill="#FF81AE" stroke="#263238" stroke-miterlimit="10"/>
<path d="M27.5593 201.693L31.9171 198.828" stroke="#263238" stroke-width="0.5" stroke-miterlimit="10"/>
<path d="M27.434 182.752L30.6347 179.165" stroke="#263238" stroke-width="2" stroke-miterlimit="10"/>
<path d="M29.663 180.242C29.6682 179.694 29.7845 179.153 30.004 178.656C30.2235 178.159 30.5411 177.717 30.9353 177.361C31.7568 176.587 36.0795 174.656 36.4902 176.269C36.941 178.025 32.5131 181.473 29.663 180.242Z" fill="#FF81AE" stroke="#263238" stroke-miterlimit="10"/>
<path d="M29.663 180.243L34.0208 177.377" stroke="#263238" stroke-width="0.5" stroke-miterlimit="10"/>
<path d="M28.3607 173.324L31.5564 169.737" stroke="#263238" stroke-width="2" stroke-miterlimit="10"/>
<path d="M30.5847 170.814C30.5912 170.266 30.708 169.725 30.9274 169.228C31.1468 168.732 31.4637 168.29 31.8569 167.933C32.6784 167.159 37.0061 165.227 37.4169 166.84C37.8627 168.618 33.4398 172.045 30.5847 170.814Z" fill="#FF81AE" stroke="#263238" stroke-miterlimit="10"/>
<path d="M30.5847 170.814L34.9424 167.949" stroke="#263238" stroke-width="0.5" stroke-miterlimit="10"/>
<path d="M29.7131 159.503L32.9139 155.916" stroke="#263238" stroke-width="2" stroke-miterlimit="10"/>
<path d="M31.9421 156.988C31.9474 156.44 32.0637 155.899 32.2832 155.403C32.5027 154.907 32.8202 154.467 33.2144 154.112C34.0358 153.332 38.3585 151.406 38.7693 153.019C39.2151 154.775 34.7922 158.224 31.9421 156.988Z" fill="#FF81AE" stroke="#263238" stroke-miterlimit="10"/>
<path d="M31.9421 156.988L36.2999 154.128" stroke="#263238" stroke-width="0.5" stroke-miterlimit="10"/>
<path d="M30.4094 150.626C30.4159 150.078 30.5328 149.539 30.7522 149.043C30.9717 148.547 31.2885 148.106 31.6816 147.75C32.5031 146.97 36.8308 145.039 37.2416 146.652C37.6874 148.408 33.2645 151.857 30.4094 150.626Z" fill="#FF81AE" stroke="#263238" stroke-miterlimit="10"/>
<path d="M30.4094 150.626L34.7672 147.761" stroke="#263238" stroke-width="0.5" stroke-miterlimit="10"/>
<path d="M30.5897 150.833C30.0753 150.769 29.5799 150.589 29.1366 150.306C28.6934 150.022 28.3127 149.641 28.0201 149.188C27.3789 148.244 26.0165 143.485 27.5743 143.219C29.2723 142.933 32.0573 147.957 30.5897 150.833Z" fill="#FF81AE" stroke="#263238" stroke-miterlimit="10"/>
<path d="M30.5896 150.833L28.3557 145.941" stroke="#263238" stroke-width="0.5" stroke-miterlimit="10"/>
<path d="M22.3449 121.837V212.491" stroke="#263238" stroke-width="2" stroke-miterlimit="10"/>
<path d="M22.4101 198.86L19.58 194.945" stroke="#263238" stroke-width="2" stroke-miterlimit="10"/>
<path d="M20.4415 196.117C20.4866 195.571 20.4205 195.02 20.2477 194.503C20.0749 193.986 19.7994 193.514 19.4397 193.119C18.7134 192.255 14.6011 189.84 14.025 191.432C13.419 193.119 17.4862 197.03 20.4415 196.117Z" fill="#FF81AE" stroke="#263238" stroke-miterlimit="10"/>
<path d="M20.4415 196.117L16.6147 192.96" stroke="#263238" stroke-width="0.5" stroke-miterlimit="10"/>
<path d="M22.4101 181.824L19.58 177.908" stroke="#263238" stroke-width="2" stroke-miterlimit="10"/>
<path d="M20.4416 179.081C20.4866 178.534 20.4205 177.984 20.2477 177.467C20.0749 176.949 19.7994 176.478 19.4398 176.083C18.6984 175.218 14.5861 172.825 14.0201 174.385C13.419 176.083 17.4863 179.998 20.4416 179.081Z" fill="#FF81AE" stroke="#263238" stroke-miterlimit="10"/>
<path d="M20.4415 179.081L16.6147 175.929" stroke="#263238" stroke-width="0.5" stroke-miterlimit="10"/>
<path d="M22.4101 161.821L19.58 157.906" stroke="#263238" stroke-width="2" stroke-miterlimit="10"/>
<path d="M20.4416 159.067C20.4867 158.52 20.4207 157.969 20.2479 157.451C20.0751 156.933 19.7995 156.46 19.4398 156.064C18.6984 155.2 14.5861 152.807 14.0201 154.367C13.419 156.08 17.4863 159.996 20.4416 159.067Z" fill="#FF81AE" stroke="#263238" stroke-miterlimit="10"/>
<path d="M20.4415 159.083L16.6147 155.927" stroke="#263238" stroke-width="0.5" stroke-miterlimit="10"/>
<path d="M22.4101 148.509L19.58 144.594" stroke="#263238" stroke-width="2" stroke-miterlimit="10"/>
<path d="M20.4416 145.766C20.4866 145.22 20.4205 144.669 20.2477 144.152C20.0749 143.635 19.7994 143.163 19.4398 142.768C18.6984 141.904 14.5861 139.511 14.0201 141.071C13.419 142.768 17.4863 146.679 20.4416 145.766Z" fill="#FF81AE" stroke="#263238" stroke-miterlimit="10"/>
<path d="M20.4415 145.766L16.6147 142.609" stroke="#263238" stroke-width="0.5" stroke-miterlimit="10"/>
<path d="M22.4101 135.134L19.58 131.218" stroke="#263238" stroke-width="2" stroke-miterlimit="10"/>
<path d="M20.4416 132.396C20.4867 131.848 20.4207 131.297 20.2479 130.779C20.0751 130.261 19.7995 129.788 19.4398 129.393C18.6984 128.528 14.5861 126.135 14.0201 127.695C13.419 129.393 17.4863 133.308 20.4416 132.396Z" fill="#FF81AE" stroke="#263238" stroke-miterlimit="10"/>
<path d="M20.4415 132.396L16.6147 129.239" stroke="#263238" stroke-width="0.5" stroke-miterlimit="10"/>
<path d="M22.3499 204.06L25.185 200.144" stroke="#263238" stroke-width="2" stroke-miterlimit="10"/>
<path d="M24.3185 201.322C24.2733 200.775 24.3394 200.224 24.5122 199.706C24.685 199.188 24.9605 198.715 25.3203 198.319C26.0616 197.454 30.1739 195.061 30.74 196.621C31.341 198.33 27.2788 202.235 24.3185 201.322Z" fill="#FF81AE" stroke="#263238" stroke-miterlimit="10"/>
<path d="M24.3185 201.322L28.3757 197.995" stroke="#263238" stroke-width="0.5" stroke-miterlimit="10"/>
<path d="M22.3499 176.969L25.185 173.053" stroke="#263238" stroke-width="2" stroke-miterlimit="10"/>
<path d="M24.3185 174.226C24.2733 173.679 24.3394 173.127 24.5122 172.609C24.685 172.091 24.9605 171.619 25.3203 171.223C26.0616 170.363 30.1739 167.97 30.74 169.53C31.341 171.223 27.2788 175.138 24.3185 174.226Z" fill="#FF81AE" stroke="#263238" stroke-miterlimit="10"/>
<path d="M24.3185 174.226L28.3757 170.899" stroke="#263238" stroke-width="0.5" stroke-miterlimit="10"/>
<path d="M22.3499 163.593L25.185 159.678" stroke="#263238" stroke-width="2" stroke-miterlimit="10"/>
<path d="M24.3185 160.855C24.273 160.308 24.3389 159.757 24.5117 159.239C24.6845 158.721 24.9602 158.248 25.3203 157.852C26.0616 156.988 30.1739 154.595 30.74 156.155C31.341 157.852 27.2788 161.768 24.3185 160.855Z" fill="#FF81AE" stroke="#263238" stroke-miterlimit="10"/>
<path d="M24.3185 160.855L28.3757 157.529" stroke="#263238" stroke-width="0.5" stroke-miterlimit="10"/>
<path d="M22.3499 145.92L25.185 142.004" stroke="#263238" stroke-width="2" stroke-miterlimit="10"/>
<path d="M24.3184 143.177C24.2734 142.63 24.3394 142.08 24.5123 141.563C24.6851 141.046 24.9606 140.574 25.3202 140.179C26.0616 139.314 30.1739 136.921 30.7399 138.481C31.341 140.179 27.2787 144.089 24.3184 143.177Z" fill="#FF81AE" stroke="#263238" stroke-miterlimit="10"/>
<path d="M24.3185 143.177L28.3757 139.85" stroke="#263238" stroke-width="0.5" stroke-miterlimit="10"/>
<path d="M22.3499 132.024L25.185 128.109" stroke="#263238" stroke-width="2" stroke-miterlimit="10"/>
<path d="M24.3185 129.281C24.2733 128.734 24.3394 128.183 24.5122 127.665C24.685 127.147 24.9605 126.674 25.3203 126.278C26.0616 125.419 30.1739 123.026 30.74 124.586C31.341 126.278 27.2788 130.194 24.3185 129.281Z" fill="#FF81AE" stroke="#263238" stroke-miterlimit="10"/>
<path d="M24.3185 129.281L28.3757 125.955" stroke="#263238" stroke-width="0.5" stroke-miterlimit="10"/>
<path d="M22.1796 123.121C22.1341 122.574 22.2 122.023 22.3728 121.505C22.5457 120.987 22.8214 120.514 23.1814 120.118C23.9227 119.254 28.0351 116.861 28.6011 118.421C29.2022 120.118 25.1349 124.05 22.1796 123.121Z" fill="#FF81AE" stroke="#263238" stroke-miterlimit="10"/>
<path d="M22.1796 123.121L26.2369 119.795" stroke="#263238" stroke-width="0.5" stroke-miterlimit="10"/>
<path d="M22.38 123.302C21.8609 123.292 21.3499 123.165 20.8815 122.927C20.4131 122.69 19.9982 122.349 19.6652 121.928C18.9288 121.057 17.1156 116.473 18.6634 116.044C20.2963 115.593 23.5421 120.283 22.38 123.302Z" fill="#FF81AE" stroke="#263238" stroke-miterlimit="10"/>
<path d="M22.38 123.302L19.6802 118.681" stroke="#263238" stroke-width="0.5" stroke-miterlimit="10"/>
<path d="M25.8663 236H16.8001L15.668 211.753H26.9983L25.8663 236Z" fill="#263238" stroke="#263238" stroke-miterlimit="10"/>
<path d="M227.406 236H233.417" stroke="#263238" stroke-miterlimit="10"/>
<path d="M159.786 236H221.897" stroke="#263238" stroke-miterlimit="10"/>
<path d="M0 236H154.777" stroke="#263238" stroke-miterlimit="10"/>
</svg>
