<svg width="235" height="235" viewBox="0 0 235 235" fill="none" xmlns="http://www.w3.org/2000/svg">
<path d="M235 206.514H0V206.672H235V206.514Z" fill="#EBEBEB"/>
<path d="M111.39 178.382H20.6377C19.9268 178.38 19.2454 178 18.7431 177.325C18.2408 176.65 17.9587 175.734 17.9587 174.78V3.57016C17.9649 2.6215 18.2498 1.71442 18.7514 1.04596C19.253 0.37749 19.9308 0.00162511 20.6377 0H111.39C112.102 0 112.784 0.379464 113.288 1.05491C113.791 1.73036 114.074 2.64647 114.074 3.6017V174.78C114.074 175.735 113.791 176.652 113.288 177.327C112.784 178.002 112.102 178.382 111.39 178.382ZM20.6377 0.126155C19.958 0.127826 19.3064 0.491411 18.8262 1.13711C18.346 1.7828 18.0762 2.65785 18.0762 3.57016V174.78C18.0762 175.693 18.346 176.568 18.8262 177.213C19.3064 177.859 19.958 178.223 20.6377 178.224H111.39C112.07 178.223 112.722 177.859 113.203 177.214C113.684 176.568 113.955 175.693 113.956 174.78V3.57016C113.955 2.65727 113.684 1.78224 113.203 1.13672C112.722 0.491207 112.07 0.127822 111.39 0.126155H20.6377Z" fill="#EBEBEB"/>
<path d="M213.056 178.382H122.299C121.587 178.38 120.905 178 120.402 177.325C119.899 176.65 119.616 175.735 119.615 174.78V3.57016C119.622 2.62092 119.908 1.71385 120.411 1.04556C120.913 0.377269 121.591 0.00160739 122.299 0H213.056C213.762 0.00328284 214.438 0.379881 214.939 1.04817C215.44 1.71646 215.724 2.62259 215.73 3.57016V174.78C215.73 175.733 215.449 176.647 214.947 177.323C214.446 177.998 213.766 178.379 213.056 178.382ZM122.299 0.126155C121.618 0.127822 120.966 0.491207 120.485 1.13672C120.004 1.78224 119.734 2.65727 119.732 3.57016V174.78C119.734 175.693 120.004 176.568 120.485 177.214C120.966 177.859 121.618 178.223 122.299 178.224H213.056C213.736 178.223 214.388 177.859 214.869 177.214C215.35 176.568 215.621 175.693 215.622 174.78V3.57016C215.621 2.65727 215.35 1.78224 214.869 1.13672C214.388 0.491207 213.736 0.127822 213.056 0.126155H122.299Z" fill="#EBEBEB"/>
<path d="M36.3216 212.519H24.1016V212.677H36.3216V212.519Z" fill="#EBEBEB"/>
<path d="M89.3846 210.81H68.2205V210.968H89.3846V210.81Z" fill="#EBEBEB"/>
<path d="M65.3631 218.379H36.7917V218.537H65.3631V218.379Z" fill="#EBEBEB"/>
<path d="M210.898 217.319H201.86V217.477H210.898V217.319Z" fill="#EBEBEB"/>
<path d="M197.673 217.319H171.686V217.477H197.673V217.319Z" fill="#EBEBEB"/>
<path d="M155.814 214.657H120.813V214.815H155.814V214.657Z" fill="#EBEBEB"/>
<path d="M124.489 138.46H104.725V206.514H124.489V138.46Z" fill="#F0F0F0"/>
<path d="M34.0091 206.514H104.725V138.46H34.0091V206.514Z" fill="#F5F5F5"/>
<path d="M38.3426 199.885H50.1443V186.027H38.3426V199.885Z" fill="white"/>
<path d="M38.3426 180.943H50.1443V167.085H38.3426V180.943Z" fill="#EBEBEB"/>
<g style="mix-blend-mode:multiply" opacity="0.7">
<path d="M124.484 147.247H33.7976V149.978H124.484V147.247Z" fill="#E6E6E6"/>
</g>
<path d="M125.579 137.142H104.725V148.162H125.579V137.142Z" fill="#F0F0F0"/>
<path d="M32.9094 148.162H104.721V137.142H32.9094V148.162Z" fill="#F5F5F5"/>
<path d="M116.997 116.339H101.638V137.312H116.997V116.339Z" fill="#F0F0F0"/>
<path d="M48.1515 137.306H101.633V116.333H48.1515V137.306Z" fill="#F5F5F5"/>
<g style="mix-blend-mode:multiply" opacity="0.7">
<path d="M116.997 119.5H47.9966V121.196H116.997V119.5Z" fill="#E6E6E6"/>
</g>
<path d="M117.843 115.311H101.638V120.212H117.843V115.311Z" fill="#F0F0F0"/>
<path d="M47.3104 120.212L101.638 120.212V115.311L47.3104 115.311V120.212Z" fill="#F5F5F5"/>
<path d="M135.083 206.514H150.118V104.405H135.083V206.514Z" fill="#E6E6E6"/>
<path d="M138.302 206.514H135.083V199.273H141.677L138.302 206.514Z" fill="#F0F0F0"/>
<path d="M185.241 206.514H200.276V104.405H185.241V206.514Z" fill="#E6E6E6"/>
<path d="M135.083 205.051H188.047V104.405L135.083 104.405V205.051Z" fill="#F0F0F0"/>
<path d="M137.583 136.474H185.551V108.871H137.583V136.474Z" fill="#E6E6E6"/>
<path d="M164.716 122.079C164.716 122.916 164.531 123.735 164.185 124.431C163.838 125.127 163.346 125.669 162.769 125.99C162.193 126.31 161.559 126.394 160.947 126.231C160.335 126.067 159.773 125.664 159.332 125.072C158.891 124.48 158.591 123.726 158.469 122.905C158.348 122.084 158.41 121.233 158.649 120.46C158.887 119.686 159.292 119.025 159.81 118.56C160.329 118.095 160.939 117.847 161.562 117.847C161.977 117.846 162.387 117.955 162.77 118.167C163.153 118.38 163.501 118.692 163.794 119.085C164.087 119.478 164.319 119.945 164.477 120.459C164.636 120.973 164.717 121.523 164.716 122.079Z" fill="#FAFAFA"/>
<path d="M184.827 206.514H188.047V199.273H181.453L184.827 206.514Z" fill="#F0F0F0"/>
<path d="M185.547 140.927H137.578V200.591H185.547V140.927Z" fill="#E6E6E6"/>
<path d="M178.924 154.053C180.666 154.053 182.078 152.158 182.078 149.821C182.078 147.483 180.666 145.588 178.924 145.588C177.182 145.588 175.771 147.483 175.771 149.821C175.771 152.158 177.182 154.053 178.924 154.053Z" fill="#FAFAFA"/>
<path d="M195.167 93.0449V10.4265L40.5187 10.4265V93.0449L195.167 93.0449Z" fill="#E6E6E6"/>
<path d="M194.486 93.0388V10.4204L39.8373 10.4204V93.0388L194.486 93.0388Z" fill="#F0F0F0"/>
<path d="M190.552 15.7063H43.7712V87.7592H190.552V15.7063Z" fill="white"/>
<path d="M60.8837 45.7307L55.7231 57.7343H66.049L60.8837 45.7307Z" fill="#E6E6E6"/>
<path d="M87.6786 46.0715H79.2468V57.3876H87.6786V46.0715Z" fill="#E6E6E6"/>
<path d="M106.041 44.4944L100.368 50.0199L102.535 58.9706H109.543L111.71 50.0199L106.041 44.4944Z" fill="#E6E6E6"/>
<path d="M131.6 44.8037H125.636L122.651 51.7296L125.636 58.6617H131.6L134.58 51.7296L131.6 44.8037Z" fill="#E6E6E6"/>
<path d="M151.194 44.1226L146.532 47.1376L145.38 53.9121L148.605 59.3368H153.779L157.008 53.9121L155.857 47.1376L151.194 44.1226Z" fill="#E6E6E6"/>
<path d="M176.053 44.3369H171.489L168.26 48.6703V54.7951L171.489 59.1285H176.053L179.277 54.7951V48.6703L176.053 44.3369Z" fill="#E6E6E6"/>
<path d="M117.5 235C167.829 235 208.628 231.803 208.628 227.86C208.628 223.916 167.829 220.719 117.5 220.719C67.1714 220.719 26.3718 223.916 26.3718 227.86C26.3718 231.803 67.1714 235 117.5 235Z" fill="#F5F5F5"/>
<path d="M112.523 46.9988H189.908C190.295 46.9922 190.679 47.0936 191.036 47.2967C191.392 47.4997 191.713 47.8 191.978 48.1785C192.243 48.5569 192.447 49.0052 192.576 49.4949C192.705 49.9847 192.757 50.5051 192.728 51.0232L186.416 187.478C186.355 188.562 185.995 189.577 185.405 190.322C184.816 191.068 184.04 191.491 183.23 191.508H105.839C105.453 191.509 105.071 191.404 104.716 191.199C104.361 190.993 104.042 190.692 103.778 190.314C103.513 189.936 103.309 189.49 103.179 189.002C103.049 188.514 102.994 187.995 103.019 187.478L109.327 51.0232C109.39 49.9385 109.753 48.9246 110.344 48.1801C110.935 47.4357 111.712 47.0144 112.523 46.9988Z" fill="#FF81AE"/>
<path opacity="0.4" d="M112.523 46.9988H189.908C190.295 46.9922 190.679 47.0936 191.036 47.2967C191.392 47.4997 191.713 47.8 191.978 48.1785C192.243 48.5569 192.447 49.0052 192.576 49.4949C192.705 49.9847 192.757 50.5051 192.728 51.0232L186.416 187.478C186.355 188.562 185.995 189.577 185.405 190.322C184.816 191.068 184.04 191.491 183.23 191.508H105.839C105.453 191.509 105.071 191.404 104.716 191.199C104.361 190.993 104.042 190.692 103.778 190.314C103.513 189.936 103.309 189.49 103.179 189.002C103.049 188.514 102.994 187.995 103.019 187.478L109.327 51.0232C109.39 49.9385 109.753 48.9246 110.344 48.1801C110.935 47.4357 111.712 47.0144 112.523 46.9988Z" fill="black"/>
<path d="M110.746 46.9988H188.131C188.519 46.9922 188.902 47.0936 189.259 47.2967C189.615 47.4997 189.936 47.8 190.201 48.1785C190.466 48.5569 190.67 49.0052 190.799 49.4949C190.928 49.9847 190.98 50.5051 190.951 51.0232L184.639 187.478C184.578 188.563 184.217 189.578 183.627 190.324C183.036 191.07 182.259 191.493 181.448 191.508H104.063C103.676 191.509 103.294 191.404 102.939 191.199C102.585 190.993 102.265 190.692 102.001 190.314C101.736 189.936 101.533 189.49 101.402 189.002C101.272 188.514 101.217 187.995 101.243 187.478L107.55 51.0232C107.612 49.938 107.974 48.9232 108.566 48.1785C109.157 47.4338 109.935 47.013 110.746 46.9988Z" fill="#FF81AE"/>
<path opacity="0.4" d="M105.44 184.141L180.767 185.352L186.877 53.1929H111.493L105.44 184.141Z" fill="black"/>
<path d="M103.24 182.804H179.54C183.742 131.137 185.034 103.244 185.608 51.6033H109.308C108.735 103.244 107.447 131.137 103.24 182.804Z" fill="white"/>
<path opacity="0.3" d="M176.48 87.5193H163.344C163.211 87.5215 163.08 87.4861 162.959 87.4154C162.837 87.3448 162.728 87.2405 162.639 87.1094C162.548 86.9798 162.478 86.8269 162.433 86.6599C162.388 86.4929 162.368 86.3154 162.376 86.138L163.189 68.5142C163.204 68.1834 163.313 67.8729 163.493 67.6457C163.672 67.4184 163.91 67.2915 164.157 67.2905H177.317C177.449 67.2911 177.58 67.3278 177.701 67.3985C177.823 67.4692 177.932 67.5723 178.022 67.7016C178.113 67.8309 178.183 67.9836 178.228 68.1505C178.273 68.3173 178.293 68.4947 178.285 68.6719L177.467 86.302C177.463 86.4693 177.434 86.6339 177.382 86.7861C177.33 86.9382 177.256 87.075 177.164 87.1883C177.072 87.3016 176.964 87.3892 176.847 87.4461C176.729 87.5029 176.605 87.5278 176.48 87.5193ZM164.378 84.9206H175.568L176.25 69.8956H165.069L164.378 84.9206Z" fill="#FF81AE"/>
<path opacity="0.3" d="M175.235 114.371H162.103C161.971 114.371 161.84 114.334 161.719 114.264C161.598 114.193 161.489 114.09 161.398 113.961C161.307 113.832 161.236 113.68 161.191 113.512C161.146 113.345 161.127 113.167 161.135 112.99L161.948 95.3598C161.964 95.0296 162.072 94.7198 162.252 94.4936C162.432 94.2674 162.67 94.1418 162.916 94.1424H176.053C176.185 94.1403 176.316 94.1757 176.438 94.2463C176.559 94.317 176.668 94.4213 176.758 94.5524C176.848 94.682 176.918 94.8349 176.964 95.0019C177.009 95.1689 177.028 95.3464 177.021 95.5238L176.203 113.148C176.189 113.479 176.08 113.79 175.9 114.018C175.72 114.245 175.482 114.372 175.235 114.371ZM163.132 111.766H174.323L175.019 96.7412H163.828L163.132 111.766Z" fill="#FF81AE"/>
<path opacity="0.3" d="M173.994 141.217H160.862C160.729 141.218 160.598 141.182 160.476 141.111C160.353 141.04 160.243 140.937 160.152 140.807C160.061 140.679 159.99 140.526 159.946 140.358C159.901 140.191 159.884 140.013 159.894 139.835L160.707 122.212C160.723 121.881 160.831 121.57 161.011 121.343C161.191 121.116 161.428 120.989 161.675 120.988H174.812C174.944 120.989 175.075 121.025 175.196 121.096C175.317 121.166 175.426 121.269 175.517 121.398C175.607 121.528 175.676 121.681 175.722 121.848C175.767 122.015 175.787 122.192 175.78 122.369L174.962 140.031C174.941 140.356 174.83 140.658 174.65 140.877C174.471 141.097 174.237 141.218 173.994 141.217ZM161.891 138.618H173.082L173.778 123.593H162.587L161.891 138.618Z" fill="#FF81AE"/>
<path opacity="0.3" d="M172.753 168.069H159.621C159.489 168.068 159.357 168.031 159.235 167.961C159.114 167.89 159.003 167.788 158.912 167.659C158.82 167.53 158.75 167.378 158.705 167.21C158.661 167.043 158.643 166.865 158.653 166.687L159.466 149.057C159.483 148.728 159.592 148.419 159.772 148.193C159.952 147.967 160.188 147.841 160.435 147.84H173.571C173.703 147.838 173.835 147.873 173.956 147.944C174.078 148.015 174.187 148.119 174.276 148.25C174.367 148.379 174.437 148.532 174.482 148.699C174.527 148.866 174.547 149.044 174.539 149.221L173.721 166.845C173.706 167.176 173.597 167.486 173.417 167.714C173.238 167.941 173 168.068 172.753 168.069ZM160.651 165.464H171.841L172.537 150.439H161.346L160.651 165.464Z" fill="#FF81AE"/>
<path opacity="0.3" d="M122.144 75.0995H151.89C152.333 75.0902 152.757 74.8593 153.08 74.4521C153.402 74.0449 153.6 73.4907 153.634 72.8981C153.649 72.6148 153.621 72.3303 153.55 72.0625C153.48 71.7947 153.368 71.5496 153.223 71.3426C153.078 71.1356 152.903 70.9713 152.708 70.8601C152.513 70.7489 152.304 70.6933 152.092 70.6967H122.35C121.907 70.7031 121.482 70.933 121.159 71.3408C120.836 71.7486 120.639 72.3044 120.607 72.8981C120.591 73.1808 120.619 73.4648 120.69 73.7321C120.76 73.9995 120.871 74.2443 121.015 74.4512C121.16 74.6581 121.335 74.8225 121.529 74.9341C121.723 75.0457 121.932 75.102 122.144 75.0995Z" fill="#FF81AE"/>
<path opacity="0.3" d="M127.37 84.1194H151.457C151.9 84.1101 152.324 83.8793 152.647 83.472C152.969 83.0648 153.167 82.5106 153.201 81.918C153.217 81.6347 153.19 81.3501 153.12 81.082C153.049 80.8139 152.939 80.5683 152.794 80.3607C152.65 80.1531 152.475 79.9881 152.28 79.8761C152.086 79.7642 151.876 79.7077 151.664 79.7103H127.586C127.142 79.7197 126.718 79.9514 126.395 80.36C126.072 80.7685 125.875 81.3243 125.842 81.918C125.827 82.1997 125.855 82.4826 125.925 82.7491C125.994 83.0155 126.104 83.2598 126.248 83.4665C126.391 83.6731 126.565 83.8378 126.758 83.9502C126.951 84.0626 127.159 84.1202 127.37 84.1194Z" fill="#FF81AE"/>
<path opacity="0.3" d="M120.691 106.562H150.438C150.649 106.56 150.858 106.616 151.052 106.728C151.247 106.839 151.421 107.004 151.566 107.211C151.71 107.417 151.821 107.662 151.891 107.93C151.962 108.197 151.99 108.481 151.974 108.764C151.941 109.356 151.743 109.911 151.42 110.318C151.098 110.725 150.674 110.956 150.231 110.965H120.484C120.273 110.968 120.064 110.911 119.87 110.8C119.675 110.688 119.501 110.524 119.356 110.317C119.212 110.11 119.101 109.865 119.031 109.598C118.96 109.33 118.932 109.046 118.948 108.764C118.981 108.171 119.179 107.617 119.502 107.21C119.824 106.802 120.248 106.572 120.691 106.562Z" fill="#FF81AE"/>
<path opacity="0.3" d="M126.764 97.5424H150.87C151.082 97.539 151.292 97.5946 151.486 97.7058C151.681 97.817 151.857 97.9813 152.002 98.1883C152.146 98.3953 152.258 98.6404 152.328 98.9082C152.399 99.176 152.427 99.4605 152.412 99.7438C152.379 100.337 152.182 100.893 151.859 101.302C151.536 101.71 151.112 101.942 150.668 101.951H126.562C126.35 101.955 126.139 101.899 125.944 101.788C125.749 101.676 125.574 101.511 125.429 101.303C125.284 101.096 125.172 100.85 125.102 100.581C125.032 100.313 125.004 100.028 125.02 99.7438C125.054 99.1512 125.252 98.597 125.574 98.1897C125.897 97.7825 126.321 97.5516 126.764 97.5424Z" fill="#FF81AE"/>
<path opacity="0.3" d="M119.662 128.797H149.408C149.851 128.788 150.275 128.557 150.598 128.15C150.92 127.743 151.118 127.188 151.152 126.596C151.168 126.313 151.139 126.028 151.069 125.76C150.998 125.492 150.887 125.247 150.742 125.04C150.597 124.833 150.421 124.669 150.227 124.558C150.032 124.447 149.822 124.391 149.61 124.394H119.85C119.407 124.404 118.983 124.635 118.66 125.042C118.338 125.449 118.14 126.003 118.106 126.596C118.09 126.881 118.119 127.167 118.191 127.436C118.262 127.705 118.375 127.951 118.521 128.158C118.668 128.366 118.845 128.53 119.041 128.64C119.238 128.75 119.449 128.803 119.662 128.797Z" fill="#FF81AE"/>
<path opacity="0.3" d="M137.024 137.817H148.99C149.433 137.808 149.857 137.577 150.18 137.17C150.502 136.763 150.7 136.208 150.734 135.616C150.749 135.332 150.721 135.047 150.65 134.779C150.58 134.511 150.469 134.266 150.324 134.058C150.179 133.851 150.003 133.686 149.809 133.574C149.614 133.462 149.404 133.406 149.192 133.408H137.24C136.797 133.419 136.373 133.651 136.05 134.059C135.728 134.468 135.53 135.023 135.496 135.616C135.481 135.897 135.509 136.18 135.579 136.447C135.648 136.713 135.758 136.957 135.902 137.164C136.045 137.371 136.219 137.536 136.412 137.648C136.605 137.76 136.813 137.818 137.024 137.817Z" fill="#FF81AE"/>
<path opacity="0.3" d="M124.902 137.817H131.215C131.657 137.808 132.082 137.577 132.404 137.17C132.727 136.763 132.924 136.208 132.958 135.616C132.974 135.332 132.945 135.047 132.875 134.779C132.804 134.511 132.693 134.266 132.548 134.058C132.403 133.851 132.228 133.686 132.033 133.574C131.838 133.462 131.629 133.406 131.417 133.408H125.105C124.661 133.419 124.237 133.651 123.915 134.059C123.592 134.468 123.395 135.023 123.361 135.616C123.345 135.899 123.374 136.184 123.444 136.451C123.515 136.719 123.626 136.964 123.771 137.171C123.916 137.378 124.091 137.542 124.286 137.654C124.481 137.765 124.691 137.821 124.902 137.817Z" fill="#FF81AE"/>
<path opacity="0.3" d="M118.44 155.649H148.186C148.629 155.64 149.053 155.409 149.376 155.002C149.699 154.594 149.896 154.04 149.93 153.448C149.946 153.164 149.917 152.879 149.847 152.611C149.776 152.343 149.665 152.097 149.52 151.89C149.375 151.682 149.2 151.518 149.005 151.406C148.81 151.294 148.6 151.237 148.388 151.24H118.623C118.18 151.249 117.755 151.481 117.432 151.89C117.11 152.298 116.912 152.854 116.88 153.448C116.864 153.733 116.893 154.02 116.965 154.289C117.036 154.559 117.149 154.805 117.296 155.012C117.443 155.22 117.621 155.384 117.818 155.493C118.015 155.603 118.227 155.656 118.44 155.649Z" fill="#FF81AE"/>
<path opacity="0.3" d="M123.662 164.669H147.749C148.192 164.658 148.617 164.426 148.939 164.017C149.262 163.609 149.459 163.054 149.493 162.461C149.509 162.178 149.48 161.893 149.41 161.625C149.339 161.358 149.228 161.113 149.083 160.906C148.938 160.699 148.762 160.534 148.568 160.423C148.373 160.312 148.163 160.256 147.951 160.26H123.864C123.421 160.269 122.997 160.5 122.674 160.907C122.352 161.314 122.154 161.868 122.12 162.461C122.105 162.745 122.133 163.029 122.203 163.298C122.274 163.566 122.385 163.811 122.53 164.019C122.675 164.226 122.85 164.391 123.045 164.503C123.24 164.615 123.45 164.671 123.662 164.669Z" fill="#FF81AE"/>
<path d="M169.252 82.694C169.057 82.6959 168.866 82.6166 168.707 82.4669L163.645 77.8307C163.451 77.6257 163.323 77.3299 163.286 77.0031C163.249 76.6763 163.306 76.3427 163.445 76.0698C163.584 75.7968 163.795 75.6048 164.035 75.5324C164.275 75.46 164.527 75.5127 164.74 75.6798L169.064 79.6473C170.643 77.0927 175.146 70.1858 178.892 67.9213C179.008 67.8517 179.133 67.8136 179.261 67.8091C179.388 67.8045 179.515 67.8337 179.634 67.8949C179.753 67.9561 179.861 68.0482 179.954 68.1658C180.046 68.2834 180.12 68.4243 180.172 68.5805C180.224 68.7366 180.253 68.9049 180.256 69.0758C180.259 69.2467 180.238 69.4168 180.192 69.5764C180.146 69.736 180.078 69.882 179.99 70.006C179.902 70.1301 179.797 70.2297 179.681 70.2993C175.592 72.7404 170.07 82.1073 170.018 82.202C169.926 82.356 169.809 82.4803 169.677 82.5654C169.544 82.6506 169.399 82.6946 169.252 82.694Z" fill="#FF81AE"/>
<path d="M166.897 109.022C166.645 109.023 166.403 108.895 166.22 108.663L161.816 102.986C161.629 102.746 161.521 102.416 161.515 102.069C161.51 101.722 161.607 101.386 161.786 101.135C161.965 100.884 162.211 100.738 162.469 100.731C162.728 100.723 162.978 100.854 163.165 101.094L166.925 105.944C168.782 103.718 173.975 97.7884 177.904 96.3502C178.028 96.3051 178.157 96.293 178.284 96.3147C178.411 96.3364 178.533 96.3914 178.644 96.4766C178.755 96.5618 178.853 96.6756 178.931 96.8114C179.009 96.9472 179.067 97.1023 179.101 97.268C179.134 97.4336 179.143 97.6066 179.127 97.7769C179.111 97.9472 179.07 98.1116 179.006 98.2607C178.943 98.4098 178.858 98.5406 178.757 98.6457C178.656 98.7508 178.54 98.8281 178.417 98.8733C174.13 100.444 167.64 108.606 167.574 108.688C167.483 108.801 167.376 108.888 167.26 108.946C167.144 109.003 167.021 109.029 166.897 109.022Z" fill="#FF81AE"/>
<path opacity="0.4" d="M158.658 54.7067H160.068C160.446 54.7117 160.82 54.6168 161.171 54.4274C161.521 54.238 161.84 53.9578 162.11 53.6029C162.38 53.2479 162.595 52.8252 162.743 52.3587C162.891 51.8922 162.969 51.3912 162.972 50.8843V47.3646C162.972 47.3135 162.965 47.2629 162.95 47.2158C162.935 47.1687 162.914 47.126 162.887 47.0902C162.86 47.0544 162.827 47.0262 162.792 47.0072C162.757 46.9883 162.719 46.979 162.681 46.9798H158.695C158.61 46.9814 158.528 47.0278 158.467 47.1091C158.407 47.1903 158.372 47.3001 158.371 47.415L158.39 54.322C158.39 54.4198 158.417 54.514 158.467 54.5855C158.517 54.657 158.585 54.7003 158.658 54.7067Z" fill="black"/>
<path d="M137.028 40.6153H161.027C161.369 40.6021 161.71 40.6913 162.024 40.8763C162.338 41.0614 162.618 41.3376 162.843 41.6852C163.067 42.0328 163.232 42.443 163.324 42.8863C163.417 43.3296 163.434 43.7948 163.377 44.2485L162.658 51.4204C162.541 52.4117 162.17 53.3171 161.608 53.9804C161.047 54.6438 160.331 55.0233 159.584 55.0536H135.576C135.233 55.0668 134.893 54.9776 134.579 54.7926C134.264 54.6076 133.985 54.3313 133.76 53.9837C133.535 53.6361 133.371 53.2259 133.278 52.7826C133.186 52.3393 133.168 51.8741 133.226 51.4204L133.95 44.2485C134.067 43.2562 134.439 42.3499 135.001 41.6865C135.563 41.023 136.28 40.6441 137.028 40.6153Z" fill="#FF81AE"/>
<path opacity="0.6" d="M137.028 40.6153H161.027C161.369 40.6021 161.71 40.6913 162.024 40.8763C162.338 41.0614 162.618 41.3376 162.843 41.6852C163.067 42.0328 163.232 42.443 163.324 42.8863C163.417 43.3296 163.434 43.7948 163.377 44.2485L162.658 51.4204C162.541 52.4117 162.17 53.3171 161.608 53.9804C161.047 54.6438 160.331 55.0233 159.584 55.0536H135.576C135.233 55.0668 134.893 54.9776 134.579 54.7926C134.264 54.6076 133.985 54.3313 133.76 53.9837C133.535 53.6361 133.371 53.2259 133.278 52.7826C133.186 52.3393 133.168 51.8741 133.226 51.4204L133.95 44.2485C134.067 43.2562 134.439 42.3499 135.001 41.6865C135.563 41.023 136.28 40.6441 137.028 40.6153Z" fill="white"/>
<path opacity="0.5" d="M160.406 44.0846H149.596C149.496 44.0954 149.395 44.0782 149.3 44.0342C149.205 43.9901 149.118 43.9201 149.044 43.8286C148.97 43.737 148.911 43.6259 148.871 43.5022C148.83 43.3786 148.809 43.245 148.809 43.11C148.809 42.975 148.83 42.8415 148.871 42.7178C148.911 42.5941 148.97 42.483 149.044 42.3915C149.118 42.2999 149.205 42.2299 149.3 42.1859C149.395 42.1418 149.496 42.1246 149.596 42.1355H160.406C160.589 42.1552 160.759 42.2664 160.883 42.447C161.007 42.6276 161.076 42.8643 161.076 43.11C161.076 43.3557 161.007 43.5924 160.883 43.773C160.759 43.9536 160.589 44.0648 160.406 44.0846Z" fill="white"/>
<path opacity="0.5" d="M146.001 44.0846H144.864C144.763 44.0954 144.663 44.0782 144.567 44.0342C144.472 43.9901 144.385 43.9201 144.311 43.8286C144.237 43.737 144.178 43.6259 144.138 43.5022C144.097 43.3786 144.077 43.245 144.077 43.11C144.077 42.975 144.097 42.8415 144.138 42.7178C144.178 42.5941 144.237 42.483 144.311 42.3915C144.385 42.2999 144.472 42.2299 144.567 42.1859C144.663 42.1418 144.763 42.1246 144.864 42.1355H146.001C146.101 42.1246 146.202 42.1418 146.297 42.1859C146.392 42.2299 146.48 42.2999 146.554 42.3915C146.627 42.483 146.686 42.5941 146.727 42.7178C146.767 42.8415 146.788 42.975 146.788 43.11C146.788 43.245 146.767 43.3786 146.727 43.5022C146.686 43.6259 146.627 43.737 146.554 43.8286C146.48 43.9201 146.392 43.9901 146.297 44.0342C146.202 44.0782 146.101 44.0954 146.001 44.0846Z" fill="white"/>
<path d="M79.6462 183.964L84.2851 185.156L95.2502 115.948L88.4399 114.201L79.6462 183.964Z" fill="#FF81AE"/>
<path d="M95.9504 67.8961L101.506 65.4424L101.891 62.7364L96.7165 62.522L95.9504 67.8961Z" fill="#263238"/>
<path d="M95.8096 66.3192L102.136 63.5564L95.6357 113.236L88.8254 111.495L95.8096 66.3192Z" fill="#FF81AE"/>
<path d="M89.2159 114.282L95.457 115.906L95.8473 113.204L89.6061 111.581L89.2159 114.282Z" fill="#263238"/>
<path d="M80.4826 192.158C80.4215 192.568 80.5484 192.946 80.7646 193.003C80.9808 193.06 81.2064 192.77 81.2628 192.372C81.3192 191.975 81.1923 191.584 80.9761 191.527C80.7599 191.47 80.539 191.754 80.4826 192.158Z" fill="#FF81AE"/>
<path d="M80.1632 192.209L81.545 192.562L84.2851 185.157L79.6462 183.964L80.1632 192.209Z" fill="#263238"/>
<path d="M88.5197 98.9175C88.4215 98.9168 88.325 98.8831 88.2391 98.8194C88.1531 98.7558 88.0804 98.6643 88.0276 98.5533C87.9748 98.4422 87.9435 98.3152 87.9367 98.1838C87.9299 98.0524 87.9477 97.9208 87.9886 97.801C90.9026 89.4181 93.2667 71.9079 93.5863 67.7448C93.6319 67.1409 93.7973 66.5644 94.0651 66.0753C94.3328 65.5861 94.6933 65.2021 95.1091 64.9631L96.646 64.0737C96.7163 64.0323 96.7921 64.0099 96.8689 64.0077C96.9457 64.0056 97.0221 64.0238 97.0937 64.0613C97.1652 64.0988 97.2306 64.1548 97.286 64.2262C97.3415 64.2976 97.3859 64.383 97.4168 64.4774C97.4476 64.5718 97.4643 64.6735 97.4659 64.7766C97.4675 64.8797 97.4539 64.9822 97.426 65.0782C97.3981 65.1743 97.3563 65.262 97.3031 65.3364C97.2499 65.4108 97.1863 65.4704 97.116 65.5119L95.5791 66.4012C95.3545 66.5318 95.16 66.7403 95.0154 67.0052C94.8708 67.2702 94.7815 67.5821 94.7566 67.9088C94.4229 72.28 92.0776 89.7839 89.0602 98.4633C89.0122 98.6008 88.9357 98.7168 88.8398 98.7974C88.7439 98.8779 88.6328 98.9196 88.5197 98.9175Z" fill="#263238"/>
<path d="M66.8671 65.4678C65.6968 68.1612 64.5171 71.0186 63.4032 73.8192C62.8533 75.2321 62.3175 76.6451 61.8052 78.0643C61.2929 79.4835 60.8135 80.9154 60.3952 82.3409L60.3153 82.5995C60.2984 82.6406 60.2873 82.6855 60.2824 82.732C60.2557 82.9403 60.2447 83.1516 60.2495 83.3628C60.2699 83.9881 60.336 84.6093 60.4469 85.2173C60.7158 86.6697 61.0613 88.0946 61.4809 89.4813C61.8992 90.932 62.3786 92.3891 62.8909 93.8525C63.4032 95.3159 63.9249 96.7793 64.4372 98.2048L62.2047 100.249C60.5386 97.6503 59.0578 94.8479 57.782 91.8782C57.1041 90.3175 56.53 88.6795 56.0665 86.9834C55.809 86.0171 55.6201 85.0202 55.5025 84.0062C55.4394 83.394 55.4205 82.7751 55.4461 82.158C55.4651 81.7933 55.5028 81.4308 55.5589 81.0731C55.5871 80.8902 55.6341 80.682 55.6764 80.4865L55.7516 80.1648C56.5138 76.8777 57.4564 73.6709 58.5716 70.5708C59.6645 67.4964 60.8869 64.508 62.2329 61.6201L66.8671 65.4678Z" fill="#FFC3BD"/>
<path d="M64.0845 97.2964L66.1854 99.4915L62.98 103.049C62.98 103.049 61.5183 101.157 61.7439 98.8292L64.0845 97.2964Z" fill="#FFC3BD"/>
<path d="M67.0408 102.696L64.9023 106.386L62.9753 103.049L66.1854 99.4915L67.0408 102.696Z" fill="#FFC3BD"/>
<path d="M78.9601 39.1773C79.0212 39.5558 79.2186 39.8081 79.4019 39.8081C79.5852 39.8081 79.6933 39.4044 79.6369 39.026C79.5805 38.6475 79.3784 38.3952 79.1951 38.4267C79.0118 38.4583 78.9225 38.7926 78.9601 39.1773Z" fill="#263238"/>
<path d="M79.209 39.833C79.7265 40.9073 80.3511 41.8814 81.0655 42.7282C80.8988 42.968 80.695 43.1561 80.4685 43.2792C80.242 43.4023 79.9982 43.4575 79.7542 43.441L79.209 39.833Z" fill="#ED847E"/>
<path d="M77.6158 37.3416C77.5737 37.3395 77.5337 37.3171 77.503 37.2785C77.4866 37.2578 77.4736 37.2329 77.4647 37.2053C77.4558 37.1776 77.4512 37.1478 77.4512 37.1176C77.4512 37.0875 77.4558 37.0577 77.4647 37.03C77.4736 37.0023 77.4866 36.9774 77.503 36.9568C77.6802 36.6821 77.9047 36.4695 78.1569 36.3376C78.4092 36.2057 78.6816 36.1584 78.9506 36.1999C78.9725 36.2048 78.9935 36.2155 79.0123 36.2314C79.0311 36.2472 79.0474 36.2679 79.0603 36.2922C79.0732 36.3165 79.0824 36.344 79.0873 36.3731C79.0923 36.4021 79.0929 36.4322 79.0892 36.4616C79.0855 36.491 79.0776 36.5192 79.0658 36.5444C79.054 36.5697 79.0386 36.5916 79.0204 36.6089C79.0023 36.6262 78.9819 36.6385 78.9602 36.6451C78.9385 36.6518 78.9161 36.6527 78.8942 36.6477C78.6801 36.6227 78.4647 36.6669 78.266 36.7766C78.0673 36.8864 77.891 37.0585 77.7521 37.2785C77.7342 37.3018 77.7128 37.3196 77.6892 37.3305C77.6656 37.3414 77.6406 37.3452 77.6158 37.3416Z" fill="#263238"/>
<path d="M70.8711 44.5452C71.3881 48.0838 71.9051 54.5618 70.0627 56.9209C70.0627 56.9209 70.7818 60.5037 75.6745 60.5037C81.056 60.5037 78.2501 56.9209 78.2501 56.9209C75.3126 55.9747 75.3878 53.0543 75.9001 50.3041L70.8711 44.5452Z" fill="#FFC3BD"/>
<path d="M69.0195 57.1857C68.6294 55.9241 69.4895 52.1395 70.359 51.78C71.3413 51.3763 75.059 51.6033 76.939 52.6441C78.2597 54.4355 78.6404 58.1507 78.6404 58.1507L69.0195 57.1857Z" fill="#263238"/>
<path d="M53.6505 222.359C53.795 222.429 53.9484 222.459 54.1017 222.448C54.2551 222.437 54.4052 222.386 54.5435 222.296C54.5982 222.232 54.6359 222.145 54.6512 222.05C54.6664 221.955 54.6583 221.855 54.6281 221.766C54.6117 221.691 54.5835 221.622 54.5453 221.564C54.5072 221.505 54.4601 221.458 54.4072 221.426C53.9372 221.117 52.8045 221.728 52.7575 221.754C52.7423 221.761 52.7291 221.775 52.7199 221.793C52.7106 221.811 52.7057 221.833 52.7058 221.855C52.7056 221.876 52.7099 221.898 52.7181 221.917C52.7264 221.936 52.7384 221.951 52.7528 221.962C53.04 222.139 53.3412 222.272 53.6505 222.359ZM54.2333 221.59L54.3367 221.634C54.3672 221.652 54.3943 221.679 54.4162 221.713C54.4381 221.747 54.4543 221.786 54.4636 221.829C54.5106 222.037 54.4636 222.101 54.4354 222.119C54.2427 222.34 53.5236 222.119 53.0254 221.867C53.4075 221.654 53.8203 221.56 54.2333 221.59Z" fill="#FF81AE"/>
<path d="M52.7717 221.975H52.814C53.2229 221.817 54.0924 220.984 54.1018 220.436C54.1032 220.35 54.0823 220.267 54.0428 220.2C54.0034 220.134 53.9478 220.087 53.8856 220.07C53.8237 220.04 53.7578 220.028 53.6923 220.034C53.6267 220.041 53.5629 220.066 53.5049 220.108C53.0349 220.436 52.72 221.779 52.7106 221.836C52.7027 221.853 52.6985 221.873 52.6985 221.893C52.6985 221.913 52.7027 221.932 52.7106 221.949L52.7717 221.975ZM53.7916 220.265H53.8292C53.9326 220.316 53.9326 220.385 53.9326 220.41C53.9326 220.738 53.3498 221.388 52.9315 221.672C53.0424 221.14 53.27 220.665 53.5848 220.309C53.6481 220.264 53.7209 220.248 53.7916 220.265Z" fill="#FF81AE"/>
<path d="M79.637 223.173C80.107 223.173 80.5488 223.084 80.6945 222.807C80.7338 222.735 80.755 222.647 80.755 222.558C80.755 222.468 80.7338 222.381 80.6945 222.309C80.6652 222.242 80.6258 222.183 80.5789 222.138C80.532 222.092 80.4785 222.06 80.4219 222.044C79.825 221.823 78.5654 222.782 78.5137 222.826C78.4981 222.837 78.4857 222.855 78.4781 222.877C78.4705 222.898 78.4682 222.922 78.4714 222.946C78.4741 222.968 78.4819 222.988 78.4937 223.004C78.5055 223.02 78.5207 223.03 78.5372 223.034C78.8999 223.124 79.268 223.171 79.637 223.173ZM80.2104 222.233C80.266 222.233 80.3214 222.244 80.3749 222.264C80.4094 222.272 80.4422 222.29 80.4707 222.318C80.4992 222.345 80.5227 222.381 80.5394 222.422C80.6005 222.561 80.5817 222.637 80.5394 222.674C80.3702 222.99 79.4631 222.996 78.791 222.87C79.228 222.534 79.7105 222.317 80.2104 222.233Z" fill="#FF81AE"/>
<path d="M78.551 223.04H78.5839C79.021 222.782 79.8811 221.735 79.8153 221.186C79.8153 221.06 79.7307 220.902 79.4957 220.871C79.4115 220.857 79.3261 220.867 79.2451 220.901C79.1641 220.935 79.0893 220.991 79.0257 221.066C78.5557 221.571 78.4711 222.87 78.4664 222.927C78.464 222.946 78.4658 222.966 78.4716 222.984C78.4775 223.002 78.4871 223.017 78.4993 223.028C78.5146 223.041 78.5332 223.045 78.551 223.04ZM79.4299 221.079H79.4816C79.632 221.079 79.6414 221.18 79.6461 221.205C79.6884 221.533 79.1009 222.353 78.6591 222.712C78.6978 222.163 78.862 221.643 79.1291 221.224C79.2136 221.13 79.32 221.078 79.4299 221.079Z" fill="#FF81AE"/>
<path d="M74.5938 222.927H78.1939L78.5511 211.737H74.9509L74.5938 222.927Z" fill="#FFC3BD"/>
<path d="M48.6121 220.688L52.2264 221.71L54.7785 211.289L51.1595 210.267L48.6121 220.688Z" fill="#FFC3BD"/>
<path d="M52.64 221.236L48.6873 220.088C48.6175 220.068 48.5446 220.08 48.4806 220.122C48.4165 220.165 48.3651 220.235 48.3348 220.322L46.9624 224.321C46.9298 224.419 46.914 224.525 46.9162 224.632C46.9184 224.739 46.9386 224.844 46.9751 224.939C47.0117 225.034 47.0638 225.117 47.1275 225.181C47.1912 225.246 47.2649 225.29 47.3431 225.311C48.7296 225.677 49.4158 225.765 51.1548 226.27C52.2217 226.579 54.6375 227.368 56.1133 227.796C57.5891 228.225 58.1014 226.32 57.5233 225.967C54.943 224.384 53.862 222.99 53.1664 221.691C53.0381 221.458 52.8509 221.297 52.64 221.236Z" fill="#263238"/>
<path d="M78.1703 222.365H74.2599C74.1889 222.366 74.12 222.399 74.0646 222.458C74.0091 222.518 73.9703 222.601 73.9544 222.693L73.2447 226.989C73.2258 227.093 73.2251 227.201 73.2425 227.305C73.2599 227.409 73.295 227.507 73.345 227.59C73.395 227.673 73.4587 227.739 73.5309 227.784C73.6032 227.828 73.6822 227.85 73.7617 227.847C75.1717 227.815 77.2303 227.708 79.0116 227.708C81.0937 227.708 80.2853 227.859 82.7293 227.859C84.2098 227.859 84.6093 225.854 83.9983 225.671C81.1783 224.844 81.4932 224.756 79.0586 222.744C78.7959 222.506 78.4874 222.374 78.1703 222.365Z" fill="#263238"/>
<path d="M63.6145 58.0309C60.2399 59.0654 57.4622 70.6463 57.4622 70.6463L64.2349 77.5848C65.9892 75.0755 67.2282 71.9978 67.8304 68.6531C68.9913 62.5535 67.0643 56.946 63.6145 58.0309Z" fill="#263238"/>
<path opacity="0.2" d="M66.5097 66.5146C64.6767 68.9431 64.0798 73.3774 63.9341 77.2377L64.2349 77.5468C65.9912 75.0394 67.2304 71.961 67.8304 68.6151C67.9009 68.2556 67.9573 67.8897 68.009 67.5365L66.5097 66.5146Z" fill="black"/>
<path d="M83.7868 58.258C83.7868 58.258 87.6173 64.0674 83.9983 100.021H64.7283C64.5967 96.0537 66.4532 76.6828 63.6003 58.012C65.73 57.4616 67.884 57.0971 70.0487 56.9207C72.7755 56.7061 75.5094 56.7061 78.2361 56.9207C80.1095 57.1719 81.9654 57.619 83.7868 58.258Z" fill="#263238"/>
<path opacity="0.2" d="M78.5511 211.737L78.3678 217.509H74.7629L74.9462 211.737H78.5511Z" fill="black"/>
<path opacity="0.2" d="M51.1595 210.267L54.7785 211.289L53.4578 216.663L49.8435 215.641L51.1595 210.267Z" fill="black"/>
<path d="M69.3672 40.9561C70.3072 45.5859 70.655 48.3613 72.7841 50.2851C75.9895 53.1867 79.9798 49.8625 80.102 44.9488C80.2148 40.5334 78.692 33.7022 74.979 32.7686C74.1633 32.5568 73.3208 32.6287 72.5316 32.9773C71.7424 33.3259 71.0329 33.9397 70.4704 34.7603C69.9079 35.581 69.5113 36.5811 69.3182 37.6656C69.1251 38.75 69.1419 39.8828 69.3672 40.9561Z" fill="#FFC3BD"/>
<path d="M72.8077 49.7489H72.7607C72.2043 49.753 71.6552 49.5789 71.159 49.241C70.6628 48.9031 70.2338 48.4112 69.9078 47.8061C68.8268 45.7813 67.3087 42.2679 67.1348 38.2121C68.5072 36.2693 73.6631 34.9888 75.9614 35.689C77.8743 36.2756 77.597 43.5862 75.7875 47.5412C75.471 48.2181 75.0315 48.7759 74.5102 49.1621C73.989 49.5483 73.4031 49.7502 72.8077 49.7489Z" fill="#FFC3BD"/>
<path opacity="0.8" d="M72.8077 49.7489H72.7607C72.2043 49.753 71.6552 49.5789 71.159 49.241C70.6628 48.9031 70.2338 48.4112 69.9078 47.8061C68.8268 45.7813 67.3087 42.2679 67.1348 38.2121C68.5072 36.2693 73.6631 34.9888 75.9614 35.689C77.8743 36.2756 77.597 43.5862 75.7875 47.5412C75.471 48.2181 75.0315 48.7759 74.5102 49.1621C73.989 49.5483 73.4031 49.7502 72.8077 49.7489Z" fill="#263238"/>
<path d="M69.2261 39.8584C68.61 39.8355 68.0129 39.5672 67.5107 39.0876C67.0086 38.608 66.624 37.9387 66.4061 37.165C65.9972 35.525 66.4296 32.0621 68.8877 31.9611C71.3458 31.8602 71.5996 29.9805 70.8429 29.5957C72.4503 29.7534 71.9427 31.261 71.9427 31.261C72.3704 31.261 72.7746 29.7156 75.2327 29.8417C77.6908 29.9679 78.8893 29.2614 78.5744 28.5234C79.7353 28.8388 79.411 30.7311 78.4287 31.2421C78.4287 31.2421 80.7552 33.6074 81.3051 32.3081C81.6952 33.2542 80.9244 34.3896 77.9869 33.8724C79.1572 36.0738 76.3842 35.5818 75.2045 36.5784C74.0248 37.575 70.8476 40.0161 69.2261 39.8584Z" fill="#263238"/>
<path d="M75.2375 40.7414C75.4746 41.8891 75.9845 42.9013 76.6898 43.6241C77.6298 44.5576 78.3254 43.6241 78.2596 42.2111C78.2032 40.9496 77.6392 38.8996 76.6099 38.5211C75.5806 38.1427 74.9696 39.3474 75.2375 40.7414Z" fill="#FFC3BD"/>
<path d="M77.1692 100.021C77.1692 100.021 73.0802 136.947 70.8383 150.779C68.3849 165.918 55.2108 216.045 55.2108 216.045L48.7671 214.153C48.7671 214.153 57.9791 173.304 60.0471 152.129C61.631 135.862 64.7471 99.9961 64.7471 99.9961L77.1692 100.021Z" fill="#263238"/>
<path d="M56.7571 213.163L55.5539 216.317L48.3018 214.21L48.9128 211.283L56.7571 213.163Z" fill="#FF81AE"/>
<path opacity="0.3" d="M74.5842 113.179C69.8607 114.441 70.3542 138.063 70.9323 150.225C72.2906 141.627 74.2881 125.088 75.6323 113.35C75.3068 113.138 74.938 113.078 74.5842 113.179Z" fill="black"/>
<path d="M83.9983 100.021C83.9983 100.021 84.4965 136.145 84.1017 150.88C83.6975 166.208 79.7072 216.392 79.7072 216.392H73.5972C73.5972 216.392 73.3763 167.104 73.1037 152.054C72.8076 135.653 71.3318 100.021 71.3318 100.021H83.9983Z" fill="#263238"/>
<path d="M80.8823 213.131C80.9105 213.131 80.5345 216.525 80.5345 216.525H73.1179L72.9158 213.497L80.8823 213.131Z" fill="#FF81AE"/>
<path d="M83.8762 57.621C84.8162 58.1445 85.7233 59.0844 85.9959 62.2067C86.2591 65.2029 85.7515 91.4618 85.1405 99.8448C85.132 100.133 85.0473 100.407 84.9018 100.618C84.7562 100.83 84.5592 100.965 84.3462 100.999C80.4969 101.22 68.573 99.0626 64.5498 100.009C64.0798 100.122 63.6709 99.4285 63.6991 98.7977C64.014 90.6292 63.5581 77.4461 62.8155 69.0758C62.3455 63.607 62.3455 57.8859 65.7436 56.9145C68.2722 56.1955 80.2008 55.5647 83.8762 57.621Z" fill="#FF81AE"/>
<path d="M85.3661 64.8748C85.5823 66.2625 85.8361 67.77 86.0711 69.2081C86.3061 70.6463 86.5975 72.1034 86.8983 73.5226C87.1991 74.9419 87.5093 76.3359 87.8665 77.6668C88.1874 78.929 88.59 80.151 89.0697 81.3189C89.2447 81.7676 89.4542 82.1904 89.6948 82.5805C89.7841 82.7129 89.8546 82.8013 89.8734 82.8265C89.8922 82.8517 89.8734 82.8833 89.9627 82.9211C90.2654 83.0556 90.5845 83.1112 90.9027 83.0851C91.3754 83.0576 91.8463 82.9902 92.3127 82.8833C94.4349 82.2835 96.5187 81.461 98.5449 80.4232L99.9126 83.5771C97.9702 85.6701 95.794 87.339 93.4642 88.5223C92.8141 88.8429 92.144 89.0856 91.462 89.2477C90.6369 89.457 89.7911 89.474 88.9616 89.2982C88.4283 89.1769 87.9127 88.9427 87.4341 88.6043C87.0028 88.2809 86.602 87.8891 86.2403 87.4374C85.667 86.7187 85.1604 85.9097 84.7316 85.0279C83.404 82.0989 82.3749 78.9443 81.6719 75.6483C81.3194 74.0903 80.9951 72.5323 80.7319 70.9617C80.4687 69.3911 80.2055 67.8646 80.0034 66.1931L85.3661 64.8748Z" fill="#FFC3BD"/>
<path d="M77.4466 62.9826C74.5232 70.8735 81.4698 79.7926 81.4698 79.7926L89.2155 74.368C88.6747 70.1861 87.7871 66.0985 86.5693 62.1815C84.3133 55.4448 79.1292 58.4473 77.4466 62.9826Z" fill="#263238"/>
<path d="M97.8257 80.8647L100.453 78.5435L101.543 83.8167C101.543 83.8167 100.368 85.6649 98.2158 83.6527L97.8257 80.8647Z" fill="#FFC3BD"/>
<path d="M102.742 80.6754L102.657 81.7856C102.615 82.3184 102.423 82.8097 102.122 83.1607L101.544 83.7915L100.453 78.5182L100.787 78.4047C101.033 78.3188 101.291 78.3145 101.539 78.3922C101.787 78.4698 102.017 78.6272 102.209 78.8506C102.401 79.074 102.55 79.3569 102.643 79.6748C102.736 79.9927 102.77 80.3361 102.742 80.6754Z" fill="#FFC3BD"/>
</svg>
